<?xml version="1.0" encoding="UTF-8"?>
<svg version="1.1" xmlns="http://www.w3.org/2000/svg" width="1200" height="628">
<path d="M0 0 C396 0 792 0 1200 0 C1200 207.24 1200 414.48 1200 628 C804 628 408 628 0 628 C0 420.76 0 213.52 0 0 Z " fill="#6E09B7" transform="translate(0,0)"/>
<path d="M0 0 C3.24029244 2.60647699 5.65682201 4.97046604 7 9 C7.08610514 10.42718637 7.11771828 11.85806648 7.11352539 13.2878418 C7.11344986 14.14850754 7.11337433 15.00917328 7.11329651 15.8959198 C7.10813522 16.82100845 7.10297394 17.74609711 7.09765625 18.69921875 C7.0962413 19.64940384 7.09482635 20.59958893 7.09336853 21.5785675 C7.08776875 24.61491029 7.07521632 27.65117948 7.0625 30.6875 C7.05748497 32.74544164 7.05292207 34.80338444 7.04882812 36.86132812 C7.0377994 41.90758046 7.02053493 46.95377775 7 52 C2.38 52 -2.24 52 -7 52 C-7 50.35 -7 48.7 -7 47 C-7.66 47 -8.32 47 -9 47 C-9.33 47.99 -9.66 48.98 -10 50 C-14.40704708 52.79791663 -17.88995468 53.4087707 -23.0625 53.375 C-24.84333984 53.38660156 -24.84333984 53.38660156 -26.66015625 53.3984375 C-31.51296322 52.81950614 -34.02287912 51.08568987 -37.25 47.5 C-40.65381505 42.63740706 -40.49201914 37.73425943 -40 32 C-38.33241205 27.26053952 -36.27160444 24.63567082 -32 22 C-24.17510203 18.53383797 -16.42671986 18.67215931 -8 19 C-8.28127421 17.51882199 -8.57533732 16.04006751 -8.875 14.5625 C-9.03742188 13.73878906 -9.19984375 12.91507812 -9.3671875 12.06640625 C-9.68042969 11.04353516 -9.68042969 11.04353516 -10 10 C-13.01868434 8.49065783 -15.67297229 8.82489328 -19 9 C-22.35143175 10.87596527 -22.35143175 10.87596527 -24 15 C-28.62 15 -33.24 15 -38 15 C-37.87686951 9.08973641 -36.08859165 5.98782922 -32 1.734375 C-23.60996607 -5.54135755 -9.41439919 -5.04342814 0 0 Z " fill="#FCF5FD" transform="translate(406,320)"/>
<path d="M0 0 C5.65271906 4.64779123 8.56640137 9.83200686 10 17 C10 20.63 10 24.26 10 28 C-1.88 28 -13.76 28 -26 28 C-23.09422027 37.16839259 -23.09422027 37.16839259 -20 40 C-16.27800617 40.61442438 -12.71531502 40.67245521 -9 40 C-8.401875 39.01 -7.80375 38.02 -7.1875 37 C-6.465625 36.01 -5.74375 35.02 -5 34 C-0.3004928 33.43935704 4.28780119 33.65981452 9 34 C8.17492023 39.75953743 6.91512958 43.81365281 2.0625 47.453125 C-6.15859865 52.71221017 -14.46835045 52.84463627 -24 52 C-30.31055955 50.47739406 -34.47407655 46.30536145 -38 41 C-42.51748874 32.71793731 -42.44934557 21.09644989 -40 12.0625 C-37.44529078 5.81365727 -32.54466243 -0.25010467 -26.3125 -3.0625 C-17.40387402 -5.62285314 -7.84954497 -5.03555715 0 0 Z " fill="#F9F2FD" transform="translate(826,321)"/>
<path d="M0 0 C0.62777344 0.30550781 1.25554688 0.61101562 1.90234375 0.92578125 C5.87486466 3.23538643 7.68317806 5.76500529 9.4375 10 C11 16 11 16 11 29 C-0.55 29 -12.1 29 -24 29 C-21.89442719 37.5527864 -21.89442719 37.5527864 -18 41 C-14.61587993 41.68829561 -11.39442702 41.61817208 -8 41 C-7.236875 40.175 -6.47375 39.35 -5.6875 38.5 C-2.2718603 35.32266074 -0.75969431 35.66286533 3.8125 35.6875 C5.87607243 35.76766097 7.93933896 35.8642317 10 36 C9.50209983 42.34822723 8.13919525 45.27385676 3.3671875 49.41796875 C-1.85794454 53.07556118 -6.86776449 53.49355716 -13.0625 53.5625 C-14.19582764 53.58437378 -14.19582764 53.58437378 -15.35205078 53.60668945 C-22.47800482 53.47885923 -27.94504312 50.94438132 -33.3125 46.3125 C-39.8989018 39.00823425 -39.64654129 29.59177967 -39.34375 20.26171875 C-38.85897286 12.30271698 -35.76880894 6.7869591 -29.90234375 1.44140625 C-21.40192402 -4.99936352 -9.24537643 -4.89226183 0 0 Z " fill="#FBF2FD" transform="translate(574,320)"/>
<path d="M0 0 C4.75284226 2.71590986 7.64144097 4.91274669 9.1875 10.25 C9.45427179 13.62340166 9.42008572 16.98121801 9.3828125 20.36328125 C9.3799826 21.33283249 9.37715271 22.30238373 9.37423706 23.30131531 C9.36306991 26.38850405 9.33797152 29.47539939 9.3125 32.5625 C9.30246573 34.65950101 9.29334066 36.75650658 9.28515625 38.85351562 C9.26314188 43.9857896 9.22863571 49.1178451 9.1875 54.25 C4.2375 54.25 -0.7125 54.25 -5.8125 54.25 C-5.82651855 52.55472168 -5.82651855 52.55472168 -5.84082031 50.82519531 C-5.88072392 46.62785579 -5.94648326 42.43124896 -6.02001953 38.234375 C-6.0482271 36.41871561 -6.06944274 34.60293348 -6.08349609 32.78710938 C-6.10492909 30.17514211 -6.15157885 27.56465026 -6.203125 24.953125 C-6.20435364 24.14256653 -6.20558228 23.33200806 -6.20684814 22.49688721 C-6.30056812 18.88239785 -6.49059778 16.68615293 -8.66699219 13.73730469 C-11.62751075 11.68501986 -13.27838791 11.67300211 -16.8125 12.25 C-19.61831027 13.63396168 -19.61831027 13.63396168 -21.8125 16.25 C-22.56447099 19.2171976 -22.53393582 22.12282754 -22.51953125 25.171875 C-22.53465256 26.03186096 -22.54977386 26.89184692 -22.56535339 27.77789307 C-22.60826761 30.51886131 -22.6170717 33.25872913 -22.625 36 C-22.6481415 37.86070642 -22.67350612 39.7213866 -22.70117188 41.58203125 C-22.76406074 46.13811826 -22.79636694 50.6935172 -22.8125 55.25 C-28.0925 55.25 -33.3725 55.25 -38.8125 55.25 C-38.8125 37.1 -38.8125 18.95 -38.8125 0.25 C-33.5325 0.25 -28.2525 0.25 -22.8125 0.25 C-22.4825 1.9 -22.1525 3.55 -21.8125 5.25 C-21.07 4.63125 -20.3275 4.0125 -19.5625 3.375 C-13.45284202 -1.34609935 -7.4763095 -1.99368253 0 0 Z " fill="#F8EFFB" transform="translate(632.8125,317.75)"/>
<path d="M0 0 C4.95 0 9.9 0 15 0 C15.01458252 1.12494873 15.02916504 2.24989746 15.04418945 3.40893555 C15.10227754 7.59317387 15.17950964 11.77687997 15.26245117 15.96069336 C15.29565114 17.76952458 15.32369841 19.57845818 15.34643555 21.38745117 C15.38007258 23.99181633 15.43239195 26.5952476 15.48828125 29.19921875 C15.49467117 30.00461594 15.5010611 30.81001312 15.50764465 31.63981628 C15.62560361 36.1713185 15.94837474 39.39192017 19 43 C23.25270028 43.70878338 25.24640289 43.49147637 28.875 41.125 C32.65476825 37.34523175 32.21006216 33.79513962 32.31640625 28.7109375 C32.33718735 27.89251373 32.35796844 27.07408997 32.37937927 26.23086548 C32.44484812 23.61233034 32.50374726 20.99369361 32.5625 18.375 C32.60568776 16.60155193 32.64930214 14.82811419 32.69335938 13.0546875 C32.80052676 8.70322954 32.90180169 4.35166923 33 0 C37.95 0 42.9 0 48 0 C48 17.82 48 35.64 48 54 C43.05 54 38.1 54 33 54 C32.505 51.03 32.505 51.03 32 48 C31.2575 48.78375 30.515 49.5675 29.75 50.375 C25.54043248 54.39322354 22.87675614 55.2793279 17.0625 55.25 C16.04285156 55.25515625 15.02320313 55.2603125 13.97265625 55.265625 C9.54988763 54.8704236 6.87473249 53.9247172 3.8125 50.6875 C-0.14764849 44.81555569 -0.27311996 40.00061398 -0.1953125 33.10546875 C-0.1924826 32.15811356 -0.18965271 31.21075836 -0.18673706 30.23469543 C-0.17557187 27.21883334 -0.15047389 24.20327184 -0.125 21.1875 C-0.11496547 19.13867617 -0.10584045 17.08984768 -0.09765625 15.04101562 C-0.07564449 10.02722852 -0.04113971 5.01366517 0 0 Z " fill="#FDFAFE" transform="translate(690,318)"/>
<path d="M0 0 C4.97160919 3.2175132 7.70447467 6.44807417 9.58984375 12.0703125 C10 14 10 14 10 18 C5.05 18 0.1 18 -5 18 C-5.45375 16.865625 -5.9075 15.73125 -6.375 14.5625 C-7.57095806 10.95278308 -7.57095806 10.95278308 -10 10 C-11.70702735 9.93003986 -13.41668003 9.91559846 -15.125 9.9375 C-16.03507812 9.94652344 -16.94515625 9.95554687 -17.8828125 9.96484375 C-18.93082031 9.98224609 -18.93082031 9.98224609 -20 10 C-22.70953413 18.0479615 -25.40913813 27.85839435 -22.16796875 36.12109375 C-20.73163489 38.36435674 -19.39130487 39.80434757 -17 41 C-13.48256723 41.26055058 -10.89457829 41.43520025 -7.6875 39.875 C-5.42779955 37.61535006 -5.42779955 37.61535006 -4 32 C0.62 32 5.24 32 10 32 C9.75128396 38.96404906 7.82423301 42.96359007 3 48 C-4.10586518 53.92724812 -12.22009581 53.69010156 -21.02734375 53.22216797 C-25.27611219 52.74365568 -28.01402563 50.93397979 -31 48 C-31.83917969 47.22076172 -31.83917969 47.22076172 -32.6953125 46.42578125 C-38.69204375 40.21177713 -40.15293025 33.52615518 -40.4375 25.0625 C-40.25165301 17.24003104 -38.66043999 11.13795486 -33.5625 5.125 C-32.716875 4.42375 -31.87125 3.7225 -31 3 C-29.7934375 1.9171875 -29.7934375 1.9171875 -28.5625 0.8125 C-20.51468615 -4.87985614 -8.53117564 -4.87233092 0 0 Z " fill="#FBF4FD" transform="translate(518,320)"/>
<path d="M0 0 C3.22380638 2.51092536 5.60701226 5.11167444 7.21484375 8.86328125 C7.21484375 11.17328125 7.21484375 13.48328125 7.21484375 15.86328125 C2.59484375 15.86328125 -2.02515625 15.86328125 -6.78515625 15.86328125 C-7.44515625 14.21328125 -8.10515625 12.56328125 -8.78515625 10.86328125 C-12.46451146 8.41037778 -15.50976559 8.16367187 -19.78515625 8.86328125 C-23.23453466 11.31415538 -24.44139241 13.92919819 -25.78515625 17.86328125 C-26.59426834 24.89309929 -25.64718934 30.45232713 -22.78515625 36.86328125 C-22.45515625 37.85328125 -22.12515625 38.84328125 -21.78515625 39.86328125 C-15.19955741 40.49663469 -15.19955741 40.49663469 -9.28515625 38.17578125 C-7.46734571 35.53683026 -7.46734571 35.53683026 -5.78515625 30.86328125 C-1.16515625 30.86328125 3.45484375 30.86328125 8.21484375 30.86328125 C7.9303114 38.83018706 5.11176156 42.87955091 -0.36328125 48.4765625 C-4.96772117 52.15804037 -9.67104758 52.31453931 -15.34765625 52.36328125 C-16.06800049 52.36972656 -16.78834473 52.37617188 -17.53051758 52.3828125 C-24.64327441 52.21351928 -30.6653311 49.9831064 -35.78515625 44.86328125 C-42.09417762 35.364105 -43.27127972 25.46516539 -41.32421875 14.1953125 C-39.31140349 7.31622036 -35.30930516 2.16985324 -29.16015625 -1.51171875 C-19.98524662 -5.92926783 -8.67885789 -5.52636246 0 0 Z " fill="#FBF3FD" transform="translate(463.78515625,321.13671875)"/>
<path d="M0 0 C0 5.28 0 10.56 0 16 C3.3 16 6.6 16 10 16 C10 19.96 10 23.92 10 28 C6.7 28 3.4 28 0 28 C0.11798252 32.11193736 0.24221059 36.22363288 0.37231445 40.33520508 C0.41571434 41.73489199 0.45738564 43.13463359 0.49731445 44.53442383 C0.55489445 46.54261495 0.61914 48.55061149 0.68359375 50.55859375 C0.72025146 51.76829834 0.75690918 52.97800293 0.79467773 54.22436523 C0.68938266 56.90705456 0.68938266 56.90705456 2 58 C3.34747084 58.23075082 4.70377565 58.41153063 6.0625 58.5625 C7.361875 58.706875 8.66125 58.85125 10 59 C10 62.63 10 66.26 10 70 C4.05021772 71.98326076 -2.70420746 71.8458183 -8.5625 69.6875 C-13.1250039 66.52884345 -14.49220097 64.43769237 -16 59 C-16.15839988 56.47548068 -16.21554772 53.94346536 -16.1953125 51.4140625 C-16.1924826 50.71227875 -16.18965271 50.010495 -16.18673706 49.28744507 C-16.17562512 47.06644972 -16.15053834 44.84587155 -16.125 42.625 C-16.11495854 41.11068295 -16.10583473 39.59635951 -16.09765625 38.08203125 C-16.07571554 34.38788742 -16.04124875 30.69398449 -16 27 C-17.98 27 -19.96 27 -22 27 C-22 23.37 -22 19.74 -22 16 C-20.02 16 -18.04 16 -16 16 C-16 12.7 -16 9.4 -16 6 C-13.89915791 4.99303432 -11.79420511 3.9946411 -9.6875 3 C-8.51574219 2.443125 -7.34398437 1.88625 -6.13671875 1.3125 C-3 0 -3 0 0 0 Z " fill="#FBF7FE" transform="translate(671,302)"/>
<path d="M0 0 C15.52641095 5.54109429 30.76200922 11.71617531 46 18 C46 21.96 46 25.92 46 30 C40.2128911 32.63973389 34.37101623 35.0777751 28.45849609 37.42285156 C22.3094623 39.8654309 16.18501403 42.36677445 10.0625 44.875 C9.0722583 45.28065186 8.0820166 45.68630371 7.06176758 46.10424805 C4.70765487 47.06903477 2.35379926 48.0344488 0 49 C0 44.05 0 39.1 0 34 C8.27787349 30.50933046 16.59954559 27.1840432 25 24 C23.865625 23.61328125 22.73125 23.2265625 21.5625 22.828125 C20.04156737 22.30237051 18.52073961 21.77631254 17 21.25 C16.25621094 20.99734375 15.51242187 20.7446875 14.74609375 20.484375 C9.5949176 18.69266156 4.8342404 16.5269893 0 14 C0 9.38 0 4.76 0 0 Z " fill="#FBF2FE" transform="translate(640,250)"/>
<path d="M0 0 C4.95 0 9.9 0 15 0 C15.33 2.31 15.66 4.62 16 7 C16.5775 6.21625 17.155 5.4325 17.75 4.625 C19.91749263 2.09625859 20.88790077 0.97808833 24 0 C26.31 0 28.62 0 31 0 C31 4.95 31 9.9 31 15 C28.78645833 15.22786458 26.57291667 15.45572917 24.359375 15.68359375 C23.58078125 15.78800781 22.8021875 15.89242188 22 16 C21.28328125 16.07347656 20.5665625 16.14695312 19.828125 16.22265625 C17.79598423 16.85939043 17.79598423 16.85939043 16.91162109 19.06689453 C15.80284774 22.63432975 15.64736063 26.00592634 15.5859375 29.70703125 C15.56657135 30.43242599 15.5472052 31.15782074 15.5272522 31.90519714 C15.46777892 34.20751422 15.42120155 36.50988219 15.375 38.8125 C15.33679042 40.37957832 15.29773697 41.94663631 15.2578125 43.51367188 C15.16052505 47.34233825 15.08070406 51.1708049 15 55 C10.05 55 5.1 55 0 55 C0 36.85 0 18.7 0 0 Z " fill="#FEFBFE" transform="translate(749,318)"/>
<path d="M0 0 C0 0.66 0 1.32 0 2 C0.99 2.33 1.98 2.66 3 3 C12.05596805 15.25219207 8.59994314 37.5911152 7.31640625 52.015625 C7 54 7 54 6 55 C3.13732433 55.07325168 0.299281 55.09238205 -2.5625 55.0625 C-3.36880859 55.05798828 -4.17511719 55.05347656 -5.00585938 55.04882812 C-7.00393756 55.03700518 -9.00197783 55.01906914 -11 55 C-11.495 51.535 -11.495 51.535 -12 48 C-11.34 48 -10.68 48 -10 48 C-10 49.65 -10 51.3 -10 53 C-5.38 53 -0.76 53 4 53 C3.93107863 46.96728558 3.84308918 40.9352613 3.73754883 34.90307617 C3.70432917 32.85172184 3.67628803 30.80027675 3.65356445 28.7487793 C3.6199643 25.79697051 3.56764524 22.84599114 3.51171875 19.89453125 C3.50532883 18.97976517 3.4989389 18.06499908 3.49235535 17.12251282 C3.38072634 12.26964678 3.14623738 8.9379174 0 5 C-6.37170891 -1.02729221 -13.07445567 -1.45496699 -21.515625 -1.3125 C-27.73754941 -0.75447987 -32.65262062 1.19325142 -36.9375 5.8125 C-39.20545807 9.31752611 -40.11104282 11.95928556 -41 16 C-38.72854654 15.96699341 -36.45759874 15.89759995 -34.1875 15.8125 C-32.92292969 15.77769531 -31.65835937 15.74289062 -30.35546875 15.70703125 C-26.83474195 15.35490257 -26.83474195 15.35490257 -25.17578125 12.51171875 C-24.78777344 11.68285156 -24.39976562 10.85398437 -24 10 C-20.90826248 8.45413124 -18.40570448 8.70640479 -15 9 C-12.5625 10.5625 -12.5625 10.5625 -11 13 C-10.9376337 15.33249971 -10.93196204 17.66765884 -11 20 C-12.39412109 20.09087891 -12.39412109 20.09087891 -13.81640625 20.18359375 C-22.94146885 20.79571552 -22.94146885 20.79571552 -32 22 C-32.66 20.68 -33.32 19.36 -34 18 C-36.64 18 -39.28 18 -42 18 C-43.39932158 15.64324786 -44.12956699 13.85269084 -43.7109375 11.09765625 C-42.11807438 6.09836899 -39.67626133 3.36308345 -35.5234375 0.2265625 C-33.8554948 -0.94215698 -33.8554948 -0.94215698 -33 -3 C-22.34830024 -5.56324326 -9.31544234 -6.73919363 0 0 Z " fill="#8627CA" transform="translate(409,319)"/>
<path d="M0 0 C1.1875 1.6875 1.1875 1.6875 2 4 C1.05558334 5.69878043 0.04380192 7.36041001 -1 9 C-1.474375 9.94875 -1.94875 10.8975 -2.4375 11.875 C-6.87707359 20.75414719 -12.39626393 27.66033495 -19 35 C-20.18946612 36.35244 -21.3772679 37.70634791 -22.5625 39.0625 C-23.09875 39.67222656 -23.635 40.28195313 -24.1875 40.91015625 C-29.35925016 46.87327335 -34.5062305 52.89148421 -39.1875 59.25 C-43.86862528 65.58328714 -48.9350318 71.10609422 -54.94140625 76.19921875 C-58.47065332 79.28647282 -61.72086421 82.65158669 -65 86 C-70.21576821 91.21576821 -76.08008898 95.64276547 -81.94067383 100.09765625 C-86.60458016 103.6557017 -91.10029254 107.37829851 -95.5625 111.1875 C-97.99397085 112.99551679 -100.19352243 113.91451942 -103 115 C-105.77152212 117.52056045 -105.77152212 117.52056045 -108 120 C-108.66 119.67 -109.32 119.34 -110 119 C-106.38341896 113.93678654 -102.5502277 111.29095371 -97.109375 108.296875 C-94.86708673 107.17393516 -94.86708673 107.17393516 -94 105 C-93.01 105 -92.02 105 -91 105 C-90.34 103.68 -89.68 102.36 -89 101 C-88.01 101 -87.02 101 -86 101 C-85.505 99.515 -85.505 99.515 -85 98 C-83.5555581 96.75252745 -82.10569871 95.50997224 -80.61328125 94.3203125 C-77.37058885 91.66648676 -74.54538841 88.55974073 -71.625 85.5625 C-62.85365854 77 -62.85365854 77 -60 77 C-59.73703125 76.42121094 -59.4740625 75.84242188 -59.203125 75.24609375 C-56.51521343 70.22807703 -52.30112344 65.91819208 -47.875 62.375 C-44.8131102 59.84561277 -42.45116509 57.0897581 -40 54 C-38.48069061 52.1445844 -36.95971959 50.29052875 -35.4375 48.4375 C-33.23736359 45.74929174 -31.04556814 43.05744449 -28.88671875 40.3359375 C-26.74766314 37.68758294 -24.50406787 35.3063783 -22 33 C-21.34 33 -20.68 33 -20 33 C-19.71125 31.88625 -19.4225 30.7725 -19.125 29.625 C-18 26 -18 26 -16 24 C-15.01 24 -14.02 24 -13 24 C-12.71125 23.071875 -12.4225 22.14375 -12.125 21.1875 C-11 18 -11 18 -9 15 C-8.34 15 -7.68 15 -7 15 C-6.34 13.02 -5.68 11.04 -5 9 C-4.34 9 -3.68 9 -3 9 C-3.061875 8.071875 -3.12375 7.14375 -3.1875 6.1875 C-3 3 -3 3 -1.5 1.125 C-1.005 0.75375 -0.51 0.3825 0 0 Z " fill="#4900C5" transform="translate(1123,55)"/>
<path d="M0 0 C0.66 0.66 1.32 1.32 2 2 C3.7455331 1.79053603 5.49004605 1.56732544 7.2265625 1.29296875 C13.44394247 0.63620326 19.75532785 0.93179363 26 1 C26 1.99 26 2.98 26 4 C25.071875 3.7525 25.071875 3.7525 24.125 3.5 C16.46964471 2.27514315 11.05100869 2.16413104 4.59375 6.80859375 C4.0678125 7.20175781 3.541875 7.59492188 3 8 C2.01 8.495 2.01 8.495 1 9 C1 7.02 1 5.04 1 3 C-4.28 3 -9.56 3 -15 3 C-15 21.15 -15 39.3 -15 58 C-9.72 58 -4.44 58 1 58 C0.95286865 56.26713745 0.95286865 56.26713745 0.90478516 54.49926758 C0.79599803 50.20381679 0.72723618 45.90848709 0.67041016 41.61206055 C0.64027854 39.75443023 0.59936405 37.89694172 0.54736328 36.03979492 C0.47438355 33.36601782 0.4405093 30.69412421 0.4140625 28.01953125 C0.38309479 27.19226028 0.35212708 26.36498932 0.32022095 25.51264954 C0.31696012 19.89718595 0.31696012 19.89718595 2.26141357 17.34310913 C4.90983653 15.01256479 6.73219412 14.03090068 10.25 13.625 C13 14 13 14 15 15 C15.625 18.0625 15.625 18.0625 16 21 C15.46375 20.484375 14.9275 19.96875 14.375 19.4375 C12.0053956 17.68789405 12.0053956 17.68789405 8.8125 18.25 C6.11529528 18.71769263 6.11529528 18.71769263 5 20 C4.85217712 22.61756976 4.76495578 25.2120982 4.71875 27.83203125 C4.70034058 28.62018723 4.68193115 29.4083432 4.66296387 30.22038269 C4.60403532 32.7510103 4.55133064 35.28170755 4.5 37.8125 C4.43225578 41.13165027 4.35849118 44.45059004 4.28125 47.76953125 C4.26767456 48.53320511 4.25409912 49.29687897 4.2401123 50.08369446 C4.15808164 53.60298293 3.85974611 56.56101557 3 60 C-2.94 60.33 -8.88 60.66 -15 61 C-18.37556564 55.37405726 -18.37556564 55.37405726 -18.37231445 50.70654297 C-18.37854324 49.6755246 -18.38477203 48.64450623 -18.39118958 47.58224487 C-18.38197983 46.48002594 -18.37277008 45.37780701 -18.36328125 44.2421875 C-18.36377975 43.10218292 -18.36427826 41.96217834 -18.36479187 40.78762817 C-18.36245455 38.38200127 -18.35274628 35.97637178 -18.33618164 33.57080078 C-18.31254238 29.88161465 -18.31562941 26.19314911 -18.32226562 22.50390625 C-18.31669032 20.16666234 -18.30958137 17.82942149 -18.30078125 15.4921875 C-18.30169266 14.3859201 -18.30260406 13.27965271 -18.30354309 12.13986206 C-18.29401108 11.11514801 -18.28447906 10.09043396 -18.2746582 9.03466797 C-18.27005081 8.13263641 -18.26544342 7.23060486 -18.26069641 6.30123901 C-18 4 -18 4 -16 1 C-13.39757753 0.80503986 -11.02756497 0.76437513 -8.4375 0.875 C-5.95500142 0.95293624 -3.48460089 0.99413317 -1 1 C-0.67 0.67 -0.34 0.34 0 0 Z " fill="#6C0ECB" transform="translate(609,315)"/>
<path d="M0 0 C0.88558594 -0.01611328 1.77117187 -0.03222656 2.68359375 -0.04882812 C9.47972657 -0.05389231 13.80865316 1.05002169 18.8125 5.9375 C19.575625 6.72125 20.33875 7.505 21.125 8.3125 C22.115 8.6425 23.105 8.9725 24.125 9.3125 C25.109375 11.67578125 25.109375 11.67578125 25.875 14.625 C26.26945312 16.07326172 26.26945312 16.07326172 26.671875 17.55078125 C27.11906807 20.27634589 27.20178365 21.78664049 26.125 24.3125 C21.3782925 26.68585375 16.32929611 26.92593414 11.125 26.3125 C8.625 25.25 8.625 25.25 7.125 23.3125 C6.375 19.625 6.375 19.625 6.125 16.3125 C7.625 17.625 7.625 17.625 9.125 19.3125 C9.125 20.3025 9.125 21.2925 9.125 22.3125 C13.745 22.3125 18.365 22.3125 23.125 22.3125 C22.76409571 16.41772986 21.27056996 12.59625563 17.125 8.3125 C10.19666371 3.07670248 2.51309023 2.66454359 -5.875 3.3125 C-12.09679068 4.6655264 -17.32578234 7.7615131 -21.09765625 13.015625 C-26.37156648 21.71096086 -26.04513899 32.99113432 -23.875 42.6875 C-23.545 43.88375 -23.215 45.08 -22.875 46.3125 C-24.796875 45.5234375 -24.796875 45.5234375 -26.875 44.3125 C-29.97702055 35.93704451 -30.6614888 23.61677329 -27.01171875 15.359375 C-21.01428423 4.55987091 -11.83853416 -0.04270755 0 0 Z " fill="#8222D0" transform="translate(447.875,314.6875)"/>
<path d="M0 0 C6.34046126 0.05661126 12.1151417 1.78796106 18 4 C18 4.66 18 5.32 18 6 C12.6645765 8.01983889 8.01502105 4.97018684 3 3 C2.67 7.29 2.34 11.58 2 16 C2.928125 16.226875 3.85625 16.45375 4.8125 16.6875 C9.17469627 17.92374995 13.16600135 19.8438998 17.265625 21.7578125 C20.78812787 23.35803523 24.35914017 24.6947861 28 26 C20.01788153 30.1092455 11.4334155 32.97262008 3 36 C3 40.62 3 45.24 3 50 C5.79947917 48.69791667 8.59895833 47.39583333 11.3984375 46.09375 C14 45 14 45 16 45 C16 45.66 16 46.32 16 47 C15.21625 47.0825 14.4325 47.165 13.625 47.25 C12.75875 47.4975 11.8925 47.745 11 48 C10.71125 48.66 10.4225 49.32 10.125 50 C9 52 9 52 6.8359375 52.609375 C6.02382813 52.65578125 5.21171875 52.7021875 4.375 52.75 C3.55773437 52.80671875 2.74046875 52.8634375 1.8984375 52.921875 C1.27195312 52.94765625 0.64546875 52.9734375 0 53 C0 52.34 0 51.68 0 51 C-0.66 51 -1.32 51 -2 51 C-2.08119503 48.75059705 -2.13927819 46.50035129 -2.1875 44.25 C-2.22230469 42.99703125 -2.25710938 41.7440625 -2.29296875 40.453125 C-1.98281303 36.7974229 -1.63006757 35.48853927 1 33 C2.97265625 32.0234375 2.97265625 32.0234375 5.0625 31.375 C7.82851987 30.49935125 8.89232408 30.10767592 11 28 C13.1640625 27.5859375 13.1640625 27.5859375 15.625 27.375 C16.44226563 27.30023438 17.25953125 27.22546875 18.1015625 27.1484375 C18.72804688 27.09945313 19.35453125 27.05046875 20 27 C20 26.34 20 25.68 20 25 C18.88625 24.938125 17.7725 24.87625 16.625 24.8125 C11.17607052 24.16800296 6.73890059 21.63164357 2 19 C2 18.34 2 17.68 2 17 C1.01 17 0.02 17 -1 17 C-1.02684679 14.35409986 -1.04676357 11.70846904 -1.0625 9.0625 C-1.07087891 8.30775391 -1.07925781 7.55300781 -1.08789062 6.77539062 C-1.09652441 4.85005687 -1.05224333 2.92464419 -1 1 C-0.67 0.67 -0.34 0.34 0 0 Z " fill="#7610D6" transform="translate(638,248)"/>
<path d="M0 0 C1.05960938 0.00676758 1.05960938 0.00676758 2.140625 0.01367188 C3.88545275 0.02546125 5.630237 0.04339676 7.375 0.0625 C9.53467752 4.41055153 9.60791443 8.35260724 9.5 13.1015625 C9.49242676 13.86423431 9.48485352 14.62690613 9.47705078 15.41268921 C9.4527137 17.83786117 9.41544799 20.26254652 9.375 22.6875 C9.32184803 25.88800786 9.28186334 29.08827992 9.25 32.2890625 C9.23340332 33.02347565 9.21680664 33.75788879 9.19970703 34.51455688 C9.16343598 38.27187289 9.2329902 39.8494853 11.375 43.0625 C13.56954681 43.64243699 13.56954681 43.64243699 16 43.75 C16.81726563 43.81574219 17.63453125 43.88148438 18.4765625 43.94921875 C19.10304688 43.98660156 19.72953125 44.02398437 20.375 44.0625 C18.10213153 46.65315555 17.54533029 47.03462777 13.9375 47.625 C10.375 47.0625 10.375 47.0625 8.17675781 44.58349609 C5.92549507 40.18407723 5.85916312 37.01745823 5.984375 32.1640625 C5.99003479 31.32910248 5.99569458 30.49414246 6.00152588 29.63388062 C6.02379777 26.98448734 6.07397477 24.33647984 6.125 21.6875 C6.14507698 19.88413421 6.16332565 18.08074708 6.1796875 16.27734375 C6.22363214 11.87186731 6.29259399 7.46741806 6.375 3.0625 C1.425 3.0625 -3.525 3.0625 -8.625 3.0625 C-8.295 17.5825 -7.965 32.1025 -7.625 47.0625 C-8.285 47.0625 -8.945 47.0625 -9.625 47.0625 C-12.25790343 43.11314486 -11.91244926 39.70744248 -11.890625 35.125 C-11.89253845 34.24851807 -11.8944519 33.37203613 -11.89642334 32.46899414 C-11.89778399 30.61637078 -11.89409594 28.76373784 -11.88574219 26.91113281 C-11.87504092 24.07335011 -11.88564148 21.23620048 -11.8984375 18.3984375 C-11.89711588 16.59895693 -11.89455345 14.79947676 -11.890625 13 C-11.89467346 12.14994385 -11.89872192 11.2998877 -11.90289307 10.42407227 C-11.85493499 4.40740249 -11.85493499 4.40740249 -9.625 1.0625 C-6.55966836 -0.47016582 -3.35745728 -0.04026471 0 0 Z " fill="#7328CB" transform="translate(698.625,314.9375)"/>
<path d="M0 0 C1.61648438 0.04060547 1.61648438 0.04060547 3.265625 0.08203125 C4.08546875 0.11683594 4.9053125 0.15164063 5.75 0.1875 C6.3451872 5.24659118 6.54045731 8.17409319 3.3125 12.3125 C-0.17203056 14.7242276 -3.2289333 14.42846146 -7.296875 13.875 C-9.25 13.1875 -9.25 13.1875 -11.25 10.1875 C-11.02852232 3.98612501 -11.02852232 3.98612501 -8.5859375 1.48046875 C-5.55917973 -0.19487711 -3.43725396 -0.11208437 0 0 Z " fill="#7C02D5" transform="translate(392.25,348.8125)"/>
<path d="M0 0 C0.66 0 1.32 0 2 0 C9.71678332 12.41395577 7.22085686 36.07166318 5 50 C4 51 4 51 0.18359375 51.09765625 C-1.39846682 51.09098089 -2.98051159 51.07901875 -4.5625 51.0625 C-5.36880859 51.05798828 -6.17511719 51.05347656 -7.00585938 51.04882812 C-9.00393756 51.03700518 -11.00197783 51.01906914 -13 51 C-13.33 48.69 -13.66 46.38 -14 44 C-13.34 44 -12.68 44 -12 44 C-12 45.65 -12 47.3 -12 49 C-7.38 49 -2.76 49 2 49 C1.88145565 42.98587553 1.75718752 36.97190633 1.62768555 30.95800781 C1.58445633 28.9134439 1.54277308 26.86884668 1.50268555 24.82421875 C1.44469112 21.88010637 1.38108156 18.93615978 1.31640625 15.9921875 C1.29969376 15.0825827 1.28298126 14.17297791 1.26576233 13.23580933 C1.16126744 8.72788757 0.89696615 4.43694997 0 0 Z " fill="#8D30D1" transform="translate(411,323)"/>
<path d="M0 0 C3 1.5625 3 1.5625 5 4 C5.33 6.31 5.66 8.62 6 11 C-0.6 11 -7.2 11 -14 11 C-13 4 -13 4 -11.5 1.5625 C-7.72887154 -0.79445529 -4.32480564 -0.74778279 0 0 Z " fill="#5303C7" transform="translate(815,328)"/>
<path d="M0 0 C10.56 0 21.12 0 32 0 C31.01 1.485 31.01 1.485 30 3 C26.9609375 3.29296875 26.9609375 3.29296875 23.375 3.1875 C22.18648437 3.16042969 20.99796875 3.13335937 19.7734375 3.10546875 C18.85820313 3.07066406 17.94296875 3.03585937 17 3 C16.86722656 3.79792969 16.73445312 4.59585937 16.59765625 5.41796875 C16 8 16 8 14.4375 9.3125 C10.89342826 10.31210998 7.67781281 10.12259376 4 10 C3.71125 9.360625 3.4225 8.72125 3.125 8.0625 C2.17176549 5.84793921 2.17176549 5.84793921 0 5 C0 3.35 0 1.7 0 0 Z " fill="#7102E0" transform="translate(553,351)"/>
<path d="M0 0 C4.53413369 4.07691013 5.7760849 9.23159515 6.2578125 15.1875 C6.30800919 18.17061786 6.3559329 21.03697418 6 24 C4 26 4 26 0.74365234 26.22705078 C-0.64229295 26.22673382 -2.02826301 26.21541759 -3.4140625 26.1953125 C-4.14370209 26.1924826 -4.87334167 26.18965271 -5.62509155 26.18673706 C-7.95856028 26.17553002 -10.29164703 26.1504251 -12.625 26.125 C-14.20572363 26.11497085 -15.78645327 26.10584489 -17.3671875 26.09765625 C-21.24493914 26.07558905 -25.12240478 26.04105615 -29 26 C-29 27.65 -29 29.3 -29 31 C-28.01 31.33 -27.02 31.66 -26 32 C-25.3125 34.0625 -25.3125 34.0625 -25 36 C-21.535 35.505 -21.535 35.505 -18 35 C-18 34.67 -18 34.34 -18 34 C-16.35 34 -14.7 34 -13 34 C-14.69762882 36.08042748 -15.64397838 36.92215798 -18.3046875 37.50390625 C-23.11798045 37.61363177 -25.25255316 37.62541471 -29.0625 34.4375 C-31 31 -31 31 -32 24 C-20.45 24 -8.9 24 3 24 C2.40019438 13.20673534 2.40019438 13.20673534 -0.4765625 3.70703125 C-1 2 -1 2 0 0 Z " fill="#721DC8" transform="translate(582,325)"/>
<path d="M0 0 C3.0625 2.125 3.0625 2.125 5 5 C5 6.98 5 8.96 5 11 C-1.6 11 -8.2 11 -15 11 C-12.37884873 1.82597055 -9.72981561 -1.9909765 0 0 Z " fill="#7202DE" transform="translate(565,328)"/>
<path d="M0 0 C0.33 0.99 0.66 1.98 1 3 C1.66 3 2.32 3 3 3 C3 6.63 3 10.26 3 14 C6.0109362 11.9927092 6.63016497 11.16115776 8 8 C8.66 8 9.32 8 10 8 C10 7.34 10 6.68 10 6 C11.390625 4.74609375 11.390625 4.74609375 13.25 3.4375 C13.85328125 3.00308594 14.4565625 2.56867188 15.078125 2.12109375 C18.39746715 0.18481083 21.53326435 -0.1247624 25.328125 -0.09765625 C26.52695312 -0.09282227 26.52695312 -0.09282227 27.75 -0.08789062 C28.575 -0.07951172 29.4 -0.07113281 30.25 -0.0625 C31.09046875 -0.05798828 31.9309375 -0.05347656 32.796875 -0.04882812 C34.86461401 -0.03707961 36.93231624 -0.01914522 39 0 C39 0.33 39 0.66 39 1 C37.84242188 1.06058594 36.68484375 1.12117188 35.4921875 1.18359375 C33.95311543 1.26805502 32.41405345 1.35270018 30.875 1.4375 C30.11445312 1.47681641 29.35390625 1.51613281 28.5703125 1.55664062 C22.21555821 1.82903376 22.21555821 1.82903376 16 3 C14.72662958 4.84356861 14.72662958 4.84356861 14 7 C13.09165537 8.04686053 12.1521621 9.06729451 11.1875 10.0625 C7.27797011 14.46192184 5.20698298 19.59972748 3 25 C2.31292445 22.50935112 2 20.62113708 2 18 C1.01 18.66 0.02 19.32 -1 20 C-2.9896995 20.39013716 -4.99019869 20.73202649 -7 21 C-7.33 20.01 -7.66 19.02 -8 18 C-5.69 18 -3.38 18 -1 18 C-1 13.05 -1 8.1 -1 3 C-3.64 3.33 -6.28 3.66 -9 4 C-9.33 3.01 -9.66 2.02 -10 1 C-6.61981469 -0.04005702 -3.5219721 -0.08004482 0 0 Z " fill="#5D19BF" transform="translate(781,315)"/>
<path d="M0 0 C10.89 0 21.78 0 33 0 C32.67 0.66 32.34 1.32 32 2 C31.19175781 1.94199219 30.38351562 1.88398438 29.55078125 1.82421875 C22.74015029 1.39347188 22.74015029 1.39347188 16.8125 4.3125 C14.8761525 6.92442127 14.8761525 6.92442127 14 10 C12.741875 10.04125 11.48375 10.0825 10.1875 10.125 C9.47980469 10.14820313 8.77210938 10.17140625 8.04296875 10.1953125 C6 10 6 10 3 8 C2.34 7.67 1.68 7.34 1 7 C0.67 4.69 0.34 2.38 0 0 Z " fill="#5001C6" transform="translate(802,351)"/>
<path d="M0 0 C1.1875 1.6875 1.1875 1.6875 2 4 C1.05558334 5.69878043 0.04380192 7.36041001 -1 9 C-1.474375 9.94875 -1.94875 10.8975 -2.4375 11.875 C-6.87749779 20.75499557 -12.39821527 27.65819221 -19 35 C-20.29348518 36.4775767 -21.58544961 37.95648798 -22.875 39.4375 C-23.40996094 40.04464844 -23.94492188 40.65179688 -24.49609375 41.27734375 C-26.71054306 43.81389478 -28.85725496 46.40273328 -31 49 C-31.495 47.515 -31.495 47.515 -32 46 C-31.39671875 45.45472656 -30.7934375 44.90945312 -30.171875 44.34765625 C-25.41562341 39.85990273 -22.12312127 36.06499035 -19.76171875 29.953125 C-18.84419347 27.60049608 -17.79034008 25.79034008 -16 24 C-15.01 24 -14.02 24 -13 24 C-12.71125 23.071875 -12.4225 22.14375 -12.125 21.1875 C-11 18 -11 18 -9 15 C-8.34 15 -7.68 15 -7 15 C-6.34 13.02 -5.68 11.04 -5 9 C-4.34 9 -3.68 9 -3 9 C-3.061875 8.071875 -3.12375 7.14375 -3.1875 6.1875 C-3 3 -3 3 -1.5 1.125 C-1.005 0.75375 -0.51 0.3825 0 0 Z M-34 49 C-33.34 49.33 -32.68 49.66 -32 50 C-33.65 51.65 -35.3 53.3 -37 55 C-36.42655063 52.13275314 -36.1385485 51.1385485 -34 49 Z " fill="#4201B7" transform="translate(1123,55)"/>
<path d="M0 0 C4.95 0 9.9 0 15 0 C15 17.82 15 35.64 15 54 C12.83810147 50.75715221 12.75373245 49.89903779 12.77294922 46.16137695 C12.77317581 44.69019157 12.77317581 44.69019157 12.77340698 43.18928528 C12.78372955 42.13295395 12.79405212 41.07662262 12.8046875 39.98828125 C12.8075174 38.90491989 12.81034729 37.82155853 12.81326294 36.70536804 C12.82446909 33.24096692 12.84957466 29.77682315 12.875 26.3125 C12.88502923 23.96549852 12.89415518 21.618493 12.90234375 19.27148438 C12.92440988 13.51422357 12.95894288 7.75715544 13 2 C9.04 2 5.08 2 1 2 C1 13.22 1 24.44 1 36 C0.67 36 0.34 36 0 36 C0 24.12 0 12.24 0 0 Z " fill="#EBCFFA" transform="translate(723,318)"/>
<path d="M0 0 C1.15628906 -0.00257813 2.31257812 -0.00515625 3.50390625 -0.0078125 C6.4375 0.125 6.4375 0.125 8.4375 1.125 C8.1075 19.935 7.7775 38.745 7.4375 58.125 C2.1575 58.125 -3.1225 58.125 -8.5625 58.125 C-8.5625 57.795 -8.5625 57.465 -8.5625 57.125 C-3.6125 57.125 1.3375 57.125 6.4375 57.125 C6.4375 39.305 6.4375 21.485 6.4375 3.125 C1.4875 3.125 -3.4625 3.125 -8.5625 3.125 C-8.5625 15.335 -8.5625 27.545 -8.5625 40.125 C-8.8925 40.125 -9.2225 40.125 -9.5625 40.125 C-9.5625 27.255 -9.5625 14.385 -9.5625 1.125 C-6.18481526 -0.00089491 -3.55437928 -0.00794275 0 0 Z " fill="#7D38CD" transform="translate(731.5625,314.875)"/>
<path d="M0 0 C4.95 0 9.9 0 15 0 C15.33 2.31 15.66 4.62 16 7 C17.32 5.35 18.64 3.7 20 2 C20.66 2.33 21.32 2.66 22 3 C20.25 6 20.25 6 18 9 C16.68 9 15.36 9 14 9 C14 6.36 14 3.72 14 1 C9.71 1 5.42 1 1 1 C1 18.16 1 35.32 1 53 C5.29 53 9.58 53 14 53 C14 42.77 14 32.54 14 22 C14.33 22 14.66 22 15 22 C15 32.89 15 43.78 15 55 C10.05 55 5.1 55 0 55 C0 36.85 0 18.7 0 0 Z " fill="#DABEF9" transform="translate(749,318)"/>
<path d="M0 0 C1.85625 0.061875 1.85625 0.061875 3.75 0.125 C2.43 0.455 1.11 0.785 -0.25 1.125 C-0.25 1.785 -0.25 2.445 -0.25 3.125 C-1.44625 3.516875 -2.6425 3.90875 -3.875 4.3125 C-11.05499341 7.03988265 -14.98840057 11.36020118 -18.25 18.125 C-20.60920845 27.25141165 -19.72915345 37.13806876 -17.25 46.125 C-19.171875 45.3359375 -19.171875 45.3359375 -21.25 44.125 C-24.35202055 35.74954451 -25.0364888 23.42927329 -21.38671875 15.171875 C-17.28352488 7.78330597 -8.94165876 -0.29805529 0 0 Z " fill="#7E14CF" transform="translate(442.25,314.875)"/>
<path d="M0 0 C5.61 0.33 11.22 0.66 17 1 C17 1.33 17 1.66 17 2 C12.05 2 7.1 2 2 2 C2.33 16.52 2.66 31.04 3 46 C2.34 46 1.68 46 1 46 C-1.63582535 42.04626198 -1.26922915 38.64790752 -1.23046875 34.0625 C-1.23001053 33.18601807 -1.22955231 32.30953613 -1.2290802 31.40649414 C-1.22605996 29.55385992 -1.21818046 27.7012282 -1.20581055 25.84863281 C-1.18757055 23.0109763 -1.1853008 20.17364649 -1.18554688 17.3359375 C-1.18063086 15.53645551 -1.17480218 13.73697573 -1.16796875 11.9375 C-1.16685593 11.08744385 -1.1657431 10.2373877 -1.16459656 9.36157227 C-1.13746211 5.99767165 -1.07093209 3.21279627 0 0 Z " fill="#6C1AC8" transform="translate(688,316)"/>
<path d="M0 0 C0.8549707 -0.01047363 1.70994141 -0.02094727 2.59082031 -0.03173828 C8.40969602 0.09593802 12.12254227 1.10908467 16.8125 4.625 C17.75 6.875 17.75 6.875 17.8125 8.625 C17.28140625 8.34785156 16.7503125 8.07070313 16.203125 7.78515625 C15.49671875 7.42292969 14.7903125 7.06070312 14.0625 6.6875 C13.36640625 6.32785156 12.6703125 5.96820313 11.953125 5.59765625 C5.60174284 2.711718 -2.11140031 2.502242 -8.796875 4.34375 C-18.01666691 8.18017348 -22.0158762 14.93411709 -26.1875 23.625 C-26.8125 20.8125 -26.8125 20.8125 -27.1875 17.625 C-26.1975 16.14 -26.1975 16.14 -25.1875 14.625 C-24.48585358 12.63700182 -23.81377128 10.63801483 -23.1875 8.625 C-22.1975 8.625 -21.2075 8.625 -20.1875 8.625 C-20.1875 7.965 -20.1875 7.305 -20.1875 6.625 C-14.43946787 0.78620947 -7.77697773 0.0355178 0 0 Z " fill="#780ED2" transform="translate(504.1875,314.375)"/>
<path d="M0 0 C2.62506802 -0.02690844 5.24986173 -0.04679404 7.875 -0.0625 C8.62136719 -0.07087891 9.36773438 -0.07925781 10.13671875 -0.08789062 C15.7734375 -0.11328125 15.7734375 -0.11328125 18 1 C18 1.99 18 2.98 18 4 C18.66 4 19.32 4 20 4 C20.33 3.01 20.66 2.02 21 1 C21.66 2.32 22.32 3.64 23 5 C18.25 9.875 18.25 9.875 16 11 C16 8.36 16 5.72 16 3 C11.05 3 6.1 3 1 3 C1 20.82 1 38.64 1 57 C0.67 57 0.34 57 0 57 C-0.16795432 49.203915 -0.32789478 41.40769559 -0.48217773 33.61132812 C-0.53565453 30.9573186 -0.59098812 28.30334584 -0.64819336 25.64941406 C-0.72994592 21.84187752 -0.80509096 18.03426014 -0.87890625 14.2265625 C-0.90594131 13.03382721 -0.93297638 11.84109192 -0.96083069 10.61221313 C-0.98092697 9.51122284 -1.00102325 8.41023254 -1.02172852 7.27587891 C-1.04171402 6.30325104 -1.06169952 5.33062317 -1.08229065 4.32852173 C-1 2 -1 2 0 0 Z " fill="#793CCC" transform="translate(748,315)"/>
<path d="M0 0 C1.36210348 0.1256309 2.72189479 0.27884978 4.078125 0.45703125 C4.77550781 0.52728516 5.47289062 0.59753906 6.19140625 0.66992188 C7.90624508 0.84610395 9.61770262 1.05466476 11.328125 1.26953125 C12.35977312 12.90422949 12.35977312 12.90422949 8.765625 17.39453125 C5.58726474 20.51220683 2.65941296 21.48989942 -1.671875 22.26953125 C-2.001875 21.27953125 -2.331875 20.28953125 -2.671875 19.26953125 C-2.14078125 18.98980469 -1.6096875 18.71007812 -1.0625 18.421875 C4.28898447 15.38480991 6.777367 12.88119884 9.328125 7.26953125 C9.658125 5.94953125 9.988125 4.62953125 10.328125 3.26953125 C5.708125 3.26953125 1.088125 3.26953125 -3.671875 3.26953125 C-4.331875 4.91953125 -4.991875 6.56953125 -5.671875 8.26953125 C-8.26588006 10.86353631 -9.50372116 10.5966474 -13.109375 10.64453125 C-14.56150391 10.68707031 -14.56150391 10.68707031 -16.04296875 10.73046875 C-18.671875 10.26953125 -18.671875 10.26953125 -20.51953125 8.24609375 C-20.89980469 7.59382813 -21.28007813 6.9415625 -21.671875 6.26953125 C-18.701875 6.76453125 -18.701875 6.76453125 -15.671875 7.26953125 C-15.671875 7.59953125 -15.671875 7.92953125 -15.671875 8.26953125 C-13.361875 8.59953125 -11.051875 8.92953125 -8.671875 9.26953125 C-8.589375 8.71265625 -8.506875 8.15578125 -8.421875 7.58203125 C-6.86338872 2.77669855 -5.18620372 0.38068942 0 0 Z " fill="#4A0DA8" transform="translate(824.671875,351.73046875)"/>
<path d="M0 0 C0.66 0.33 1.32 0.66 2 1 C0.88121617 2.17262904 -0.24523051 3.33795138 -1.375 4.5 C-2.00148438 5.1496875 -2.62796875 5.799375 -3.2734375 6.46875 C-5 8 -5 8 -7 8 C-7 8.66 -7 9.32 -7 10 C-7.66 10 -8.32 10 -9 10 C-9 10.66 -9 11.32 -9 12 C-10.4609375 13.5078125 -10.4609375 13.5078125 -12.375 15.125 C-13.00148438 15.66382813 -13.62796875 16.20265625 -14.2734375 16.7578125 C-16 18 -16 18 -18 18 C-18.23460937 18.74378906 -18.46921875 19.48757812 -18.7109375 20.25390625 C-20.22797241 23.48565032 -21.79307815 24.7938316 -24.625 26.9375 C-25.51703125 27.61941406 -26.4090625 28.30132812 -27.328125 29.00390625 C-28.20984375 29.66261719 -29.0915625 30.32132813 -30 31 C-31.13695312 31.87978516 -31.13695312 31.87978516 -32.296875 32.77734375 C-37.41005734 36.70834295 -37.41005734 36.70834295 -40.0859375 38.03125 C-42.54222269 39.27443108 -44.13379389 41.00049345 -46 43 C-46.66 42.67 -47.32 42.34 -48 42 C-44.38341896 36.93678654 -40.5502277 34.29095371 -35.109375 31.296875 C-32.86708673 30.17393516 -32.86708673 30.17393516 -32 28 C-31.01 28 -30.02 28 -29 28 C-28.34 26.68 -27.68 25.36 -27 24 C-26.01 24 -25.02 24 -24 24 C-23.67 23.01 -23.34 22.02 -23 21 C-21.5555581 19.75252745 -20.10569871 18.50997224 -18.61328125 17.3203125 C-15.37058885 14.66648676 -12.54538841 11.55974073 -9.625 8.5625 C-6.54059275 5.55153101 -3.30132927 2.7685499 0 0 Z " fill="#5401D5" transform="translate(1061,132)"/>
<path d="M0 0 C0.66 0 1.32 0 2 0 C4.33103999 4.6067984 4.26814112 8.71629638 4.1875 13.75 C4.18685547 14.52988281 4.18621094 15.30976563 4.18554688 16.11328125 C4.14057707 21.85942293 4.14057707 21.85942293 3 23 C0.55391002 23.15980437 -1.86731058 23.25929447 -4.31640625 23.31640625 C-5.41298805 23.3475779 -5.41298805 23.3475779 -6.53172302 23.37937927 C-8.87521656 23.44495024 -11.21882539 23.50379432 -13.5625 23.5625 C-15.14779855 23.60567808 -16.73308529 23.64929213 -18.31835938 23.69335938 C-22.21212037 23.8006392 -26.10599772 23.9018849 -30 24 C-30 25.98 -30 27.96 -30 30 C-32 27 -32 27 -33 21 C-21.12 21 -9.24 21 3 21 C1.75484624 10.45864415 1.75484624 10.45864415 0 0 Z " fill="#591FB0" transform="translate(833,328)"/>
<path d="M0 0 C4.95 0 9.9 0 15 0 C15.02505615 1.13542236 15.0501123 2.27084473 15.07592773 3.44067383 C15.17005576 7.65075081 15.27026337 11.86066488 15.37231445 16.07055664 C15.41564287 17.89310904 15.45731947 19.71570148 15.49731445 21.53833008 C15.55506762 24.15718661 15.61874756 26.77584195 15.68359375 29.39453125 C15.70030624 30.21025101 15.71701874 31.02597076 15.73423767 31.8664093 C15.82013245 35.14179544 15.95752134 37.87256401 17 41 C16.34 41 15.68 41 15 41 C13.36054037 37.72108075 13.87969822 34.09386466 13.90234375 30.4921875 C13.9037587 29.65156769 13.90517365 28.81094788 13.90663147 27.94485474 C13.91223763 25.25486725 13.92479114 22.56496241 13.9375 19.875 C13.94251421 18.05338662 13.94707725 16.23177193 13.95117188 14.41015625 C13.96220906 9.94007223 13.9794778 5.47005014 14 1 C9.71 1 5.42 1 1 1 C1.0938165 6.58703959 1.19997292 12.17366022 1.31738281 17.76025391 C1.35557692 19.65927778 1.39044625 21.55837164 1.421875 23.45751953 C1.46773387 26.19328763 1.52569337 28.92857792 1.5859375 31.6640625 C1.59748871 32.50804596 1.60903992 33.35202942 1.62094116 34.22158813 C1.73716526 38.90324573 2.44029141 42.54476385 4 47 C3.67 47.99 3.34 48.98 3 50 C-0.02502956 44.14184011 -0.40481634 39.44340114 -0.29296875 32.91015625 C-0.28872391 31.96563095 -0.28447906 31.02110565 -0.28010559 30.04795837 C-0.26340933 27.05250676 -0.22577406 24.0577458 -0.1875 21.0625 C-0.17244146 19.02279622 -0.1587551 16.98308183 -0.14648438 14.94335938 C-0.11353547 9.96197639 -0.06181604 4.98110501 0 0 Z " fill="#E7C5FD" transform="translate(690,318)"/>
<path d="M0 0 C6.34046126 0.05661126 12.1151417 1.78796106 18 4 C18 4.66 18 5.32 18 6 C12.6645765 8.01983889 8.01502105 4.97018684 3 3 C2.67 7.29 2.34 11.58 2 16 C4.31 16.66 6.62 17.32 9 18 C9 18.33 9 18.66 9 19 C6.69 19 4.38 19 2 19 C2 18.34 2 17.68 2 17 C1.01 17 0.02 17 -1 17 C-1.02684679 14.35409986 -1.04676357 11.70846904 -1.0625 9.0625 C-1.07087891 8.30775391 -1.07925781 7.55300781 -1.08789062 6.77539062 C-1.09652441 4.85005687 -1.05224333 2.92464419 -1 1 C-0.67 0.67 -0.34 0.34 0 0 Z " fill="#8623DA" transform="translate(638,248)"/>
<path d="M0 0 C1.875 0.3046875 1.875 0.3046875 3.875 1.8046875 C4.205 2.2996875 4.535 2.7946875 4.875 3.3046875 C4.215 3.9646875 3.555 4.6246875 2.875 5.3046875 C1.885 4.6446875 0.895 3.9846875 -0.125 3.3046875 C-2.8942221 3.51237916 -4.57053587 3.86566777 -6.76074219 5.59985352 C-8.4431873 7.70230774 -8.48804636 8.7305733 -8.453125 11.39453125 C-8.44796875 12.17892578 -8.4428125 12.96332031 -8.4375 13.77148438 C-8.416875 14.58681641 -8.39625 15.40214844 -8.375 16.2421875 C-8.36984375 17.05365234 -8.3646875 17.86511719 -8.359375 18.70117188 C-8.31061556 22.41603179 -8.13366288 25.71119965 -7.125 29.3046875 C-8.115 29.3046875 -9.105 29.3046875 -10.125 29.3046875 C-13.62228564 23.55018962 -12.88147432 15.94716317 -11.5546875 9.55859375 C-9.42247968 2.72430659 -7.41077688 -0.24520953 0 0 Z " fill="#7815CC" transform="translate(506.125,328.6953125)"/>
<path d="M0 0 C0.33 0 0.66 0 1 0 C1.33 17.49 1.66 34.98 2 53 C6.95 53 11.9 53 17 53 C17.33 50.36 17.66 47.72 18 45 C19.53224072 47.43355879 20.03344238 48.65721564 19.75 51.5625 C19 54 19 54 17 57 C13.84765625 57.36328125 13.84765625 57.36328125 10.0625 57.3125 C8.81597656 57.30863281 7.56945312 57.30476563 6.28515625 57.30078125 C3 57 3 57 0 55 C-0.36076355 52.67147827 -0.36076355 52.67147827 -0.34057617 49.72412109 C-0.34034958 48.6231308 -0.34012299 47.5221405 -0.33988953 46.38778687 C-0.32440567 45.19505157 -0.30892181 44.00231628 -0.29296875 42.7734375 C-0.28872391 41.55548492 -0.28447906 40.33753235 -0.28010559 39.08267212 C-0.26326831 35.17989296 -0.22560595 31.27762396 -0.1875 27.375 C-0.17245974 24.73438244 -0.15877019 22.09375681 -0.14648438 19.453125 C-0.11334822 12.96857496 -0.06309861 6.48432392 0 0 Z " fill="#5408BD" transform="translate(747,319)"/>
<path d="M0 0 C0.33 0 0.66 0 1 0 C1 3.63 1 7.26 1 11 C2.98 11 4.96 11 7 11 C7 22.22 7 33.44 7 45 C6.01 45.495 6.01 45.495 5 46 C2.74473537 35.56940109 4.20335753 24.54128701 5 14 C3.35 13.67 1.7 13.34 0 13 C0 8.71 0 4.42 0 0 Z " fill="#7321CD" transform="translate(648,318)"/>
<path d="M0 0 C3.3 0 6.6 0 10 0 C10 3.96 10 7.92 10 12 C6.7 12 3.4 12 0 12 C0.1181656 16.09362106 0.24240784 20.18700767 0.37231445 24.28027344 C0.41565846 25.6731259 0.45733396 27.06603131 0.49731445 28.45898438 C0.55502932 30.45976651 0.61921869 32.46035859 0.68359375 34.4609375 C0.72025146 35.66540527 0.75690918 36.86987305 0.79467773 38.11083984 C0.81052987 40.93996367 0.81052987 40.93996367 2 43 C0.68 42.67 -0.64 42.34 -2 42 C-2 31.77 -2 21.54 -2 11 C1.63 11 5.26 11 9 11 C9 7.7 9 4.4 9 1 C6.03 1 3.06 1 0 1 C0 0.67 0 0.34 0 0 Z " fill="#D8B1FA" transform="translate(671,318)"/>
<path d="M0 0 C2.33294775 -0.04241723 4.66702567 -0.04092937 7 0 C8 1 8 1 8.09765625 3.94140625 C8.08605469 5.13636719 8.07445312 6.33132813 8.0625 7.5625 C8.05347656 8.76003906 8.04445313 9.95757812 8.03515625 11.19140625 C8.02355469 12.11824219 8.01195312 13.04507812 8 14 C9.918125 13.938125 9.918125 13.938125 11.875 13.875 C14.0546875 13.8046875 14.0546875 13.8046875 16 14 C18 16 18 16 18.1953125 19.2578125 C18.17210937 20.53398437 18.14890625 21.81015625 18.125 23.125 C18.10695313 24.40632813 18.08890625 25.68765625 18.0703125 27.0078125 C18.04710937 27.99523437 18.02390625 28.98265625 18 30 C17.34 29.67 16.68 29.34 16 29 C16 25.04 16 21.08 16 17 C12.7 17 9.4 17 6 17 C6 11.72 6 6.44 6 1 C4.02 1.66 2.04 2.32 0 3 C0 2.01 0 1.02 0 0 Z " fill="#680EC9" transform="translate(665,301)"/>
<path d="M0 0 C0.33 2.31 0.66 4.62 1 7 C-3.62 7 -8.24 7 -13 7 C-13 5.02 -13 3.04 -13 1 C-8.31506124 -1.48887372 -5.0555786 -0.85687773 0 0 Z " fill="#7E03D9" transform="translate(396,331)"/>
<path d="M0 0 C0.66 0 1.32 0 2 0 C2.04934926 5.65998046 2.08569529 11.31983636 2.10986328 16.97998047 C2.11993582 18.90643494 2.13359443 20.83287408 2.15087891 22.75927734 C2.17507241 25.52445252 2.18647036 28.289426 2.1953125 31.0546875 C2.20563507 31.9193161 2.21595764 32.7839447 2.22659302 33.67477417 C2.22699106 35.78453521 2.12265243 37.89380718 2 40 C1.34 40.66 0.68 41.32 0 42 C-1.32 42 -2.64 42 -4 42 C-4 41.34 -4 40.68 -4 40 C-3.01 40 -2.02 40 -1 40 C-1.00523682 39.10804932 -1.01047363 38.21609863 -1.01586914 37.29711914 C-1.0330397 33.9479913 -1.04551226 30.59891111 -1.05493164 27.24975586 C-1.05992148 25.807691 -1.06671573 24.36563109 -1.07543945 22.92358398 C-1.1208459 15.21784327 -1.08531842 7.64850379 0 0 Z " fill="#5A07C0" transform="translate(720,317)"/>
<path d="M0 0 C0.66 0.33 1.32 0.66 2 1 C1.38511719 1.66386719 0.77023437 2.32773438 0.13671875 3.01171875 C-0.67152344 3.89472656 -1.47976563 4.77773437 -2.3125 5.6875 C-3.51326172 6.99267578 -3.51326172 6.99267578 -4.73828125 8.32421875 C-6.81739169 10.78396081 -8.3715889 13.2350439 -10 16 C-11.33333333 17 -12.66666667 18 -14 19 C-14.433125 19.763125 -14.86625 20.52625 -15.3125 21.3125 C-17.24764381 24.3943957 -19.44511106 26.17561621 -22.234375 28.4609375 C-24.83655694 30.72921114 -26.82979312 33.31579675 -29 36 C-31.8336706 38.97189843 -34.64031973 41.63578055 -38 44 C-35.3486205 38.16436571 -30.8530019 33.35998079 -25.875 29.375 C-22.8131102 26.84561277 -20.45116509 24.0897581 -18 21 C-16.48069061 19.1445844 -14.95971959 17.29052875 -13.4375 15.4375 C-11.23825774 12.75038425 -9.04760117 10.06023005 -6.89453125 7.3359375 C-4.75982989 4.70387273 -2.42830516 2.36085224 0 0 Z " fill="#5804D6" transform="translate(1101,88)"/>
<path d="M0 0 C0.99 0.33 1.98 0.66 3 1 C2.16855469 1.87011719 2.16855469 1.87011719 1.3203125 2.7578125 C0.23363281 3.92957031 0.23363281 3.92957031 -0.875 5.125 C-1.59429688 5.89070313 -2.31359375 6.65640625 -3.0546875 7.4453125 C-7.19975864 12.88883966 -7.31576446 18.30951444 -7.25 24.875 C-7.25773438 25.63941406 -7.26546875 26.40382813 -7.2734375 27.19140625 C-7.25562928 32.43592831 -6.44684701 36.95900128 -5 42 C-5.99 42 -6.98 42 -8 42 C-10.25342102 36.55573482 -10.38474432 31.54941104 -10.375 25.75 C-10.37411377 24.81575195 -10.37322754 23.88150391 -10.37231445 22.91894531 C-10.26340809 16.59242545 -9.96169545 10.24692775 -6 5 C-5.01 4.67 -4.02 4.34 -3 4 C-3 3.34 -3 2.68 -3 2 C-2.01 1.34 -1.02 0.68 0 0 Z " fill="#7D1CD1" transform="translate(543,320)"/>
<path d="M0 0 C1.61648438 0.04060547 1.61648438 0.04060547 3.265625 0.08203125 C4.08546875 0.11683594 4.9053125 0.15164063 5.75 0.1875 C6.3451872 5.24659118 6.54045731 8.17409319 3.3125 12.3125 C0.43348551 14.33540467 -1.67229994 14.36545167 -5.125 14 C-6.50507163 13.75632399 -7.88259929 13.49440549 -9.25 13.1875 C-6.23968256 12.25326355 -5.38349732 12.14300089 -2.25 13.1875 C-1.92 12.1975 -1.59 11.2075 -1.25 10.1875 C0.07 10.1875 1.39 10.1875 2.75 10.1875 C2.894375 9.424375 3.03875 8.66125 3.1875 7.875 C3.75 5.1875 3.75 5.1875 4.75 2.1875 C3.16632253 2.32954741 1.58306682 2.47630153 0 2.625 C-0.88171875 2.70621094 -1.7634375 2.78742188 -2.671875 2.87109375 C-4.94350452 3.14988465 -7.04851823 3.57540577 -9.25 4.1875 C-9.25 6.4975 -9.25 8.8075 -9.25 11.1875 C-9.91 10.8575 -10.57 10.5275 -11.25 10.1875 C-10.76178061 3.71859309 -10.76178061 3.71859309 -8.59375 1.46875 C-5.56292386 -0.18810162 -3.43271536 -0.11193637 0 0 Z " fill="#812DC2" transform="translate(392.25,348.8125)"/>
<path d="M0 0 C6.0546875 -0.1953125 6.0546875 -0.1953125 8 0 C8.66 0.66 9.32 1.32 10 2 C11.98356483 2.71408334 13.98315437 3.38617742 16 4 C16 4.66 16 5.32 16 6 C17.65 6 19.3 6 21 6 C21.95619733 9.99795892 22.1039592 13.70803922 22.0625 17.8125 C22.05347656 18.97394531 22.04445313 20.13539063 22.03515625 21.33203125 C22.02355469 22.21246094 22.01195312 23.09289062 22 24 C19.69 24 17.38 24 15 24 C14.67 23.34 14.34 22.68 14 22 C15.98 21.34 17.96 20.68 20 20 C20 16.04 20 12.08 20 8 C17.525 7.505 17.525 7.505 15 7 C13.73048112 6.56630749 12.472312 6.09737969 11.23046875 5.58984375 C10.56982422 5.32236328 9.90917969 5.05488281 9.22851562 4.77929688 C8.55498047 4.50150391 7.88144531 4.22371094 7.1875 3.9375 C6.49462891 3.65583984 5.80175781 3.37417969 5.08789062 3.08398438 C3.39032376 2.39325027 1.69493688 1.69716272 0 1 C0 0.67 0 0.34 0 0 Z " fill="#7514DA" transform="translate(666,260)"/>
<path d="M0 0 C0.5775 0.37125 1.155 0.7425 1.75 1.125 C0.1103125 1.929375 0.1103125 1.929375 -1.5625 2.75 C-5.36448826 4.96654376 -6.89553133 6.8225701 -8.25 11.125 C-8.65416366 15.94446097 -8.58342324 20.45801866 -7.25 25.125 C-8.57 25.125 -9.89 25.125 -11.25 25.125 C-11.47397733 23.08499027 -11.67848537 21.04283811 -11.875 19 C-11.99101562 17.86304688 -12.10703125 16.72609375 -12.2265625 15.5546875 C-12.26766053 9.54067639 -10.34613659 5.4620858 -6.25 1.125 C-3.67742706 -0.7240368 -2.99361701 -1.16418439 0 0 Z " fill="#7C15C8" transform="translate(375.25,340.875)"/>
<path d="M0 0 C-4.23580693 1.41193564 -8.24144652 1.01990343 -12.67578125 0.9375 C-18.46567137 0.89137987 -18.46567137 0.89137987 -23.5 3.25 C-23.995 3.8275 -24.49 4.405 -25 5 C-26.010625 5.825 -27.02125 6.65 -28.0625 7.5 C-31.101019 9.85455699 -31.101019 9.85455699 -33 13 C-33.66 13 -34.32 13 -35 13 C-33.16771986 7.17001773 -29.08977694 3.23894896 -24 0 C-16.82977078 -3.40585888 -7.20808773 -3.20359455 0 0 Z " fill="#F0CDFD" transform="translate(516,319)"/>
<path d="M0 0 C2.3515625 0.16796875 2.3515625 0.16796875 5 1 C6.3984375 3.36328125 6.3984375 3.36328125 7.375 6.3125 C7.71273437 7.27800781 8.05046875 8.24351562 8.3984375 9.23828125 C9.00361948 12.01661671 9.05786557 13.39375019 8 16 C4.52136808 18.78290554 0.23295486 18.29337311 -4 18 C-7 17.5 -7 17.5 -9 17 C-9 16.34 -9 15.68 -9 15 C-4.05 15 0.9 15 6 15 C3.87212886 7.11939672 3.87212886 7.11939672 0 0 Z " fill="#6F07CF" transform="translate(522,323)"/>
<path d="M0 0 C3.0625 2.125 3.0625 2.125 5 5 C5 6.98 5 8.96 5 11 C-1.6 11 -8.2 11 -15 11 C-12.37884873 1.82597055 -9.72981561 -1.9909765 0 0 Z M-8 1 C-8.66 2.32 -9.32 3.64 -10 5 C-10.66 5 -11.32 5 -12 5 C-12 6.32 -12 7.64 -12 9 C-7.05 9 -2.1 9 3 9 C2.67 7.02 2.34 5.04 2 3 C-1.6441774 0.5705484 -3.71241272 0.83820425 -8 1 Z " fill="#7929C6" transform="translate(565,328)"/>
<path d="M0 0 C0.33 0 0.66 0 1 0 C1.78100524 14.34681694 2.13221626 28.63249973 2 43 C-1.0979597 44.54897985 -4.26216552 43.83239539 -7.625 43.5625 C-8.33140625 43.51029297 -9.0378125 43.45808594 -9.765625 43.40429688 C-11.51079987 43.27458793 -13.25545725 43.13795046 -15 43 C-15 42.67 -15 42.34 -15 42 C-10.05 42 -5.1 42 0 42 C0 28.14 0 14.28 0 0 Z " fill="#803CC7" transform="translate(642,330)"/>
<path d="M0 0 C2 1 2 1 3.10839844 4.02050781 C4.20686672 8.24693641 4.28866373 12.3253491 4.265625 16.671875 C4.26753845 17.47610901 4.2694519 18.28034302 4.27142334 19.10894775 C4.27277631 20.79643062 4.26914235 22.48392422 4.26074219 24.17138672 C4.24997325 26.75642042 4.2606962 29.34076811 4.2734375 31.92578125 C4.27211685 33.57031403 4.26955641 35.21484639 4.265625 36.859375 C4.26967346 37.6312616 4.27372192 38.40314819 4.27789307 39.19842529 C4.24451841 42.99919046 4.15971341 44.76042988 2 48 C1.34 32.16 0.68 16.32 0 0 Z " fill="#680ACC" transform="translate(642,324)"/>
<path d="M0 0 C0.83724609 -0.01224609 1.67449219 -0.02449219 2.53710938 -0.03710938 C10.86206239 -0.05688361 10.86206239 -0.05688361 14.4375 2.1875 C15.25 4.3125 15.25 4.3125 15.4375 6.1875 C14.56351563 5.86265625 14.56351563 5.86265625 13.671875 5.53125 C4.55343878 2.43442261 -4.43279765 1.86760824 -13.5625 5.1875 C-14.2225 3.8675 -14.8825 2.5475 -15.5625 1.1875 C-10.34324659 0.12667614 -5.30110997 0.00409985 0 0 Z " fill="#7717CF" transform="translate(560.5625,314.8125)"/>
<path d="M0 0 C1 1 1 1 1.11352539 2.76586914 C1.10828857 3.51473389 1.10305176 4.26359863 1.09765625 5.03515625 C1.09443359 5.84404297 1.09121094 6.65292969 1.08789062 7.48632812 C1.07951172 8.33646484 1.07113281 9.18660156 1.0625 10.0625 C1.05798828 10.91650391 1.05347656 11.77050781 1.04882812 12.65039062 C1.03700373 14.76695663 1.01906769 16.88348685 1 19 C-1.64 19.66 -4.28 20.32 -7 21 C-7.33 20.01 -7.66 19.02 -8 18 C-5.69 18 -3.38 18 -1 18 C-1 13.05 -1 8.1 -1 3 C-3.64 3.33 -6.28 3.66 -9 4 C-9.33 3.01 -9.66 2.02 -10 1 C-6.61905851 -0.04028969 -3.52637472 -0.15672777 0 0 Z " fill="#6520C4" transform="translate(781,315)"/>
<path d="M0 0 C4.62 0 9.24 0 14 0 C15.00367722 6.02206331 15.15930935 8.93216589 12 14 C8.86828741 16.82406324 5.78864204 17.94264422 1.5625 18.25 C0.716875 18.1675 -0.12875 18.085 -1 18 C1.11910143 16.35181 3.09137076 14.95431462 5.5 13.75 C9.99135262 10.60605317 11.6808534 6.2765864 13 1 C8.71 1 4.42 1 0 1 C0 0.67 0 0.34 0 0 Z " fill="#8A3DD6" transform="translate(571,355)"/>
<path d="M0 0 C0.66 0.66 1.32 1.32 2 2 C3.7455331 1.79053603 5.49004605 1.56732544 7.2265625 1.29296875 C13.44394247 0.63620326 19.75532785 0.93179363 26 1 C26 1.99 26 2.98 26 4 C25.071875 3.7525 25.071875 3.7525 24.125 3.5 C16.46964471 2.27514315 11.05100869 2.16413104 4.59375 6.80859375 C4.0678125 7.20175781 3.541875 7.59492188 3 8 C2.01 8.495 2.01 8.495 1 9 C1 7.02 1 5.04 1 3 C-4.28 3 -9.56 3 -15 3 C-15 2.67 -15 2.34 -15 2 C-14.00097656 1.93941406 -13.00195312 1.87882812 -11.97265625 1.81640625 C-10.68230469 1.73261719 -9.39195312 1.64882813 -8.0625 1.5625 C-6.77472656 1.48128906 -5.48695313 1.40007812 -4.16015625 1.31640625 C-1.13976043 1.35080812 -1.13976043 1.35080812 0 0 Z " fill="#711DC4" transform="translate(609,315)"/>
<path d="M0 0 C0.66 0.33 1.32 0.66 2 1 C1.97679687 2.05058594 1.95359375 3.10117187 1.9296875 4.18359375 C1.81410626 11.76861242 1.89751968 18.64131889 4 26 C2.078125 25.2109375 2.078125 25.2109375 0 24 C-2.44425525 17.40051083 -3.83361936 8.25963882 -0.984375 1.640625 C-0.65953125 1.09921875 -0.3346875 0.5578125 0 0 Z " fill="#7A17C5" transform="translate(421,335)"/>
<path d="M0 0 C0 0.66 0 1.32 0 2 C-3.465 3.485 -3.465 3.485 -7 5 C-7.33 8.3 -7.66 11.6 -8 15 C-9.98 15 -11.96 15 -14 15 C-13.67 14.01 -13.34 13.02 -13 12 C-12.34 12 -11.68 12 -11 12 C-11.061875 10.741875 -11.12375 9.48375 -11.1875 8.1875 C-11.1875 4.27678571 -11.1875 4.27678571 -9.6875 2.0625 C-6.45463008 0.02698931 -3.71298274 -0.10035088 0 0 Z " fill="#7011D8" transform="translate(663,303)"/>
<path d="M0 0 C0.33 0 0.66 0 1 0 C1.57806583 5.32034665 1.90208692 9.65318405 -1.5625 14 C-4.74707883 17.23018139 -7.58748181 18.20574673 -12 19 C-12.33 18.01 -12.66 17.02 -13 16 C-12.46890625 15.72027344 -11.9378125 15.44054687 -11.390625 15.15234375 C-5.27719854 11.68286268 -2.358219 8.41421176 -0.25 1.5625 C-0.1675 1.046875 -0.085 0.53125 0 0 Z " fill="#551BB5" transform="translate(835,355)"/>
<path d="M0 0 C5.28 0 10.56 0 16 0 C16 0.33 16 0.66 16 1 C11.38 1 6.76 1 2 1 C1.67 2.98 1.34 4.96 1 7 C-1.86760428 10.20496949 -3.38344986 10.93729999 -7.6875 11.375 C-11 11 -11 11 -13 9 C-9.86650268 7.95550089 -9.01031744 8.06576355 -6 9 C-5.67 8.01 -5.34 7.02 -5 6 C-3.35 5.67 -1.7 5.34 0 5 C0 3.35 0 1.7 0 0 Z " fill="#7A20CC" transform="translate(512,351)"/>
<path d="M0 0 C1 3 1 3 -0.3125 6 C-2.88731992 9.52067213 -5.92270815 10.48781105 -10.05078125 11.54296875 C-15.35924306 12.36560455 -20.64644785 12.22656098 -26 12 C-25.67 11.34 -25.34 10.68 -25 10 C-22.83724158 9.84551726 -20.66809047 9.77779603 -18.5 9.75 C-11.5626792 9.36773947 -7.07616322 7.76779816 -2 3 C-1.34 2.01 -0.68 1.02 0 0 Z " fill="#8333C2" transform="translate(468,363)"/>
<path d="M0 0 C-2.90927057 1.48846401 -5.73041691 2.90414824 -8.8125 4 C-9.534375 4.33 -10.25625 4.66 -11 5 C-11.33 5.99 -11.66 6.98 -12 8 C-12.99 8.495 -12.99 8.495 -14 9 C-16.09107044 15.27321131 -14.7291857 20.83977593 -13 27 C-15.77743622 24.46407997 -16.85971294 22.56743807 -17.203125 18.73046875 C-17.30163333 13.38639184 -17.13851342 9.54543322 -14 5 C-9.91339748 1.12848182 -5.68775706 -2.10657669 0 0 Z " fill="#E2B8F5" transform="translate(383,341)"/>
<path d="M0 0 C3.5 0.5 3.5 0.5 5.9375 2.0625 C7.5 4.5 7.5 4.5 7.5 11.5 C1.56 11.5 -4.38 11.5 -10.5 11.5 C-10.5 11.17 -10.5 10.84 -10.5 10.5 C-4.89 10.5 0.72 10.5 6.5 10.5 C6.17 8.19 5.84 5.88 5.5 3.5 C0.98382401 3.42345464 -3.09085217 3.39771304 -7.5 4.5 C-5.08509807 1.40892553 -3.95618991 0.56516999 0 0 Z " fill="#7C21BF" transform="translate(390.5,327.5)"/>
<path d="M0 0 C4.62 0 9.24 0 14 0 C13.25 7.75 13.25 7.75 11 10 C11.33 7.36 11.66 4.72 12 2 C10.55989519 2.25662245 9.1229313 2.53090821 7.6875 2.8125 C6.48673828 3.03873047 6.48673828 3.03873047 5.26171875 3.26953125 C2.76554413 4.07572236 1.67577894 5.02052002 0 7 C-0.66 6.67 -1.32 6.34 -2 6 C-1.34 4.02 -0.68 2.04 0 0 Z " fill="#ECCDFB" transform="translate(514,352)"/>
<path d="M0 0 C5.28 0 10.56 0 16 0 C16 0.99 16 1.98 16 3 C11.38 3 6.76 3 2 3 C1.67 3.99 1.34 4.98 1 6 C0.34 6 -0.32 6 -1 6 C-0.67 4.02 -0.34 2.04 0 0 Z " fill="#790ED1" transform="translate(456,349)"/>
<path d="M0 0 C0.66 0.33 1.32 0.66 2 1 C0.88121617 2.17262904 -0.24523051 3.33795138 -1.375 4.5 C-2.00148438 5.1496875 -2.62796875 5.799375 -3.2734375 6.46875 C-5 8 -5 8 -7 8 C-7 8.66 -7 9.32 -7 10 C-7.66 10 -8.32 10 -9 10 C-9 10.66 -9 11.32 -9 12 C-10.4609375 13.5078125 -10.4609375 13.5078125 -12.375 15.125 C-13.31472656 15.93324219 -13.31472656 15.93324219 -14.2734375 16.7578125 C-16 18 -16 18 -18 18 C-18.66 19.32 -19.32 20.64 -20 22 C-20.99 21.67 -21.98 21.34 -23 21 C-22.113125 20.278125 -21.22625 19.55625 -20.3125 18.8125 C-16.49974081 15.63520068 -13.08627828 12.11486455 -9.625 8.5625 C-6.54059275 5.55153101 -3.30132927 2.7685499 0 0 Z " fill="#5D04DE" transform="translate(1061,132)"/>
<path d="M0 0 C-3.84901237 1.38564445 -7.01910441 0.59203063 -11 0 C-13.98064492 -0.11949584 -16.95507688 -0.09572322 -19.9375 -0.0625 C-20.71673828 -0.05798828 -21.49597656 -0.05347656 -22.29882812 -0.04882812 C-24.19925268 -0.03716908 -26.09963706 -0.01923877 -28 0 C-19.8518118 -5.43212547 -8.51129353 -4.08542089 0 0 Z " fill="#F1CCFC" transform="translate(406,320)"/>
<path d="M0 0 C0.33 0 0.66 0 1 0 C1.33 4.62 1.66 9.24 2 14 C4.79947917 12.69791667 7.59895833 11.39583333 10.3984375 10.09375 C13 9 13 9 15 9 C15 9.66 15 10.32 15 11 C14.21625 11.0825 13.4325 11.165 12.625 11.25 C11.75875 11.4975 10.8925 11.745 10 12 C9.30062468 13.31647119 8.63270867 14.65022151 8 16 C4.77235957 17.39864419 3.60022643 16.90005661 0 16 C0 10.72 0 5.44 0 0 Z " fill="#8835D8" transform="translate(639,284)"/>
<path d="M0 0 C2.19015439 4.38030877 2.67653532 7.21522848 2 12 C0.5 14.5 0.5 14.5 -1 16 C-3 15 -3 15 -4 13 C-3.01 13 -2.02 13 -1 13 C-1 9.37 -1 5.74 -1 2 C-3.64 2 -6.28 2 -9 2 C-9 1.67 -9 1.34 -9 1 C-4.545 0.505 -4.545 0.505 0 0 Z " fill="#762CCF" transform="translate(682,359)"/>
<path d="M0 0 C1.49785551 1.9736449 2.9663963 3.95056007 4.359375 6 C7.72969386 10.84720016 10.67344087 13.44325162 16 16 C16 16.33 16 16.66 16 17 C14.35 17 12.7 17 11 17 C10.67 16.01 10.34 15.02 10 14 C9.360625 13.87625 8.72125 13.7525 8.0625 13.625 C7.381875 13.41875 6.70125 13.2125 6 13 C5.31867549 11.33927151 4.65257873 9.672233 4 8 C2.67479497 7.31731862 1.34187818 6.6492959 0 6 C-0.8125 4 -0.8125 4 -1 2 C-0.67 1.34 -0.34 0.68 0 0 Z " fill="#581EAD" transform="translate(785,356)"/>
<path d="M0 0 C3.00617269 3.00617269 2.59585316 5.82381598 3 10 C-1.95 10 -6.9 10 -12 10 C-12.33 8.35 -12.66 6.7 -13 5 C-12.34 5 -11.68 5 -11 5 C-11 5.99 -11 6.98 -11 8 C-7.04 8 -3.08 8 1 8 C0.67 5.36 0.34 2.72 0 0 Z " fill="#DEACF6" transform="translate(525,328)"/>
<path d="M0 0 C2.67901932 2.31881505 3.66204403 4.31814468 4.6875 7.6875 C4.93886719 8.49574219 5.19023438 9.30398438 5.44921875 10.13671875 C5.63097656 10.75160156 5.81273437 11.36648438 6 12 C5.34 12 4.68 12 4 12 C4 15.96 4 19.92 4 24 C3.67 24 3.34 24 3 24 C2.96261719 23.16597656 2.92523437 22.33195312 2.88671875 21.47265625 C2.51691673 15.14251585 1.90939618 9.60625936 -0.4765625 3.70703125 C-1 2 -1 2 0 0 Z " fill="#7823CB" transform="translate(582,325)"/>
<path d="M0 0 C2.31 0 4.62 0 7 0 C7 4.95 7 9.9 7 15 C5.35 15 3.7 15 2 15 C2 14.34 2 13.68 2 13 C2.99 13 3.98 13 5 13 C5 9.04 5 5.08 5 1 C2.69 1.33 0.38 1.66 -2 2 C-1.34 1.34 -0.68 0.68 0 0 Z " fill="#E8CFFB" transform="translate(773,318)"/>
<path d="M0 0 C0 5.28 0 10.56 0 16 C-0.66 16 -1.32 16 -2 16 C-2 11.38 -2 6.76 -2 2 C-3.98 2.99 -3.98 2.99 -6 4 C-8.25 3.625 -8.25 3.625 -10 3 C-3.375 0 -3.375 0 0 0 Z " fill="#DBB1FB" transform="translate(671,302)"/>
<path d="M0 0 C0 0.33 0 0.66 0 1 C-5.61 1 -11.22 1 -17 1 C-17 1.66 -17 2.32 -17 3 C-21.455 3.495 -21.455 3.495 -26 4 C-25.67 3.01 -25.34 2.02 -25 1 C-16.42832093 -0.38289756 -8.63793734 -1.50401732 0 0 Z " fill="#7F0FD0" transform="translate(401,315)"/>
<path d="M0 0 C4.62 0 9.24 0 14 0 C13.61271765 5.71241466 13.12989477 8.73688282 9 13 C9.33 11.02 9.66 9.04 10 7 C10.66 7 11.32 7 12 7 C12 5.35 12 3.7 12 2 C10.7625 2.226875 9.525 2.45375 8.25 2.6875 C6.140625 3.07421875 6.140625 3.07421875 4 3 C2.68 2.01 1.36 1.02 0 0 Z " fill="#E6C2F9" transform="translate(458,352)"/>
<path d="M0 0 C3.54243456 1.86443924 5.70706563 3.12119689 7 7 C7 8.32 7 9.64 7 11 C0.4 11 -6.2 11 -13 11 C-13 9.35 -13 7.7 -13 6 C-12.67 7.32 -12.34 8.64 -12 10 C-6.06 10 -0.12 10 6 10 C5.67 8.35 5.34 6.7 5 5 C4.01 4.67 3.02 4.34 2 4 C2 3.34 2 2.68 2 2 C1.34 2 0.68 2 0 2 C0 1.34 0 0.68 0 0 Z " fill="#7040BE" transform="translate(814,328)"/>
<path d="M0 0 C0.66 0.33 1.32 0.66 2 1 C1.34 2.32 0.68 3.64 0 5 C-0.99 5 -1.98 5 -3 5 C-3 6.32 -3 7.64 -3 9 C1.95 9 6.9 9 12 9 C12.33 7.68 12.66 6.36 13 5 C13.33 6.65 13.66 8.3 14 10 C8.06 10 2.12 10 -4 10 C-4 4 -4 4 -2 1.625 C-1.34 1.08875 -0.68 0.5525 0 0 Z " fill="#5519BA" transform="translate(806,328)"/>
<path d="M0 0 C0.33 0.66 0.66 1.32 1 2 C-6.58948705 6.60288335 -13.19918458 8.67987769 -22 10 C-18.75780029 7.28099144 -15.51903815 5.89661638 -11.5625 4.4375 C-10.45003906 4.02371094 -9.33757813 3.60992187 -8.19140625 3.18359375 C-7.13824219 2.79300781 -6.08507812 2.40242188 -5 2 C-3.33102592 1.33913107 -1.66343084 0.67469998 0 0 Z " fill="#8435D1" transform="translate(677,283)"/>
<path d="M0 0 C6.0546875 -0.1953125 6.0546875 -0.1953125 8 0 C8.66 0.66 9.32 1.32 10 2 C11.98356483 2.71408334 13.98315437 3.38617742 16 4 C16 4.66 16 5.32 16 6 C16.99 6 17.98 6 19 6 C19 6.66 19 7.32 19 8 C12.54646385 5.94235079 6.2638737 3.57616518 0 1 C0 0.67 0 0.34 0 0 Z " fill="#842ED6" transform="translate(666,260)"/>
<path d="M0 0 C0.33 1.32 0.66 2.64 1 4 C1.33 4.66 1.66 5.32 2 6 C-0.31 6.33 -2.62 6.66 -5 7 C-5.2784375 6.0409375 -5.2784375 6.0409375 -5.5625 5.0625 C-6.94246056 2.57873787 -6.94246056 2.57873787 -10.625 2.25 C-11.73875 2.1675 -12.8525 2.085 -14 2 C-14 1.67 -14 1.34 -14 1 C-9.38 0.67 -4.76 0.34 0 0 Z " fill="#8825C9" transform="translate(382,334)"/>
<path d="M0 0 C4.95 0 9.9 0 15 0 C15.33 2.31 15.66 4.62 16 7 C17.32 5.35 18.64 3.7 20 2 C20.66 2.33 21.32 2.66 22 3 C20.25 6 20.25 6 18 9 C16.68 9 15.36 9 14 9 C14 6.36 14 3.72 14 1 C9.38 1 4.76 1 0 1 C0 0.67 0 0.34 0 0 Z " fill="#DDBBF7" transform="translate(749,318)"/>
<path d="M0 0 C4.62 0 9.24 0 14 0 C13.67 1.98 13.34 3.96 13 6 C12.59910156 5.51015625 12.19820312 5.0203125 11.78515625 4.515625 C9.51882277 2.59147316 8.36742184 2.65346221 5.4375 2.75 C4.65246094 2.76546875 3.86742187 2.7809375 3.05859375 2.796875 C0.93749039 2.88241141 0.93749039 2.88241141 -1 4 C-0.67 2.68 -0.34 1.36 0 0 Z " fill="#DABFF2" transform="translate(821,355)"/>
<path d="M0 0 C0.33 0 0.66 0 1 0 C1.07347656 1.37671875 1.07347656 1.37671875 1.1484375 2.78125 C1.5534256 9.42864086 2.08416358 15.61387859 4 22 C3.01 22 2.02 22 1 22 C-1.10084617 16.91627302 -1.10793182 12.96622593 -0.625 7.625 C-0.56828125 6.88894531 -0.5115625 6.15289062 -0.453125 5.39453125 C-0.31293882 3.59547532 -0.15798214 1.79758061 0 0 Z " fill="#8B3DD2" transform="translate(534,340)"/>
<path d="M0 0 C17.47931355 -0.67132499 17.47931355 -0.67132499 23 3 C23.73046875 5.109375 23.73046875 5.109375 24 7 C23.01 6.38125 22.02 5.7625 21 5.125 C14.53463677 1.8220427 7.11967422 1.65666898 0 1 C0 0.67 0 0.34 0 0 Z " fill="#8732CB" transform="translate(498,316)"/>
<path d="M0 0 C0.33 0 0.66 0 1 0 C1 1.98 1 3.96 1 6 C-1.31 6 -3.62 6 -6 6 C-6 6.66 -6 7.32 -6 8 C-7.65 8 -9.3 8 -11 8 C-11 7.34 -11 6.68 -11 6 C-10.37351562 5.73445313 -9.74703125 5.46890625 -9.1015625 5.1953125 C-8.28429687 4.84210938 -7.46703125 4.48890625 -6.625 4.125 C-5.40683594 3.60292969 -5.40683594 3.60292969 -4.1640625 3.0703125 C-1.86197701 2.07553933 -1.86197701 2.07553933 0 0 Z " fill="#5F1AB3" transform="translate(721,367)"/>
<path d="M0 0 C0.66 0 1.32 0 2 0 C2 3.63 2 7.26 2 11 C2.99 10.67 3.98 10.34 5 10 C3.515 15.94 3.515 15.94 2 22 C1.67 20.68 1.34 19.36 1 18 C0.67 17.01 0.34 16.02 0 15 C-0.07029121 12.42734182 -0.09370832 9.88358569 -0.0625 7.3125 C-0.05798828 6.61060547 -0.05347656 5.90871094 -0.04882812 5.18554688 C-0.03706927 3.45699462 -0.01913454 1.72848635 0 0 Z " fill="#5503CE" transform="translate(782,318)"/>
<path d="M0 0 C0 3.99282941 -1.47808076 5.15331592 -4 8.1875 C-4.7425 9.08855469 -5.485 9.98960938 -6.25 10.91796875 C-6.8275 11.60503906 -7.405 12.29210937 -8 13 C-8.33 12.34 -8.66 11.68 -9 11 C-6.937761 6.56477367 -4.26490715 2.52735238 0 0 Z M-12 14 C-11.34 14.33 -10.68 14.66 -10 15 C-10.99 15 -11.98 15 -13 15 C-12.67 14.67 -12.34 14.34 -12 14 Z M-15 16 C-14.01 16.495 -14.01 16.495 -13 17 C-13.99 17.495 -13.99 17.495 -15 18 C-15 17.34 -15 16.68 -15 16 Z " fill="#4000BB" transform="translate(1085,110)"/>
<path d="M0 0 C4.29 0.66 8.58 1.32 13 2 C10 5 10 5 6.5 5.5 C5.345 5.335 4.19 5.17 3 5 C2.01 3.35 1.02 1.7 0 0 Z " fill="#7732CD" transform="translate(706,357)"/>
<path d="M0 0 C0.66 0 1.32 0 2 0 C2 0.66 2 1.32 2 2 C4.31 2.33 6.62 2.66 9 3 C9.33 4.98 9.66 6.96 10 9 C7 9 7 9 5 7.1875 C4.34 6.465625 3.68 5.74375 3 5 C2.4225 4.46375 1.845 3.9275 1.25 3.375 C0 2 0 2 0 0 Z " fill="#611CC2" transform="translate(823,317)"/>
<path d="M0 0 C1.19882812 0.00483398 1.19882812 0.00483398 2.421875 0.00976562 C3.246875 0.01814453 4.071875 0.02652344 4.921875 0.03515625 C5.76234375 0.03966797 6.6028125 0.04417969 7.46875 0.04882812 C9.53648901 0.06057664 11.60419124 0.07851103 13.671875 0.09765625 C13.671875 0.42765625 13.671875 0.75765625 13.671875 1.09765625 C12.51429688 1.15824219 11.35671875 1.21882813 10.1640625 1.28125 C8.62499043 1.36571127 7.08592845 1.45035643 5.546875 1.53515625 C4.78632812 1.57447266 4.02578125 1.61378906 3.2421875 1.65429688 C-1.01321703 1.89274627 -5.13183326 2.29995862 -9.328125 3.09765625 C-9.658125 4.08765625 -9.988125 5.07765625 -10.328125 6.09765625 C-11.318125 5.76765625 -12.308125 5.43765625 -13.328125 5.09765625 C-8.81356934 1.21012221 -5.88932375 -0.0420666 0 0 Z " fill="#5407CA" transform="translate(806.328125,314.90234375)"/>
<path d="M0 0 C0.74056641 0.00902344 1.48113281 0.01804687 2.24414062 0.02734375 C4.05873467 0.05075787 5.87316071 0.08662385 7.6875 0.125 C7.6875 1.115 7.6875 2.105 7.6875 3.125 C7.06875 2.96 6.45 2.795 5.8125 2.625 C-0.81001068 1.56539829 -7.049429 1.48791747 -13.3125 4.125 C-13.3125 3.465 -13.3125 2.805 -13.3125 2.125 C-8.90220217 -0.08449832 -4.82309676 -0.1120648 0 0 Z " fill="#792CC8" transform="translate(627.3125,315.875)"/>
<path d="M0 0 C1.65 0 3.3 0 5 0 C5.33 0.66 5.66 1.32 6 2 C4.2097939 2.67057887 2.41778511 3.3363469 0.625 4 C-0.37273438 4.37125 -1.37046875 4.7425 -2.3984375 5.125 C-5 6 -5 6 -7 6 C-6.67 4.68 -6.34 3.36 -6 2 C-4.02 2 -2.04 2 0 2 C0 1.34 0 0.68 0 0 Z " fill="#7727C4" transform="translate(660,273)"/>
<path d="M0 0 C-1 2 -1 2 -3.9375 4.4375 C-7.09170406 6.8318759 -7.09170406 6.8318759 -9 10 C-9.66 10 -10.32 10 -11 10 C-9.15955067 4.14402485 -6.42090193 0 0 0 Z " fill="#F5DCFC" transform="translate(492,322)"/>
<path d="M0 0 C2.375 0.1875 2.375 0.1875 5 1 C7.76735086 5.2169156 7.19038806 10.14510439 7 15 C5.29331451 11.71168786 4.01293214 8.38987851 2.78125 4.90234375 C1.96183971 2.72931274 1.96183971 2.72931274 0 0 Z " fill="#791DCA" transform="translate(522,323)"/>
<path d="M0 0 C0.99 0.99 1.98 1.98 3 3 C2.02433888 4.16959987 1.044375 5.33561177 0.0625 6.5 C-0.48277344 7.1496875 -1.02804687 7.799375 -1.58984375 8.46875 C-2.05519531 8.9740625 -2.52054688 9.479375 -3 10 C-3.33 10 -3.66 10 -4 10 C-4 7.36 -4 4.72 -4 2 C-2.68 2.33 -1.36 2.66 0 3 C0 2.01 0 1.02 0 0 Z " fill="#601AC0" transform="translate(768,316)"/>
<path d="M0 0 C5.28 0 10.56 0 16 0 C11.4457429 3.41569282 11.4457429 3.41569282 7.4375 3.375 C6.67308594 3.38273437 5.90867187 3.39046875 5.12109375 3.3984375 C3 3 3 3 0 0 Z " fill="#8034C3" transform="translate(496,373)"/>
<path d="M0 0 C0.33 0.99 0.66 1.98 1 3 C-1.94553377 8.66448802 -1.94553377 8.66448802 -5.75 9.875 C-6.4925 9.91625 -7.235 9.9575 -8 10 C-8.33 9.34 -8.66 8.68 -9 8 C-8.43410156 7.59007812 -7.86820312 7.18015625 -7.28515625 6.7578125 C-6.18494141 5.94957031 -6.18494141 5.94957031 -5.0625 5.125 C-4.33160156 4.59132813 -3.60070312 4.05765625 -2.84765625 3.5078125 C-0.88901765 2.11987896 -0.88901765 2.11987896 0 0 Z " fill="#7B1FC8" transform="translate(468,363)"/>
<path d="M0 0 C0.66 0.99 1.32 1.98 2 3 C-0.59400506 5.59400506 -1.83184616 5.32711615 -5.4375 5.375 C-6.88962891 5.41753906 -6.88962891 5.41753906 -8.37109375 5.4609375 C-11 5 -11 5 -12.84765625 2.9765625 C-13.22792969 2.32429688 -13.60820313 1.67203125 -14 1 C-11.03 1.495 -11.03 1.495 -8 2 C-8 2.33 -8 2.66 -8 3 C-5.69 3.33 -3.38 3.66 -1 4 C-0.67 2.68 -0.34 1.36 0 0 Z " fill="#5F27B8" transform="translate(817,357)"/>
<path d="M0 0 C0.33 0.66 0.66 1.32 1 2 C-1.64 2 -4.28 2 -7 2 C-7 2.66 -7 3.32 -7 4 C-8.65 4.33 -10.3 4.66 -12 5 C-9.28085049 -1.02097391 -6.0998139 -0.0983841 0 0 Z " fill="#822CC9" transform="translate(452,329)"/>
<path d="M0 0 C3.38552696 1.45094013 5.68132949 3.1216504 8 6 C8.75 9.25 8.75 9.25 9 12 C8.4225 11.236875 7.845 10.47375 7.25 9.6875 C5.18774664 6.99600539 5.18774664 6.99600539 2.8125 5.4375 C0.66379563 3.73335516 0.36783616 2.66681218 0 0 Z " fill="#7E19D3" transform="translate(461,317)"/>
<path d="M0 0 C-1.14453125 1.55078125 -1.14453125 1.55078125 -3 3 C-5.69921875 2.85546875 -5.69921875 2.85546875 -8.6875 2.1875 C-9.68136719 1.97480469 -10.67523438 1.76210938 -11.69921875 1.54296875 C-12.45847656 1.36378906 -13.21773438 1.18460937 -14 1 C-14 0.67 -14 0.34 -14 0 C-12.2300132 -0.19532961 -10.45895721 -0.38098882 -8.6875 -0.5625 C-7.70136719 -0.66691406 -6.71523438 -0.77132813 -5.69921875 -0.87890625 C-3 -1 -3 -1 0 0 Z " fill="#8532C5" transform="translate(393,373)"/>
<path d="M0 0 C0.66 0 1.32 0 2 0 C0.25 3.875 0.25 3.875 -2 5 C-3.875 5.16796875 -3.875 5.16796875 -6 5.1875 C-7.051875 5.20876953 -7.051875 5.20876953 -8.125 5.23046875 C-10 5 -10 5 -12 3 C-8.18243176 1.62567543 -4.92744671 2.32024961 -1 3 C-0.67 2.01 -0.34 1.02 0 0 Z " fill="#8D38CF" transform="translate(454,357)"/>
<path d="M0 0 C2.82405426 0.05637858 3.75432284 0.08136713 6.0625 1.8125 C6.5575 2.555 6.5575 2.555 7.0625 3.3125 C6.4025 3.9725 5.7425 4.6325 5.0625 5.3125 C4.0725 4.6525 3.0825 3.9925 2.0625 3.3125 C0.0132906 2.86110541 0.0132906 2.86110541 -2.125 2.6875 C-3.383125 2.56375 -4.64125 2.44 -5.9375 2.3125 C-3.9375 0.3125 -3.9375 0.3125 0 0 Z " fill="#7F2BCC" transform="translate(503.9375,328.6875)"/>
<path d="M0 0 C0.66 0 1.32 0 2 0 C2 3.3 2 6.6 2 10 C0.02 10 -1.96 10 -4 10 C-3.67 9.34 -3.34 8.68 -3 8 C-2.01 8 -1.02 8 0 8 C0 5.36 0 2.72 0 0 Z " fill="#6F1CC7" transform="translate(653,308)"/>
<path d="M0 0 C0.66 0.33 1.32 0.66 2 1 C1.319375 1.495 1.319375 1.495 0.625 2 C-1.84319974 5.0377843 -2.18843144 8.19187061 -3 12 C-3.33 12 -3.66 12 -4 12 C-4 8.7 -4 5.4 -4 2 C-2.68 1.34 -1.36 0.68 0 0 Z " fill="#E8C6FD" transform="translate(659,306)"/>
<path d="M0 0 C0.33 0 0.66 0 1 0 C1.33 5.28 1.66 10.56 2 16 C2.99 16.33 3.98 16.66 5 17 C3.68 17 2.36 17 1 17 C1 16.34 1 15.68 1 15 C0.34 15 -0.32 15 -1 15 C-1.02685412 12.68756208 -1.04632841 10.3750373 -1.0625 8.0625 C-1.07410156 6.77472656 -1.08570313 5.48695313 -1.09765625 4.16015625 C-1 1 -1 1 0 0 Z " fill="#7205DE" transform="translate(637,284)"/>
<path d="M0 0 C0.68835938 0.59748047 0.68835938 0.59748047 1.390625 1.20703125 C4.52271585 3.91142062 7.63877459 6.57991771 11 9 C9.35 9 7.7 9 6 9 C5.67 8.01 5.34 7.02 5 6 C2.98491642 5.26676204 2.98491642 5.26676204 1 5 C0.67 3.35 0.34 1.7 0 0 Z " fill="#8630C7" transform="translate(482,363)"/>
<path d="M0 0 C2 1 2 1 3.1875 3.9375 C4.45833699 8.66619576 3.711183 13.22354118 3 18 C2.67 18 2.34 18 2 18 C1.34 12.06 0.68 6.12 0 0 Z " fill="#6B03D6" transform="translate(642,324)"/>
<path d="M0 0 C-0.61488281 0.26554687 -1.22976563 0.53109375 -1.86328125 0.8046875 C-2.67152344 1.15789062 -3.47976563 1.51109375 -4.3125 1.875 C-5.51326172 2.39707031 -5.51326172 2.39707031 -6.73828125 2.9296875 C-9.1961834 4.02571894 -9.1961834 4.02571894 -12 6 C-11.67 4.35 -11.34 2.7 -11 1 C-4.03571429 -1.27678571 -4.03571429 -1.27678571 0 0 Z " fill="#8127CB" transform="translate(498,318)"/>
<path d="M0 0 C0.33 0.99 0.66 1.98 1 3 C0.34 3 -0.32 3 -1 3 C-1.33 3.99 -1.66 4.98 -2 6 C-4.0625 6.6875 -4.0625 6.6875 -6 7 C-6.33 6.01 -6.66 5.02 -7 4 C-4.69 2.68 -2.38 1.36 0 0 Z " fill="#5B26B4" transform="translate(829,367)"/>
<path d="M0 0 C1 3 1 3 0.0625 5.1875 C-0.4634375 6.0846875 -0.4634375 6.0846875 -1 7 C-1.99 7 -2.98 7 -4 7 C-4 7.66 -4 8.32 -4 9 C-5.32 8.67 -6.64 8.34 -8 8 C-6.50260417 6.79557292 -5.00520833 5.59114583 -3.5078125 4.38671875 C-1.74707893 2.87729455 -1.74707893 2.87729455 0 0 Z " fill="#8630CC" transform="translate(525,362)"/>
<path d="M0 0 C0.99 0.33 1.98 0.66 3 1 C2.51917969 1.54140625 2.03835938 2.0828125 1.54296875 2.640625 C-0.31323558 5.47897288 -0.48737656 7.38792626 -0.6875 10.75 C-0.75324219 11.73484375 -0.81898438 12.7196875 -0.88671875 13.734375 C-0.92410156 14.48203125 -0.96148438 15.2296875 -1 16 C-1.33 16 -1.66 16 -2 16 C-2.05402274 13.89611431 -2.09280256 11.79183286 -2.125 9.6875 C-2.14820313 8.51574219 -2.17140625 7.34398437 -2.1953125 6.13671875 C-2 3 -2 3 0 0 Z " fill="#F7E1FD" transform="translate(610,331)"/>
<path d="M0 0 C2.33294775 -0.04241723 4.66702567 -0.04092937 7 0 C8 1 8 1 8.09765625 3.28515625 C8.08605469 4.20167969 8.07445312 5.11820312 8.0625 6.0625 C8.05347656 6.98160156 8.04445313 7.90070313 8.03515625 8.84765625 C8.02355469 9.55792969 8.01195312 10.26820313 8 11 C7.67 11 7.34 11 7 11 C6.67 8.03 6.34 5.06 6 2 C4.02 2.33 2.04 2.66 0 3 C0 2.01 0 1.02 0 0 Z " fill="#7311D7" transform="translate(665,301)"/>
<path d="M0 0 C0.33 0.99 0.66 1.98 1 3 C0.401875 3.391875 -0.19625 3.78375 -0.8125 4.1875 C-3.25511232 6.21137878 -4.50112814 8.22708706 -6 11 C-6.33 10.34 -6.66 9.68 -7 9 C-5.8125 5.9375 -5.8125 5.9375 -4 3 C-1.8125 2.125 -1.8125 2.125 0 2 C0 1.34 0 0.68 0 0 Z " fill="#4E03C8" transform="translate(1110,77)"/>
<path d="M0 0 C3.465 1.98 3.465 1.98 7 4 C5.68 4.33 4.36 4.66 3 5 C3 5.66 3 6.32 3 7 C2.34 7 1.68 7 1 7 C0.67 4.69 0.34 2.38 0 0 Z " fill="#7A14C9" transform="translate(429,367)"/>
<path d="M0 0 C0.33 0 0.66 0 1 0 C1.44041451 5.37305699 1.44041451 5.37305699 1 8 C-1.5 10 -1.5 10 -4 11 C-2.95902388 7.13351728 -1.96301592 3.50538557 0 0 Z " fill="#7B1ACF" transform="translate(473,352)"/>
<path d="M0 0 C0.99 0.33 1.98 0.66 3 1 C2.71125 1.556875 2.4225 2.11375 2.125 2.6875 C0.9586747 5.08494645 -0.0339881 7.51596939 -1 10 C-1.33 10 -1.66 10 -2 10 C-2.1953125 3.9453125 -2.1953125 3.9453125 -2 2 C-1.34 1.34 -0.68 0.68 0 0 Z " fill="#580FC0" transform="translate(767,336)"/>
<path d="M0 0 C0.33 0 0.66 0 1 0 C0.67 4.29 0.34 8.58 0 13 C-0.99 11.68 -1.98 10.36 -3 9 C-2.63671875 6.640625 -2.63671875 6.640625 -1.6875 4.25 C-1.38199219 3.45078125 -1.07648438 2.6515625 -0.76171875 1.828125 C-0.51035156 1.22484375 -0.25898438 0.6215625 0 0 Z " fill="#8213D3" transform="translate(368,324)"/>
<path d="M0 0 C1.258125 0.12375 2.51625 0.2475 3.8125 0.375 C4.87404297 0.47941406 4.87404297 0.47941406 5.95703125 0.5859375 C8 1 8 1 11 3 C6.25 4 6.25 4 4 4 C3.67 3.34 3.34 2.68 3 2 C2.01 1.34 1.02 0.68 0 0 Z " fill="#780BC2" transform="translate(371,372)"/>
<path d="M0 0 C1.485 0.99 1.485 0.99 3 2 C3 2.66 3 3.32 3 4 C3.99 4.33 4.98 4.66 6 5 C5.01 6.485 5.01 6.485 4 8 C2 6.25 2 6.25 0 4 C0 2.68 0 1.36 0 0 Z " fill="#8822D4" transform="translate(406,317)"/>
<path d="M0 0 C0.33 1.32 0.66 2.64 1 4 C-2.3 3.01 -5.6 2.02 -9 1 C-4.82091936 -1.08954032 -4.19589427 -1.16552619 0 0 Z " fill="#7A24CE" transform="translate(575,317)"/>
<path d="M0 0 C1.81325551 0.11351517 3.62563357 0.24112961 5.4375 0.375 C6.95150391 0.47941406 6.95150391 0.47941406 8.49609375 0.5859375 C9.73552734 0.79089844 9.73552734 0.79089844 11 1 C11.33 1.66 11.66 2.32 12 3 C8.69564916 4.12377697 6.9493138 3.89554742 3.75 2.5625 C3.04359375 2.27503906 2.3371875 1.98757813 1.609375 1.69140625 C1.07828125 1.46324219 0.5471875 1.23507812 0 1 C0 0.67 0 0.34 0 0 Z " fill="#882BD6" transform="translate(656,256)"/>
<path d="M0 0 C0.33 1.32 0.66 2.64 1 4 C-1.70879335 5.35439668 -4.00933268 5.06501451 -7 5 C-4.702779 3.25728062 -2.40133271 1.60088848 0 0 Z " fill="#772AC7" transform="translate(577,368)"/>
<path d="M0 0 C-3.29549466 1.72264494 -6.33118845 3.29445932 -10 4 C-9 1 -9 1 -6.6875 -0.25 C-3.90126985 -1.0275526 -2.66561622 -0.98726527 0 0 Z " fill="#EDCAF7" transform="translate(383,341)"/>
<path d="M0 0 C3.465 1.98 3.465 1.98 7 4 C6.01 4.66 5.02 5.32 4 6 C3.01 5.67 2.02 5.34 1 5 C1 4.34 1 3.68 1 3 C0.34 2.67 -0.32 2.34 -1 2 C-0.67 1.34 -0.34 0.68 0 0 Z " fill="#7B1CCC" transform="translate(542,367)"/>
<path d="M0 0 C0.66 0 1.32 0 2 0 C1.375 1.875 1.375 1.875 0 4 C-3.125 5.25 -3.125 5.25 -6 6 C-4 4 -2 2 0 0 Z " fill="#EED0FC" transform="translate(434,320)"/>
<path d="M0 0 C0 1.65 0 3.3 0 5 C-1.32 5.33 -2.64 5.66 -4 6 C-4.33 5.01 -4.66 4.02 -5 3 C-1.125 0 -1.125 0 0 0 Z " fill="#731EBB" transform="translate(398,368)"/>
<path d="M0 0 C1.5625 1.75 1.5625 1.75 3 4 C2.6875 6.25 2.6875 6.25 2 8 C0.4375 6.25 0.4375 6.25 -1 4 C-0.6875 1.75 -0.6875 1.75 0 0 Z " fill="#5810B6" transform="translate(785,356)"/>
<path d="M0 0 C0.33 0 0.66 0 1 0 C1.66 2.97 2.32 5.94 3 9 C1.68 8.34 0.36 7.68 -1 7 C-0.67 4.69 -0.34 2.38 0 0 Z " fill="#852EC8" transform="translate(422,352)"/>
<path d="M0 0 C0.66 1.32 1.32 2.64 2 4 C1.01 5.485 1.01 5.485 0 7 C-1.32 7 -2.64 7 -4 7 C-4 6.34 -4 5.68 -4 5 C-3.01 5 -2.02 5 -1 5 C-0.67 3.35 -0.34 1.7 0 0 Z " fill="#610FC4" transform="translate(720,352)"/>
<path d="M0 0 C0.66 0.33 1.32 0.66 2 1 C2.4140625 3.28515625 2.4140625 3.28515625 2.625 6.0625 C2.69976563 6.98160156 2.77453125 7.90070313 2.8515625 8.84765625 C2.92503906 9.91306641 2.92503906 9.91306641 3 11 C0.99118063 7.98677094 -0.03927918 5.47337526 -1 2 C-0.67 1.34 -0.34 0.68 0 0 Z " fill="#8A3ECD" transform="translate(582,325)"/>
</svg>
