<?xml version="1.0" encoding="UTF-8"?>
<svg version="1.1" xmlns="http://www.w3.org/2000/svg" width="250" height="120">
<path d="M0 0 C82.5 0 165 0 250 0 C250 39.6 250 79.2 250 120 C167.5 120 85 120 0 120 C0 80.4 0 40.8 0 0 Z " fill="#FAFBFC" transform="translate(0,0)"/>
<path d="M0 0 C12.87 0 25.74 0 39 0 C39 33 39 66 39 100 C26.13 100 13.26 100 0 100 C0 67 0 34 0 0 Z " fill="#13446A" transform="translate(10,10)"/>
<path d="M0 0 C2.75428153 2.3411393 4.28561805 5.140622 6.015625 8.28125 C7.18430351 10.32179977 8.53206826 12.16508533 10 14 C9.49339844 14.77923828 9.49339844 14.77923828 8.9765625 15.57421875 C8.53054687 16.27160156 8.08453125 16.96898438 7.625 17.6875 C7.18414062 18.37199219 6.74328125 19.05648437 6.2890625 19.76171875 C3.18917205 25.1442558 2.6204507 29.71202733 2.375 35.8125 C2.33632813 36.60076172 2.29765625 37.38902344 2.2578125 38.20117188 C2.16411156 40.1337538 2.08099221 42.06684376 2 44 C9.14767667 42.20799067 9.14767667 42.20799067 14 37 C14.66 37 15.32 37 16 37 C17.69242399 39.95502601 18.27328801 42.09995022 18.25 45.5 C18.25773437 46.62921875 18.25773437 46.62921875 18.265625 47.78125 C17.97250404 50.2296721 17.21816769 51.87304054 16 54 C13.46553315 52.83024607 11.31308279 51.52774442 9 49.9375 C6.4007861 48.25884102 4.91840798 47.61009822 2 47 C2.43068406 58.27204142 3.10691636 67.72999097 10 77 C8.82070468 79.78742531 7.4919106 81.59700505 5.5 83.9375 C3.27119968 86.66778039 2.07080101 88.69025144 1 92 C0.34 91.01 -0.32 90.02 -1 89 C-2.5092902 87.00265128 -4.03426599 85.01803988 -5.5625 83.03515625 C-8.24298874 79.24022518 -8.24298874 79.24022518 -9 77 C-8.171875 75.0703125 -8.171875 75.0703125 -6.75 73.125 C-2.6842474 67.48319723 -1.69364488 61.97586495 -1.375 55.125 C-1.33632813 54.43664062 -1.29765625 53.74828125 -1.2578125 53.0390625 C-1.16451834 51.35976754 -1.08121762 49.67992233 -1 48 C-6.4012861 49.08025722 -9.30188897 49.73294881 -13 54 C-13.66 54 -14.32 54 -15 54 C-17.00441422 49.86589566 -17.40848636 46.57504719 -17 42 C-15.5 39.0625 -15.5 39.0625 -14 37 C-13.56429688 37.42152344 -13.12859375 37.84304687 -12.6796875 38.27734375 C-12.08414062 38.82519531 -11.48859375 39.37304688 -10.875 39.9375 C-10.00488281 40.75541016 -10.00488281 40.75541016 -9.1171875 41.58984375 C-6.45622207 43.36218419 -4.14623197 43.64794288 -1 44 C-1.02377367 33.96751151 -1.43243037 26.21983149 -6.8203125 17.41796875 C-8 15 -8 15 -7.83203125 12.89453125 C-6.93912409 10.86138584 -5.91211931 9.26211423 -4.5625 7.5 C-2.76351018 5.08228247 -1.22003745 2.77281238 0 0 Z " fill="#EEF2F4" transform="translate(29,14)"/>
<path d="M0 0 C12.87 0 25.74 0 39 0 C39 33 39 66 39 100 C26.13 100 13.26 100 0 100 C0 67 0 34 0 0 Z M1 1 C1 14.86 1 28.72 1 43 C1.33 43 1.66 43 2 43 C2 29.47 2 15.94 2 2 C8.27 2 14.54 2 21 2 C20.01 2.99 19.02 3.98 18 5 C16.90833725 6.93330603 16.90833725 6.93330603 16 9 C14.94721582 11.3161252 14.26228134 12.77657515 12.3125 14.4375 C10.71794199 15.97032117 10.71794199 15.97032117 11.15625 18.421875 C12.00150378 21.00459487 13.07447354 22.94595142 14.5 25.25 C18.25065983 32.36220221 17.89967226 40.13795363 18 48 C12.22995007 46.531759 9.27497721 44.962174 5 41 C2.91836754 42.13880873 2.91836754 42.13880873 1 44 C0.42070404 46.51379934 0.42070404 46.51379934 0.54589844 49.3894043 C0.54620056 50.49031906 0.54650269 51.59123383 0.54681396 52.72550964 C0.56745911 53.91308365 0.58810425 55.10065765 0.609375 56.32421875 C0.61503479 57.54075638 0.62069458 58.75729401 0.62652588 60.01069641 C0.64894966 63.90336144 0.69915987 67.7951123 0.75 71.6875 C0.77005711 74.32355443 0.78830925 76.95962327 0.8046875 79.59570312 C0.84543544 86.06443921 0.92372191 92.53119415 1 99 C13.21 99 25.42 99 38 99 C38 66.66 38 34.32 38 1 C25.79 1 13.58 1 1 1 Z " fill="#265377" transform="translate(10,10)"/>
<path d="M0 0 C5.28 0 10.56 0 16 0 C16 13.2 16 26.4 16 40 C15.01 40.495 15.01 40.495 14 41 C14 40.34 14 39.68 14 39 C13.57589844 39.42152344 13.15179688 39.84304687 12.71484375 40.27734375 C11.83505859 41.09912109 11.83505859 41.09912109 10.9375 41.9375 C10.08478516 42.75541016 10.08478516 42.75541016 9.21484375 43.58984375 C6.23128484 45.48942887 3.48065008 45.66990233 0 46 C-0.53555392 35.74116704 -0.79247204 27.89934341 5 19 C5.68218793 17.67454089 6.35394132 16.34343977 7 15 C6.57847656 14.5875 6.15695313 14.175 5.72265625 13.75 C1.40797978 9.20182339 0.2196833 6.26097416 0 0 Z " fill="#16476D" transform="translate(31,12)"/>
<path d="M0 0 C3.3 0 6.6 0 10 0 C10 7.92 10 15.84 10 24 C8.02 24 6.04 24 4 24 C3.505 17.565 3.505 17.565 3 11 C2.01 14.96 1.02 18.92 0 23 C-1.98 23 -3.96 23 -6 23 C-9.44419134 12.62642369 -9.44419134 12.62642369 -9 7 C-9.66 7 -10.32 7 -11 7 C-11 12.28 -11 17.56 -11 23 C-12.65 23 -14.3 23 -16 23 C-16 15.74 -16 8.48 -16 1 C-12.7 1 -9.4 1 -6 1 C-5.01 4.3 -4.02 7.6 -3 11 C-2.01 7.37 -1.02 3.74 0 0 Z " fill="#214F73" transform="translate(72,48)"/>
<path d="M0 0 C2.76928317 1.37644844 3.91586591 2.5867921 6 5 C6 6.32 6 7.64 6 9 C3.1875 9.6875 3.1875 9.6875 0 10 C-1.02019573 9.0206121 -2.02149805 8.02104551 -3 7 C-6.31818985 7.24205349 -6.31818985 7.24205349 -9 9 C-9.09823937 10.66429051 -9.12973631 12.33281931 -9.125 14 C-9.12757812 14.9075 -9.13015625 15.815 -9.1328125 16.75 C-9.25173779 18.96966611 -9.25173779 18.96966611 -8 20 C-6.00041636 20.04080783 -3.99954746 20.04254356 -2 20 C-1.67 19.01 -1.34 18.02 -1 17 C1.64 17.33 4.28 17.66 7 18 C5.54315789 23.46315789 5.54315789 23.46315789 3.3203125 25.66015625 C-1.35406639 28.35933463 -6.81742343 27.92591939 -12 27 C-15.40649005 24.62165058 -17.17162392 21.65675215 -19 18 C-19.57031437 13.32529208 -19.43841751 9.87683502 -17.3125 5.625 C-12.31905615 -0.04323355 -7.39552175 -1.27386978 0 0 Z " fill="#19496E" transform="translate(74,15)"/>
<path d="M0 0 C2.84768123 1.35578941 3.92264392 2.51871357 6 5 C6 5.99 6 6.98 6 8 C2.625 8.625 2.625 8.625 -1 9 C-1.66 8.34 -2.32 7.68 -3 7 C-5.5 6.66666667 -5.5 6.66666667 -8 7 C-10.60704898 9.60704898 -10.23905333 11.47338241 -10.265625 15.02734375 C-10.10382514 17.31952326 -10.10382514 17.31952326 -8 20 C-5.41619823 20.25030977 -5.41619823 20.25030977 -3 20 C-2.34 18.68 -1.68 17.36 -1 16 C1.31 16.66 3.62 17.32 6 18 C5.73309994 21.20280069 5.16670984 22.7943912 3.125 25.3125 C-1.52966502 27.82601911 -5.81922257 27.6397948 -11 27 C-15.32954532 25.28622165 -16.91620153 23.08656033 -19 19 C-19.75575654 14.32060744 -20.13675312 9.23982467 -17.9453125 4.921875 C-13.02188878 -1.07945806 -7.30059972 -0.86504502 0 0 Z " fill="#18486D" transform="translate(75,78)"/>
<path d="M0 0 C0.721875 0.185625 1.44375 0.37125 2.1875 0.5625 C4.36651905 1.23661142 4.36651905 1.23661142 8 0 C8.33 4.29 8.66 8.58 9 13 C10.98 13 12.96 13 15 13 C15.33 8.71 15.66 4.42 16 0 C16.66 0 17.32 0 18 0 C18.08097324 2.27024968 18.13917704 4.54132075 18.1875 6.8125 C18.23970703 8.70935547 18.23970703 8.70935547 18.29296875 10.64453125 C18 14 18 14 16.671875 15.91796875 C13.9742353 17.66387108 12.12317836 17.50990667 9 17 C6.625 14.5 6.625 14.5 5 12 C4.13375 12.825 3.2675 13.65 2.375 14.5 C0.00294935 16.45806068 -0.99711439 16.99942288 -4.125 17.625 C-7 17 -7 17 -9.375 15 C-11.62175128 10.85215148 -11.59566305 8.69084654 -11 4 C-8.12133135 -0.60586985 -5.14706721 -0.45955957 0 0 Z " fill="#F1F4F6" transform="translate(140,55)"/>
<path d="M0 0 C2.75428153 2.3411393 4.28561805 5.140622 6.015625 8.28125 C7.18430351 10.32179977 8.53206826 12.16508533 10 14 C9.49339844 14.77923828 9.49339844 14.77923828 8.9765625 15.57421875 C8.53054687 16.27160156 8.08453125 16.96898438 7.625 17.6875 C7.18414062 18.37199219 6.74328125 19.05648437 6.2890625 19.76171875 C3.259781 25.021653 2.48333781 29.86375403 1.875 35.8125 C1.78863281 36.60076172 1.70226563 37.38902344 1.61328125 38.20117188 C1.40248936 40.13343084 1.20037104 42.06663263 1 44 C0.67 44 0.34 44 0 44 C-0.03867187 42.78376953 -0.03867187 42.78376953 -0.078125 41.54296875 C-0.52421842 32.83400849 -1.80417262 24.83055935 -6.6953125 17.4375 C-8 15 -8 15 -7.83984375 12.90625 C-6.94262608 10.86977455 -5.91498968 9.2658619 -4.5625 7.5 C-2.76351018 5.08228247 -1.22003745 2.77281238 0 0 Z " fill="#F5F7F9" transform="translate(29,14)"/>
<path d="M0 0 C2.5 1.5625 2.5 1.5625 4 4 C4.59172793 8.06812955 4.37276489 10.27000208 2.5 13.9375 C-0.52927279 16.43665005 -2.24727566 16.7459903 -6.09375 16.48046875 C-8 16 -8 16 -10.5 13.9375 C-12.37276489 10.27000208 -12.59172793 8.06812955 -12 4 C-9.10500071 -0.70437385 -5.08928147 -1.01159898 0 0 Z " fill="#EFF2F5" transform="translate(137,26)"/>
<path d="M0 0 C10.48897582 -0.37019915 10.48897582 -0.37019915 12.87109375 1.35546875 C14 3 14 3 13.75 5.5 C13.19717158 7.34276141 12.60839041 9.17482878 12 11 C12.95298777 12.36733028 13.95374591 13.70264493 15 15 C15 15.66 15 16.32 15 17 C13.1875 16.8125 13.1875 16.8125 11 16 C10.525625 15.175 10.05125 14.35 9.5625 13.5 C8.22232165 10.74538088 8.22232165 10.74538088 5.3125 10.1875 C4.549375 10.125625 3.78625 10.06375 3 10 C3 12.31 3 14.62 3 17 C2.01 17 1.02 17 0 17 C0 11.39 0 5.78 0 0 Z " fill="#5F809A" transform="translate(144,88)"/>
<path d="M0 0 C3.3 0 6.6 0 10 0 C10.98224245 3.92896979 11.2981102 6.97551231 11 11 C10.01 11.66 9.02 12.32 8 13 C7 12 7 12 6.9375 8.9375 C6.958125 7.968125 6.97875 6.99875 7 6 C6.34 6 5.68 6 5 6 C5 11.28 5 16.56 5 22 C3.35 22 1.7 22 0 22 C0 14.74 0 7.48 0 0 Z " fill="#114269" transform="translate(56,49)"/>
<path d="M0 0 C8.3984375 -0.1953125 8.3984375 -0.1953125 11 0 C13 2 13 2 13.25 5 C13 8 13 8 11 10 C11.495 10.61875 11.99 11.2375 12.5 11.875 C14 14 14 14 14 16 C13.01 16 12.02 16 11 16 C10.360625 15.030625 9.72125 14.06125 9.0625 13.0625 C7.34877692 9.88931021 7.34877692 9.88931021 4.75 9.125 C3.88375 9.063125 3.88375 9.063125 3 9 C3 11.64 3 14.28 3 17 C2.01 17 1.02 17 0 17 C0 11.39 0 5.78 0 0 Z " fill="#295074" transform="translate(199,55)"/>
<path d="M0 0 C3.96 0 7.92 0 12 0 C12 0.99 12 1.98 12 3 C9.03 3 6.06 3 3 3 C3 4.32 3 5.64 3 7 C5.64 7 8.28 7 11 7 C11 7.99 11 8.98 11 10 C8.36 10 5.72 10 3 10 C3 11.32 3 12.64 3 14 C5.97 14 8.94 14 12 14 C12 14.99 12 15.98 12 17 C8.04 17 4.08 17 0 17 C0 11.39 0 5.78 0 0 Z " fill="#507491" transform="translate(130,88)"/>
<path d="M0 0 C4.29 0 8.58 0 13 0 C13 0.99 13 1.98 13 3 C9.7 3 6.4 3 3 3 C3 4.32 3 5.64 3 7 C5.97 7 8.94 7 12 7 C12 7.66 12 8.32 12 9 C9.03 9 6.06 9 3 9 C3 10.65 3 12.3 3 14 C6.3 14 9.6 14 13 14 C13 14.99 13 15.98 13 17 C8.71 17 4.42 17 0 17 C0 11.39 0 5.78 0 0 Z " fill="#406585" transform="translate(84,88)"/>
<path d="M0 0 C1.32 0 2.64 0 4 0 C4.81542431 2.08219049 5.62723189 4.16579761 6.4375 6.25 C7.11619141 7.99023438 7.11619141 7.99023438 7.80859375 9.765625 C8.70150633 12.18966308 9.45794365 14.48286475 10 17 C9.01 17 8.02 17 7 17 C6.67 15.35 6.34 13.7 6 12 C3.69 12 1.38 12 -1 12 C-1.66 13.65 -2.32 15.3 -3 17 C-3.66 17 -4.32 17 -5 17 C-3.83348574 11.07136283 -2.24480642 5.61201606 0 0 Z " fill="#2C5477" transform="translate(220,55)"/>
<path d="M0 0 C0.99 0 1.98 0 3 0 C4.60546875 1.96875 4.60546875 1.96875 6.1875 4.5 C6.71730469 5.3353125 7.24710937 6.170625 7.79296875 7.03125 C8.19128906 7.6809375 8.58960937 8.330625 9 9 C9.33 6.03 9.66 3.06 10 0 C10.99 0 11.98 0 13 0 C13 5.61 13 11.22 13 17 C12.01 17 11.02 17 10 17 C8.17578125 14.59375 8.17578125 14.59375 6.3125 11.5 C5.68988281 10.4790625 5.06726563 9.458125 4.42578125 8.40625 C3.95527344 7.6121875 3.48476562 6.818125 3 6 C2.67 9.63 2.34 13.26 2 17 C1.34 17 0.68 17 0 17 C0 11.39 0 5.78 0 0 Z " fill="#2C5578" transform="translate(100,88)"/>
<path d="M0 0 C1.86328125 0.203125 1.86328125 0.203125 4 1 C5.23046875 3.109375 5.23046875 3.109375 6.1875 5.75 C6.67283203 7.04164062 6.67283203 7.04164062 7.16796875 8.359375 C7.96703127 10.89536685 8.53424238 13.38422991 9 16 C8.01 16 7.02 16 6 16 C5.67 14.35 5.34 12.7 5 11 C2.69 11 0.38 11 -2 11 C-2.33 12.65 -2.66 14.3 -3 16 C-3.99 16 -4.98 16 -6 16 C-3.10933941 4.29384966 -3.10933941 4.29384966 0 0 Z " fill="#0E3C64" transform="translate(88,26)"/>
<path d="M0 0 C0.99 0 1.98 0 3 0 C3.33 4.29 3.66 8.58 4 13 C5.65 13 7.3 13 9 13 C9.33 8.71 9.66 4.42 10 0 C10.99 0 11.98 0 13 0 C13.10832169 2.08218362 13.18573541 4.16599129 13.25 6.25 C13.29640625 7.41015625 13.3428125 8.5703125 13.390625 9.765625 C13 13 13 13 11.17578125 15.39453125 C8.25961 17.54632009 6.54441224 17.52789118 3 17 C1.328125 15.921875 1.328125 15.921875 0 14 C-0.29296875 10.64453125 -0.29296875 10.64453125 -0.1875 6.8125 C-0.16042969 5.54019531 -0.13335937 4.26789062 -0.10546875 2.95703125 C-0.07066406 1.98121094 -0.03585938 1.00539062 0 0 Z " fill="#446887" transform="translate(184,55)"/>
<path d="M0 0 C2.5 1.5625 2.5 1.5625 4 4 C4.59172793 8.06812955 4.37276489 10.27000208 2.5 13.9375 C-0.52927279 16.43665005 -2.24727566 16.7459903 -6.09375 16.48046875 C-8 16 -8 16 -10.5 13.9375 C-12.37276489 10.27000208 -12.59172793 8.06812955 -12 4 C-9.10500071 -0.70437385 -5.08928147 -1.01159898 0 0 Z M-9 4 C-9.3176246 5.91006306 -9.3176246 5.91006306 -9.25 8 C-9.25515625 8.70125 -9.2603125 9.4025 -9.265625 10.125 C-9.15705515 12.2435669 -9.15705515 12.2435669 -7 14 C-4 14.33333333 -4 14.33333333 -1 14 C1.15705515 12.2435669 1.15705515 12.2435669 1.265625 10.125 C1.26046875 9.42375 1.2553125 8.7225 1.25 8 C1.25515625 7.29875 1.2603125 6.5975 1.265625 5.875 C1.15705515 3.7564331 1.15705515 3.7564331 -1 2 C-5.50480277 1.4895042 -5.50480277 1.4895042 -9 4 Z " fill="#275074" transform="translate(137,26)"/>
<path d="M0 0 C0.99 0 1.98 0 3 0 C3.33 4.29 3.66 8.58 4 13 C5.65 13 7.3 13 9 13 C10.81115956 11.18884044 10.38199448 8.38721773 10.5625 5.9375 C10.64628906 4.83277344 10.73007813 3.72804687 10.81640625 2.58984375 C10.87699219 1.73519531 10.93757813 0.88054688 11 0 C11.66 0 12.32 0 13 0 C13.10832169 2.08218362 13.18573541 4.16599129 13.25 6.25 C13.29640625 7.41015625 13.3428125 8.5703125 13.390625 9.765625 C13 13 13 13 11.17578125 15.390625 C9 17 9 17 5.9375 17.5 C3 17 3 17 1.328125 15.390625 C-0.44204383 12.2043211 -0.29611998 9.87066601 -0.1875 6.25 C-0.16042969 5.07953125 -0.13335937 3.9090625 -0.10546875 2.703125 C-0.07066406 1.81109375 -0.03585938 0.9190625 0 0 Z " fill="#2D5679" transform="translate(85,55)"/>
<path d="M0 0 C0.99 0.66 1.98 1.32 3 2 C3 2.99 3 3.98 3 5 C2.1646875 4.505 2.1646875 4.505 1.3125 4 C-1.32401158 2.85988688 -3.15554856 2.7693688 -6 3 C-7.19695276 3.97910585 -7.19695276 3.97910585 -7.1328125 5.8125 C-7.13023437 6.534375 -7.12765625 7.25625 -7.125 8 C-7.12757813 8.721875 -7.13015625 9.44375 -7.1328125 10.1875 C-7.19695276 12.02089415 -7.19695276 12.02089415 -6 13 C-3.54190002 13.2500773 -3.54190002 13.2500773 -1 13 C-0.34 12.34 0.32 11.68 1 11 C1.99 11 2.98 11 4 11 C2.63016497 14.16115776 2.0109362 14.9927092 -1 17 C-3.9375 17.4375 -3.9375 17.4375 -7 17 C-9.50806657 14.88794394 -10.75114713 13.28235407 -11.3828125 10.02734375 C-11.57300962 6.63549519 -11.24054721 4.38487554 -9.4375 1.5 C-6.11203064 -0.54644269 -3.83693587 -0.41857482 0 0 Z " fill="#305578" transform="translate(140,55)"/>
<path d="M0 0 C2.875 0.5625 2.875 0.5625 4.75 1.875 C5.875 3.5625 5.875 3.5625 5.875 6.5625 C5.215 6.5625 4.555 6.5625 3.875 6.5625 C3.545 5.9025 3.215 5.2425 2.875 4.5625 C0.87545254 4.51995644 -1.12541636 4.52169217 -3.125 4.5625 C-4.52181568 5.73233444 -4.52181568 5.73233444 -4.25 9 C-4.3776281 12.40355584 -4.3776281 12.40355584 -3.125 14.5625 C-0.09565509 15.22022428 -0.09565509 15.22022428 2.875 15.5625 C3.205 14.2425 3.535 12.9225 3.875 11.5625 C4.865 11.5625 5.855 11.5625 6.875 11.5625 C6.30155063 14.42974686 6.0135485 15.4239515 3.875 17.5625 C0.86752622 17.90205349 -1.22392278 18.11863536 -4.125 17.5625 C-7.08841004 15.04360147 -7.9591401 13.42865726 -8.6875 9.625 C-7.73516146 4.44004575 -5.31624649 0.95692437 0 0 Z " fill="#345D7E" transform="translate(168.125,24.4375)"/>
<path d="M0 0 C0.99 0 1.98 0 3 0 C3 1.98 3 3.96 3 6 C5.64 6 8.28 6 11 6 C11 4.02 11 2.04 11 0 C11.66 0 12.32 0 13 0 C13 5.28 13 10.56 13 16 C12.34 16 11.68 16 11 16 C11 13.36 11 10.72 11 8 C8.36 8 5.72 8 3 8 C3 10.64 3 13.28 3 16 C2.01 16 1.02 16 0 16 C0 10.72 0 5.44 0 0 Z " fill="#244D72" transform="translate(110,26)"/>
<path d="M0 0 C0.99 0 1.98 0 3 0 C3.33 4.29 3.66 8.58 4 13 C5.98 13 7.96 13 10 13 C10.33 8.71 10.66 4.42 11 0 C11.66 0 12.32 0 13 0 C13.08097324 2.27024968 13.13917704 4.54132075 13.1875 6.8125 C13.22230469 8.07707031 13.25710937 9.34164062 13.29296875 10.64453125 C13 14 13 14 11.671875 15.91796875 C8.9742353 17.66387108 7.12317836 17.50990667 4 17 C1.625 15.25 1.625 15.25 0 12 C-0.324353 7.97697651 -0.23117813 4.02635238 0 0 Z " fill="#1B436A" transform="translate(145,55)"/>
<path d="M0 0 C4.29 0 8.58 0 13 0 C13 0.99 13 1.98 13 3 C11.35 3 9.7 3 8 3 C8 7.62 8 12.24 8 17 C7.01 17 6.02 17 5 17 C5 12.38 5 7.76 5 3 C3.35 3 1.7 3 0 3 C0 2.01 0 1.02 0 0 Z " fill="#5F819A" transform="translate(115,88)"/>
<path d="M0 0 C0.99 0 1.98 0 3 0 C3 4.62 3 9.24 3 14 C5.64 14 8.28 14 11 14 C11 14.99 11 15.98 11 17 C7.37 17 3.74 17 0 17 C0 11.39 0 5.78 0 0 Z " fill="#416585" transform="translate(161,55)"/>
<path d="M0 0 C0.99 0 1.98 0 3 0 C3 4.62 3 9.24 3 14 C5.64 14 8.28 14 11 14 C11 14.99 11 15.98 11 17 C9.35425434 17.02688151 7.70838587 17.04634123 6.0625 17.0625 C5.14597656 17.07410156 4.22945312 17.08570312 3.28515625 17.09765625 C1 17 1 17 0 16 C-0.07319621 13.30345146 -0.09242537 10.63308542 -0.0625 7.9375 C-0.05798828 7.17888672 -0.05347656 6.42027344 -0.04882812 5.63867188 C-0.0370068 3.75908129 -0.01907078 1.87953101 0 0 Z " fill="#406685" transform="translate(231,55)"/>
<path d="M0 0 C3.7024835 1.70114107 4.90182279 2.81041643 6.8125 6.5 C8 10 8 10 8 13 C7.01 13 6.02 13 5 13 C4.67 11.35 4.34 9.7 4 8 C1.69 8 -0.62 8 -3 8 C-1.125 1.125 -1.125 1.125 0 0 Z " fill="#63829B" transform="translate(222,59)"/>
<path d="M0 0 C3.63 0 7.26 0 11 0 C11 0.66 11 1.32 11 2 C8.03 2 5.06 2 2 2 C2 3.32 2 4.64 2 6 C4.64 6 7.28 6 10 6 C10 6.66 10 7.32 10 8 C7.03 8 4.06 8 1 8 C1 10.31 1 12.62 1 15 C0.67 15 0.34 15 0 15 C0 10.05 0 5.1 0 0 Z " fill="#264C71" transform="translate(131,89)"/>
<path d="M0 0 C4.29 0 8.58 0 13 0 C13 0.66 13 1.32 13 2 C11.35 2 9.7 2 8 2 C8 6.62 8 11.24 8 16 C7.34 16 6.68 16 6 16 C6 11.38 6 6.76 6 2 C4.02 2 2.04 2 0 2 C0 1.34 0 0.68 0 0 Z " fill="#19476D" transform="translate(109,55)"/>
<path d="M0 0 C3.96 0 7.92 0 12 0 C12 0.66 12 1.32 12 2 C10.35 2 8.7 2 7 2 C7 6.95 7 11.9 7 17 C6.34 17 5.68 17 5 17 C5 12.05 5 7.1 5 2 C3.35 2 1.7 2 0 2 C0 1.34 0 0.68 0 0 Z " fill="#154269" transform="translate(170,55)"/>
<path d="M0 0 C4.29 0 8.58 0 13 0 C13 0.66 13 1.32 13 2 C11.35 2 9.7 2 8 2 C8 6.62 8 11.24 8 16 C7.34 16 6.68 16 6 16 C6 11.38 6 6.76 6 2 C4.02 2 2.04 2 0 2 C0 1.34 0 0.68 0 0 Z " fill="#134067" transform="translate(95,26)"/>
<path d="M0 0 C0.99 0 1.98 0 3 0 C3 5.61 3 11.22 3 17 C2.01 17 1.02 17 0 17 C0 11.39 0 5.78 0 0 Z " fill="#416887" transform="translate(124,55)"/>
<path d="M0 0 C0.66 0 1.32 0 2 0 C2 4.62 2 9.24 2 14 C4.64 14 7.28 14 10 14 C10 14.66 10 15.32 10 16 C6.7 16 3.4 16 0 16 C0 10.72 0 5.44 0 0 Z " fill="#144067" transform="translate(101,55)"/>
<path d="M0 0 C0.66 0 1.32 0 2 0 C2 4.62 2 9.24 2 14 C4.64 14 7.28 14 10 14 C10 14.66 10 15.32 10 16 C6.7 16 3.4 16 0 16 C0 10.72 0 5.44 0 0 Z " fill="#1D496F" transform="translate(143,26)"/>
<path d="M0 0 C0.33 0.66 0.66 1.32 1 2 C1.99 1.67 2.98 1.34 4 1 C4.66 2.65 5.32 4.3 6 6 C4.35 6 2.7 6 1 6 C0.34 8.31 -0.32 10.62 -1 13 C-1.99 13 -2.98 13 -4 13 C-3.52343588 11.20763933 -3.04366502 9.41613103 -2.5625 7.625 C-2.29566406 6.62726562 -2.02882813 5.62953125 -1.75390625 4.6015625 C-1 2 -1 2 0 0 Z " fill="#3C6383" transform="translate(86,29)"/>
<path d="M0 0 C1.875 1.3125 1.875 1.3125 3 3 C3 3.99 3 4.98 3 6 C2.34 6 1.68 6 1 6 C0.67 5.34 0.34 4.68 0 4 C-1.98 4 -3.96 4 -6 4 C-6.99 6.31 -7.98 8.62 -9 11 C-9.33 11 -9.66 11 -10 11 C-10.48275862 4.72413793 -10.48275862 4.72413793 -8.375 1.5625 C-5.31881548 -0.44814771 -3.59350675 -0.53520313 0 0 Z " fill="#103C64" transform="translate(171,25)"/>
<path d="M0 0 C8.3984375 -0.1953125 8.3984375 -0.1953125 11 0 C11.66 0.66 12.32 1.32 13 2 C12.625 4.625 12.625 4.625 12 7 C11.01 7 10.02 7 9 7 C9 5.35 9 3.7 9 2 C6.36 1.67 3.72 1.34 1 1 C1 5.62 1 10.24 1 15 C0.67 15 0.34 15 0 15 C0 10.05 0 5.1 0 0 Z " fill="#143A62" transform="translate(145,89)"/>
<path d="M0 0 C4.29 0 8.58 0 13 0 C13 0.66 13 1.32 13 2 C11.02 2 9.04 2 7 2 C7 6.62 7 11.24 7 16 C6.67 16 6.34 16 6 16 C6 11.38 6 6.76 6 2 C4.02 2 2.04 2 0 2 C0 1.34 0 0.68 0 0 Z " fill="#1E4269" transform="translate(115,88)"/>
<path d="M0 0 C0 0.99 0 1.98 0 3 C-1.134375 2.979375 -2.26875 2.95875 -3.4375 2.9375 C-6.81575674 2.58422523 -6.81575674 2.58422523 -8 4 C-8.36760731 6.32817964 -8.70241581 8.6618385 -9 11 C-9.99 11 -10.98 11 -12 11 C-12.47863248 4.77777778 -12.47863248 4.77777778 -10.5 1.5625 C-6.86353539 -0.71029038 -4.24217465 -0.28281164 0 0 Z " fill="#305779" transform="translate(137,26)"/>
<path d="M0 0 C2.31 0 4.62 0 7 0 C7.5625 1.9375 7.5625 1.9375 8 4 C7 5 7 5 3.4375 5.0625 C2.303125 5.041875 1.16875 5.02125 0 5 C0 3.35 0 1.7 0 0 Z " fill="#DEE5EA" transform="translate(202,57)"/>
<path d="M0 0 C0.99 0 1.98 0 3 0 C3 3.96 3 7.92 3 12 C2.01 12 1.02 12 0 12 C0 8.04 0 4.08 0 0 Z " fill="#375B7C" transform="translate(145,55)"/>
<path d="M0 0 C0.66 0.33 1.32 0.66 2 1 C0.88537118 3.50791484 -0.21757549 5.24394828 -2.0625 7.3125 C-4.40639436 10.5637083 -4.69033018 13.05170974 -5 17 C-5.33 17 -5.66 17 -6 17 C-6.50224661 10.72191742 -6.19082691 7.05364422 -2 2 C-1.34 1.34 -0.68 0.68 0 0 Z " fill="#3D6585" transform="translate(61,16)"/>
<path d="M0 0 C0.66 0.33 1.32 0.66 2 1 C1.02772995 3.16891011 0.2903082 4.7511644 -1.53125 6.3125 C-3.50346381 8.57844778 -3.49498773 10.22281102 -3.6875 13.1875 C-3.75324219 14.08855469 -3.81898437 14.98960938 -3.88671875 15.91796875 C-3.92410156 16.60503906 -3.96148437 17.29210937 -4 18 C-4.33 18 -4.66 18 -5 18 C-5.86140345 6.17005924 -5.86140345 6.17005924 -2.5 2.25 C-1.675 1.5075 -0.85 0.765 0 0 Z " fill="#345E7F" transform="translate(61,79)"/>
<path d="M0 0 C2.64 0 5.28 0 8 0 C7.67 1.32 7.34 2.64 7 4 C4.69 4 2.38 4 0 4 C0 2.68 0 1.36 0 0 Z " fill="#F1F4F6" transform="translate(147,91)"/>
<path d="M0 0 C1.32 0 2.64 0 4 0 C4.66 1.98 5.32 3.96 6 6 C5.38125 5.79375 4.7625 5.5875 4.125 5.375 C3.42375 5.25125 2.7225 5.1275 2 5 C1.34 5.66 0.68 6.32 0 7 C-0.93423645 3.98968256 -1.04449911 3.13349732 0 0 Z " fill="#3C6383" transform="translate(220,55)"/>
<path d="M0 0 C2.625 -0.4375 2.625 -0.4375 6 0 C8.38998754 2.05086769 10.3067937 4.34610927 12 7 C12 7.66 12 8.32 12 9 C10.25 8.875 10.25 8.875 8 8 C6.64721885 6.01310269 5.31431695 4.01254782 4 2 C1.89960669 0.61131484 1.89960669 0.61131484 0 0 Z " fill="#1E476C" transform="translate(147,96)"/>
<path d="M0 0 C0.33 0 0.66 0 1 0 C1.02685412 2.31243792 1.04632841 4.6249627 1.0625 6.9375 C1.07410156 8.22527344 1.08570313 9.51304688 1.09765625 10.83984375 C1 14 1 14 0 15 C-2.33297433 15.04092937 -4.66705225 15.04241723 -7 15 C-7 14.67 -7 14.34 -7 14 C-5.35 14 -3.7 14 -2 14 C-0.99740493 10.99221479 -0.69685358 8.46179353 -0.4375 5.3125 C-0.35371094 4.31863281 -0.26992187 3.32476562 -0.18359375 2.30078125 C-0.12300781 1.54152344 -0.06242188 0.78226563 0 0 Z " fill="#0D3760" transform="translate(195,56)"/>
<path d="M0 0 C6.625 -0.25 6.625 -0.25 10 2 C10 2.99 10 3.98 10 5 C9.484375 4.690625 8.96875 4.38125 8.4375 4.0625 C5.33334577 2.70940713 2.34884993 2.38640576 -1 2 C-0.67 1.34 -0.34 0.68 0 0 Z " fill="#214D72" transform="translate(133,55)"/>
<path d="M0 0 C1.98 0.495 1.98 0.495 4 1 C4.33 2.32 4.66 3.64 5 5 C3.02 5 1.04 5 -1 5 C-0.67 3.35 -0.34 1.7 0 0 Z " fill="#355E7F" transform="translate(88,26)"/>
<path d="M0 0 C0.28875 0.598125 0.5775 1.19625 0.875 1.8125 C2.04742026 4.19327792 2.04742026 4.19327792 4 7 C4 7.99 4 8.98 4 10 C3.01 10 2.02 10 1 10 C-0.60725635 6.78548731 -0.05748185 3.56387464 0 0 Z " fill="#355B7D" transform="translate(93,32)"/>
<path d="M0 0 C5.47826087 -0.36521739 5.47826087 -0.36521739 7.875 1.3125 C9 3 9 3 9 6 C8.34 6 7.68 6 7 6 C6.67 5.34 6.34 4.68 6 4 C3.47266765 3.34444881 3.47266765 3.34444881 1 3 C0.67 2.01 0.34 1.02 0 0 Z " fill="#436686" transform="translate(165,25)"/>
<path d="M0 0 C0.99 0 1.98 0 3 0 C1.125 3.875 1.125 3.875 0 5 C-2.33297433 5.04092937 -4.66705225 5.04241723 -7 5 C-7 4.67 -7 4.34 -7 4 C-5.35 4 -3.7 4 -2 4 C-1.34 2.68 -0.68 1.36 0 0 Z " fill="#264C71" transform="translate(141,66)"/>
<path d="M0 0 C2.31 0.66 4.62 1.32 7 2 C7 2.99 7 3.98 7 5 C5.02 5 3.04 5 1 5 C0.67 3.35 0.34 1.7 0 0 Z " fill="#4E718E" transform="translate(132,67)"/>
<path d="M0 0 C0.99 0 1.98 0 3 0 C3.33 2.64 3.66 5.28 4 8 C3.34 8 2.68 8 2 8 C1.34 5.36 0.68 2.72 0 0 Z " fill="#1F4D72" transform="translate(63,49)"/>
<path d="M0 0 C0.33 0 0.66 0 1 0 C1.28875 1.093125 1.5775 2.18625 1.875 3.3125 C2.81893204 7.04013845 2.81893204 7.04013845 5 10 C1.125 9.125 1.125 9.125 0 8 C-0.14115161 5.32941149 -0.04247107 2.67567762 0 0 Z " fill="#0E3B63" transform="translate(126,31)"/>
<path d="M0 0 C1.5 1.375 1.5 1.375 3 3 C3 3.66 3 4.32 3 5 C1.35 5 -0.3 5 -2 5 C-1.34 3.35 -0.68 1.7 0 0 Z " fill="#C3D0DA" transform="translate(89,30)"/>
</svg>
