<?xml version="1.0" encoding="UTF-8"?>
<svg version="1.1" xmlns="http://www.w3.org/2000/svg" width="941" height="698">
<path d="M0 0 C310.53 0 621.06 0 941 0 C941 230.34 941 460.68 941 698 C630.47 698 319.94 698 0 698 C0 467.66 0 237.32 0 0 Z " fill="#FEFEFE" transform="translate(0,0)"/>
<path d="M0 0 C3.10441417 1.47709385 5.04279975 2.89951737 7.375 5.4375 C11.60690539 9.80514575 16.25119783 13.46300231 21.07568359 17.14233398 C24.2728104 19.59073271 27.22593834 22.0611426 30 25 C29.29037109 25.91265625 29.29037109 25.91265625 28.56640625 26.84375 C16.43022261 42.93069907 3 65.25233385 3 86 C6.7478921 87.00801676 10.49862967 88.00501289 14.25 89 C15.31347656 89.28617187 16.37695312 89.57234375 17.47265625 89.8671875 C19.00986328 90.27324219 19.00986328 90.27324219 20.578125 90.6875 C21.52075195 90.93886719 22.46337891 91.19023437 23.43457031 91.44921875 C26.21449906 92.13994022 26.21449906 92.13994022 30 92 C30.27972656 90.8140625 30.55945313 89.628125 30.84765625 88.40625 C35.13482894 70.84691052 41.69656207 53.37350749 53 39 C57.46797338 40.39878802 61.63822079 42.13630772 65.875 44.125 C67.02742188 44.66382813 68.17984375 45.20265625 69.3671875 45.7578125 C70.23601562 46.16773438 71.10484375 46.57765625 72 47 C70.67235266 51.63511966 69.28140086 56.22210453 67.640625 60.7578125 C62.90845687 73.88756339 60.37723393 87.26947972 58 101 C58.65846924 101.1139209 59.31693848 101.2278418 59.99536133 101.34521484 C66.94355214 102.57427966 73.81425574 104.03281412 80.6875 105.625 C81.68716797 105.85445313 82.68683594 106.08390625 83.71679688 106.3203125 C86.14504958 106.87799733 88.57276246 107.43791641 91 108 C91.17789063 106.08574219 91.17789063 106.08574219 91.359375 104.1328125 C91.93947673 98.94232183 93.01827817 93.94560389 94.25 88.875 C94.46962402 87.96355225 94.68924805 87.05210449 94.91552734 86.11303711 C97.39227969 76.07293532 100.19705944 66.20332252 105 57 C105.74531982 57.12117188 106.49063965 57.24234375 107.25854492 57.3671875 C129.27433307 60.83713062 150.74061892 61.48646206 173 61 C173.24141182 75.4642822 173.15006588 89.67431421 171 104 C170.8870459 104.76634766 170.7740918 105.53269531 170.65771484 106.32226562 C166.54077874 132.84260904 156.41088317 159.08367233 142.90917969 182.21826172 C141.84849276 183.9635286 141.84849276 183.9635286 142 186 C143.05743408 186.53572632 143.05743408 186.53572632 144.13623047 187.08227539 C147.38651 188.73456737 150.63072864 190.39844396 153.875 192.0625 C154.98359375 192.62388672 156.0921875 193.18527344 157.234375 193.76367188 C164.22704991 197.36284278 170.69435651 201.29707806 177 206 C176.34 206.33 175.68 206.66 175 207 C173.29858398 206.38256836 173.29858398 206.38256836 171.24609375 205.33984375 C170.48240479 204.96102051 169.71871582 204.58219727 168.93188477 204.19189453 C168.10873779 203.77794434 167.28559082 203.36399414 166.4375 202.9375 C147.28368926 193.59071687 128.07193166 188.77824219 107 186 C106.25355225 185.90138672 105.50710449 185.80277344 104.73803711 185.70117188 C67.27272445 181.1245018 26.15340616 190.68429866 -8.16796875 205.76953125 C-11.47079168 207.20455087 -13.44327426 207.618561 -17 207 C-20.56719805 203.98769943 -22.79134449 201.87789961 -23.3125 197.1875 C-22.84670088 192.43634902 -20.26038165 190.26038165 -17 187 C-17.27674561 186.43192627 -17.55349121 185.86385254 -17.83862305 185.27856445 C-26.54274412 167.35767585 -33.59976418 150.61365159 -36.6875 130.8125 C-36.81914551 129.98097412 -36.95079102 129.14944824 -37.08642578 128.29272461 C-37.20614746 127.4806958 -37.32586914 126.66866699 -37.44921875 125.83203125 C-37.60910278 124.76045776 -37.60910278 124.76045776 -37.7722168 123.66723633 C-38.1032044 119.79152401 -38 115.88981989 -38 112 C-19.685 112.99 -19.685 112.99 -1 114 C-0.608125 117.568125 -0.21625 121.13625 0.1875 124.8125 C2.0667437 140.45619292 5.88344712 154.94795291 11.66796875 169.58203125 C12.88140176 172.69567901 13.97273326 175.82082854 15 179 C15.72703125 178.79503906 16.4540625 178.59007812 17.203125 178.37890625 C24.48420168 176.42795109 31.47612071 175.38686613 39 175 C38.68546875 174.2471875 38.3709375 173.494375 38.046875 172.71875 C30.80206647 154.73765894 27.40087061 136.4384202 28 117 C31.0000624 116.97278169 33.99987256 116.95305622 37 116.9375 C37.83917969 116.92912109 38.67835938 116.92074219 39.54296875 116.91210938 C44.79319339 116.89175967 49.80455662 117.23631793 55 118 C55.029729 119.1135083 55.029729 119.1135083 55.06005859 120.24951172 C55.55029398 137.88986016 56.46905534 155.41530666 58 173 C58.95777344 172.83757812 59.91554688 172.67515625 60.90234375 172.5078125 C65.45826451 171.85909523 69.96802801 171.85334499 74.5625 171.875 C75.7990332 171.86919922 75.7990332 171.86919922 77.06054688 171.86328125 C81.48700657 171.87035792 85.64286807 172.11021293 90 173 C89.85780029 172.46665039 89.71560059 171.93330078 89.5690918 171.38378906 C87.80670326 163.8957607 87.72764996 156.55633468 87.79418945 148.91552734 C87.81234966 146.76778079 87.81469893 144.62047145 87.81445312 142.47265625 C87.83772886 133.60650821 88.24201676 124.83761353 89 116 C88.15296509 115.89510254 88.15296509 115.89510254 87.28881836 115.78808594 C77.42274459 114.56453935 67.55726731 113.33764028 57.69921875 112.05078125 C43.9335905 110.25401772 30.16540042 108.53264968 16.375 106.9375 C6.38252692 105.78131159 -3.59429048 104.57722549 -13.54150391 103.07177734 C-18.16354799 102.37795435 -22.78233344 101.78958898 -27.4296875 101.2890625 C-29.0691333 101.10645874 -29.0691333 101.10645874 -30.74169922 100.92016602 C-32.85900818 100.68774749 -34.97784553 100.46872238 -37.09814453 100.26538086 C-42.51319326 99.66082343 -46.09533796 99.14618753 -50 95 C-52.26663874 91.97781502 -52.47146315 88.77684401 -52.39453125 85.03515625 C-51.68647817 81.38272403 -49.62465368 79.56216192 -47 77 C-44.59454362 75.79727181 -43.05003047 75.89928528 -40.375 75.9375 C-39.55773437 75.94652344 -38.74046875 75.95554687 -37.8984375 75.96484375 C-37.27195312 75.97644531 -36.64546875 75.98804688 -36 76 C-35.92523438 75.34257812 -35.85046875 74.68515625 -35.7734375 74.0078125 C-32.00296148 46.72730955 -18.02514489 20.49781005 0 0 Z " fill="#02B4CB" transform="translate(367,119)"/>
<path d="M0 0 C4.05703304 3.32409769 7.93584869 6.78203243 11.72167969 10.41064453 C12.60082031 11.22662109 13.47996094 12.04259766 14.38574219 12.88330078 C27.26168316 25.19705278 38.62043836 41.04691452 45.72167969 57.41064453 C45.39167969 58.07064453 45.06167969 58.73064453 44.72167969 59.41064453 C44.12742187 58.53923828 43.53316406 57.66783203 42.92089844 56.77001953 C37.09391295 48.35009092 30.81706798 40.78276403 23.72167969 33.41064453 C22.86896484 32.46318359 22.86896484 32.46318359 21.99902344 31.49658203 C10.00813816 18.55501276 -7.11249061 9.05018173 -23.27832031 2.41064453 C-23.60832031 2.74064453 -23.93832031 3.07064453 -24.27832031 3.41064453 C-23.73304688 4.18923828 -23.18777344 4.96783203 -22.62597656 5.77001953 C-10.77658067 23.16627964 -2.88124907 42.48446727 -0.27832031 63.41064453 C0.34212158 63.2236499 0.96256348 63.03665527 1.60180664 62.84399414 C4.41000537 62.00308543 7.22195522 61.17548519 10.03417969 60.34814453 C11.01064453 60.05359375 11.98710938 59.75904297 12.99316406 59.45556641 C13.93095703 59.18164062 14.86875 58.90771484 15.83496094 58.62548828 C17.131073 58.24058228 17.131073 58.24058228 18.45336914 57.84790039 C20.72167969 57.41064453 20.72167969 57.41064453 23.72167969 58.41064453 C-12.51565106 78.75549404 -55.11831114 79.49549441 -95.27832031 73.41064453 C-96.02210938 73.29849609 -96.76589844 73.18634766 -97.53222656 73.07080078 C-115.2786105 70.25777319 -132.19044576 64.27459698 -148.27832031 56.41064453 C-149.055625 56.03423828 -149.83292969 55.65783203 -150.63378906 55.27001953 C-171.36328957 45.12507638 -189.10250042 31.65464976 -205.46582031 15.47314453 C-206.11437988 14.83401123 -206.76293945 14.19487793 -207.43115234 13.53637695 C-208.03427246 12.92898682 -208.63739258 12.32159668 -209.25878906 11.69580078 C-210.06159302 10.88961304 -210.06159302 10.88961304 -210.88061523 10.06713867 C-213.92900741 6.45432803 -214.78071872 3.21145589 -214.66503906 -1.55810547 C-213.84322863 -5.87468552 -210.84691294 -8.4761607 -207.34082031 -10.96435547 C-204.4305992 -11.84624066 -202.31215318 -11.95341541 -199.27832031 -11.58935547 C-195.84461358 -9.63685556 -192.92377154 -7.52874573 -190.27832031 -4.58935547 C-187.56860296 -5.90048481 -185.01646677 -7.32908463 -182.47753906 -8.94482422 C-162.49919424 -21.51181162 -142.54292102 -29.35368088 -119.27832031 -33.58935547 C-117.66957031 -33.88519531 -117.66957031 -33.88519531 -116.02832031 -34.18701172 C-74.70112589 -38.62107529 -32.34691926 -26.01817419 0 0 Z " fill="#03B5CB" transform="translate(583.2783203125,97.58935546875)"/>
<path d="M0 0 C4.11556698 0.34599899 6.00886308 2.73545758 8.75 5.625 C11.60391203 8.61700455 14.46300536 11.43076703 17.60839844 14.11499023 C22.30916461 18.20906365 26.70181616 22.57546306 31.09375 26.99609375 C31.92588013 27.82963882 32.75801025 28.6631839 33.61535645 29.52198792 C36.24594935 32.15813262 38.87302441 34.79775105 41.5 37.4375 C43.29403855 39.23655979 45.08830715 41.0353902 46.8828125 42.83398438 C51.25787125 47.22000812 55.63005512 51.60888142 60 56 C60.04009511 44.3048513 60.01662186 32.62741254 59.625 20.9375 C59.57859375 19.10735352 59.57859375 19.10735352 59.53125 17.24023438 C59.49257813 16.07685547 59.45390625 14.91347656 59.4140625 13.71484375 C59.3826416 12.68480225 59.3512207 11.65476074 59.31884766 10.59350586 C59.16824874 7.76592762 59.16824874 7.76592762 57 5 C55.03638136 4.42251197 55.03638136 4.42251197 52.875 4.3125 C50.956875 4.1578125 50.956875 4.1578125 49 4 C49 3.01 49 2.02 49 1 C58.24 1 67.48 1 77 1 C77 1.99 77 2.98 77 4 C76.030625 4.12375 75.06125 4.2475 74.0625 4.375 C72.5465625 4.684375 72.5465625 4.684375 71 5 C69.56046375 7.87907251 69.78935472 10.43600435 69.70288086 13.65283203 C69.67340111 14.67739502 69.67340111 14.67739502 69.64332581 15.72265625 C69.57936587 17.98427593 69.52208531 20.24601362 69.46484375 22.5078125 C69.42184276 24.07438265 69.37842624 25.64094145 69.33460999 27.20748901 C69.22031865 31.33377834 69.11168615 35.46019817 69.00421143 39.58666992 C68.89357936 43.7961541 68.77762378 48.00549122 68.66210938 52.21484375 C68.43618093 60.47642753 68.21622745 68.73815666 68 77 C66.12597656 77.58398438 66.12597656 77.58398438 64 78 C61.984375 76.65625 61.984375 76.65625 59.75 74.5 C58.86957031 73.66597656 57.98914063 72.83195312 57.08203125 71.97265625 C56.59299316 71.49973145 56.10395508 71.02680664 55.60009766 70.53955078 C53.87803357 68.88264871 52.13509926 67.25019351 50.38671875 65.62109375 C46.97144182 62.43811062 43.56941411 59.24136132 40.17041016 56.04101562 C37.96447797 53.96659571 35.75419788 51.8968967 33.54296875 49.828125 C25.90120893 42.67090313 18.33888662 35.46916272 11 28 C9.66735622 26.66597747 8.3341143 25.33255191 7 24 C7.23511647 30.4967149 7.48477869 36.99275304 7.74462891 43.48852539 C7.83132723 45.69900795 7.91467754 47.90962445 7.99462891 50.12036133 C8.11003652 53.29549551 8.23742176 56.46995553 8.3671875 59.64453125 C8.40061249 60.63524124 8.43403748 61.62595123 8.46847534 62.64668274 C8.528311 64.02777473 8.528311 64.02777473 8.58935547 65.43676758 C8.63598831 66.65255241 8.63598831 66.65255241 8.68356323 67.89289856 C8.89225798 70.29878237 8.89225798 70.29878237 11 73 C14.56769552 73.73606499 14.56769552 73.73606499 18 74 C18 74.99 18 75.98 18 77 C12.59233876 77.09940554 7.18521772 77.17172051 1.77685547 77.21972656 C-0.06015293 77.23975373 -1.89709829 77.26698382 -3.73388672 77.30175781 C-6.38525002 77.35067065 -9.03576541 77.37305763 -11.6875 77.390625 C-12.49928711 77.41127014 -13.31107422 77.43191528 -14.14746094 77.45318604 C-21.02646541 77.45584984 -26.15729128 75.46681335 -31.36328125 70.94921875 C-35.81212111 65.78713803 -40.00204186 60.47051235 -44.0625 55 C-44.55210205 54.34088623 -45.0417041 53.68177246 -45.54614258 53.00268555 C-49 48.24814511 -49 48.24814511 -49 46 C-52.96 46 -56.92 46 -61 46 C-60.85970541 50.12525788 -60.71302689 54.25011392 -60.5625 58.375 C-60.52318359 59.550625 -60.48386719 60.72625 -60.44335938 61.9375 C-60.40146484 63.05898438 -60.35957031 64.18046875 -60.31640625 65.3359375 C-60.27974854 66.37282715 -60.24309082 67.4097168 -60.20532227 68.47802734 C-60.15835777 70.99425166 -60.15835777 70.99425166 -59 73 C-57.13507598 73.38995102 -57.13507598 73.38995102 -55 73.5 C-52.8125 73.65625 -52.8125 73.65625 -51 74 C-50.67 74.66 -50.34 75.32 -50 76 C-66.335 76.495 -66.335 76.495 -83 77 C-83 76.01 -83 75.02 -83 74 C-82.030625 73.87625 -81.06125 73.7525 -80.0625 73.625 C-78.5465625 73.315625 -78.5465625 73.315625 -77 73 C-75.59392244 70.18784488 -75.88049514 67.8595578 -75.88647461 64.71435547 C-75.88632858 64.07032776 -75.88618256 63.42630005 -75.8860321 62.76275635 C-75.8867296 60.63086598 -75.89451434 58.49906263 -75.90234375 56.3671875 C-75.90420851 54.89031014 -75.90563214 53.41343216 -75.90663147 51.93655396 C-75.91045208 48.04687801 -75.92027848 44.15723933 -75.93133545 40.26757812 C-75.94155936 36.29948429 -75.94613119 32.33138445 -75.95117188 28.36328125 C-75.96190115 20.57550384 -75.97897211 12.78775714 -76 5 C-80.455 4.01 -80.455 4.01 -85 3 C-85 2.34 -85 1.68 -85 1 C-79.44988284 0.95030887 -73.89989718 0.91414315 -68.34960938 0.89013672 C-66.46416974 0.88012153 -64.57874547 0.86650548 -62.69335938 0.84912109 C-59.97261751 0.82467468 -57.25208223 0.81347184 -54.53125 0.8046875 C-53.69758911 0.79436493 -52.86392822 0.78404236 -52.00500488 0.77340698 C-44.19846006 0.77193331 -36.22214993 1.89542069 -30 7 C-26.69194852 10.75914941 -25.14768263 13.96622159 -24.4375 18.9375 C-25.20086231 28.70853752 -31.01844675 34.68974994 -38 41 C-35.5693379 45.42014238 -32.55230755 49.03777617 -29.25 52.8125 C-28.71213867 53.4305249 -28.17427734 54.0485498 -27.62011719 54.68530273 C-26.55634494 55.90761488 -25.49159687 57.12907858 -24.42578125 58.34960938 C-23.24173815 59.72017981 -22.0858367 61.11500221 -20.9375 62.515625 C-17.267309 66.96743075 -13.37683657 70.69405772 -8 73 C-6.68 73 -5.36 73 -4 73 C-2.5615859 70.1231718 -2.79753003 67.57760531 -2.71875 64.36303711 C-2.70070313 63.68160141 -2.68265625 63.00016571 -2.6640625 62.29808044 C-2.62543903 60.81723669 -2.58899034 59.33633501 -2.55444336 57.85539055 C-2.49971313 55.51507692 -2.43912704 53.17498105 -2.37695312 50.83485413 C-2.22378019 45.02387663 -2.08071435 39.21265819 -1.9375 33.40142822 C-1.81612269 28.49074401 -1.69087134 23.58018937 -1.56030273 18.66974068 C-1.5004727 16.35810725 -1.44644366 14.0463829 -1.39257812 11.73460388 C-1.35575606 10.3255845 -1.31866171 8.91657221 -1.28125 7.50756836 C-1.25095703 6.2722789 -1.22066406 5.03698944 -1.18945312 3.76426697 C-1 1 -1 1 0 0 Z " fill="#2A2627" transform="translate(361,424)"/>
<path d="M0 0 C7.46596764 5.24781784 12.51466827 11.97994791 14.6953125 20.89453125 C15.99372916 30.59534534 13.05192803 38.91664796 7.5 46.81640625 C2.12881383 53.00140851 -4.99372951 56.51389225 -13.109375 57.23046875 C-27.21014439 57.54454382 -27.21014439 57.54454382 -33.3046875 52.89453125 C-33.98917969 52.39695313 -34.67367187 51.899375 -35.37890625 51.38671875 C-41.35032659 46.64048817 -45.89693188 40.52456671 -47.3046875 32.89453125 C-47.9770593 24.66073233 -47.6415547 18.02325671 -43.3046875 10.89453125 C-42.8921875 10.19585937 -42.4796875 9.4971875 -42.0546875 8.77734375 C-38.04835309 2.74507886 -32.30110569 -1.43999602 -25.40625 -3.73828125 C-16.18059055 -5.35019944 -8.1771325 -4.6555141 0 0 Z " fill="#02B5CB" transform="translate(556.3046875,4.10546875)"/>
<path d="M0 0 C7.57373744 4.83357626 13.44984208 11.63404848 15.96362305 20.31738281 C18.27172696 30.94821693 17.97109771 44.45002313 12.9921875 54.2109375 C9.11958657 59.91280722 5.0734486 62.66939349 -1.5625 64.5 C-9.68618177 65.37658298 -16.56354437 64.85368106 -23.5625 60.5 C-24.17609375 60.13390625 -24.7896875 59.7678125 -25.421875 59.390625 C-32.01614406 54.66375957 -36.13094018 45.70491982 -38.23828125 38.04296875 C-39.53412968 27.87914549 -39.54596665 17.69898925 -34.5625 8.5 C-32.3125 5.625 -32.3125 5.625 -29.5625 3.5 C-29.0675 3.03722656 -28.5725 2.57445312 -28.0625 2.09765625 C-21.0298301 -3.56929427 -8.11886877 -3.59941896 0 0 Z " fill="#FDFDFD" transform="translate(677.5625,431.5)"/>
<path d="M0 0 C1.22589844 -0.01224609 2.45179688 -0.02449219 3.71484375 -0.03710938 C4.88144531 -0.03904297 6.04804687 -0.04097656 7.25 -0.04296875 C8.30703125 -0.04707764 9.3640625 -0.05118652 10.453125 -0.05541992 C13 0.1875 13 0.1875 15 2.1875 C14.57332031 2.62835938 14.14664063 3.06921875 13.70703125 3.5234375 C-2.38208235 20.83996801 -13.7094272 41.60990072 -25 62.1875 C-31.89992268 60.85384251 -38.0812731 58.75389723 -44.5625 56.0625 C-45.47580078 55.68996094 -46.38910156 55.31742188 -47.33007812 54.93359375 C-49.55607072 54.02454966 -51.77919444 53.1091263 -54 52.1875 C-52.54150934 47.70429859 -50.051415 44.50483391 -47 41 C-46.50725586 40.42975098 -46.01451172 39.85950195 -45.50683594 39.27197266 C-38.70698914 31.47984545 -31.693453 24.47820823 -23.375 18.3125 C-22.7655957 17.85987793 -22.15619141 17.40725586 -21.52832031 16.94091797 C-17.21981089 13.83976355 -12.79558832 11.46355185 -8 9.1875 C-30.21795509 13.2271282 -51.70712645 28.06798464 -67 44.1875 C-72.03382098 42.5393456 -76.0260491 39.58101949 -80.3125 36.5625 C-81.05306641 36.046875 -81.79363281 35.53125 -82.55664062 35 C-84.37422697 33.73355274 -86.18850838 32.46264241 -88 31.1875 C-73.97858718 16.36115422 -51.91041341 7.72354324 -32.4375 3 C-31.75300781 2.83274414 -31.06851563 2.66548828 -30.36328125 2.49316406 C-20.31331843 0.17651389 -10.27839445 0.0055439 0 0 Z " fill="#FAFDFD" transform="translate(508,89.8125)"/>
<path d="M0 0 C2.08529527 1.93293129 3.81783498 3.77182494 5.625 5.9375 C27.30069586 30.55487362 61.11364757 47.90498572 94 50 C99.47989523 50.20950445 104.95391541 50.29312559 110.4375 50.3125 C111.11986725 50.31635712 111.8022345 50.32021423 112.50527954 50.32418823 C125.39957934 50.36009901 136.82390671 48.56949208 149.06640625 44.70703125 C152 44 152 44 155 45 C138.56477775 52.05819569 122.73228295 57.39926517 105 60 C103.71802734 60.19916016 103.71802734 60.19916016 102.41015625 60.40234375 C62.25062519 65.55462102 21.46954288 53.1702552 -10.3125 28.625 C-17.41771435 22.98580999 -23.73681307 16.54409399 -30 10 C-27.17342721 7.69480624 -24.64328849 6.33425512 -21.19140625 5.17578125 C-20.27939453 4.86962891 -19.36738281 4.56347656 -18.42773438 4.24804688 C-17.48220703 3.93931641 -16.53667969 3.63058594 -15.5625 3.3125 C-14.62083984 2.99216797 -13.67917969 2.67183594 -12.70898438 2.34179688 C-11.79568359 2.03951172 -10.88238281 1.73722656 -9.94140625 1.42578125 C-8.69919312 1.01453003 -8.69919312 1.01453003 -7.43188477 0.5949707 C-4.80080042 -0.048735 -2.69633761 -0.28209383 0 0 Z " fill="#05B6CB" transform="translate(399,322)"/>
<path d="M0 0 C6.4925797 5.27390778 11.10932831 12.66328583 12.4140625 20.9609375 C13.21671637 33.82971588 12.53172241 44.78008363 4.04296875 55.18359375 C-0.84232187 60.51406672 -5.94126017 64.12939887 -12.5859375 66.9609375 C-13.5140625 67.41146484 -13.5140625 67.41146484 -14.4609375 67.87109375 C-24.32552167 72.01344843 -38.12136434 71.28596611 -48.1328125 68 C-59.50931195 63.18129163 -66.83424703 56.80931622 -71.640625 45.4140625 C-74.91286715 36.9224589 -75.58010928 24.28825244 -71.9609375 15.7734375 C-70.84765625 13.8046875 -70.84765625 13.8046875 -69.5859375 11.9609375 C-69.13863281 11.27 -68.69132813 10.5790625 -68.23046875 9.8671875 C-61.63321828 0.38695626 -53.45503797 -4.64485711 -42.28515625 -7.66015625 C-27.45780023 -9.74156513 -12.57483098 -8.58857332 0 0 Z M-53.2265625 5.89453125 C-59.6041179 15.29592757 -59.86618317 26.9459541 -58.12109375 37.87109375 C-55.37863267 48.11069695 -49.8050804 56.55237366 -40.5859375 61.9609375 C-33.62312225 64.78574315 -24.78234077 65.57604235 -17.6484375 62.7734375 C-10.38542826 58.47492183 -6.32431821 54.43203823 -3.99755859 46.05615234 C-3.13807015 41.68122364 -3.06743192 37.28272954 -3.0234375 32.8359375 C-3.00877441 31.91820557 -2.99411133 31.00047363 -2.97900391 30.05493164 C-3.13889534 19.29693497 -6.95400218 11.40336652 -14.5859375 3.9609375 C-21.48626382 -2.28221488 -28.3841337 -2.73013109 -37.33203125 -2.4765625 C-44.06087653 -2.00175975 -48.88548163 0.77825737 -53.2265625 5.89453125 Z " fill="#282425" transform="translate(697.5859375,432.0390625)"/>
<path d="M0 0 C4.69395839 0.67248338 7.1260547 3.83278598 10.25 7.125 C13.61811967 10.63109084 16.98902327 14.03977314 20.69042969 17.19702148 C25.13205511 21.06036799 29.29118126 25.16397845 33.4375 29.33984375 C34.20304199 30.10680069 34.96858398 30.87375763 35.75732422 31.66395569 C38.17393197 34.08610881 40.58701726 36.51173612 43 38.9375 C44.64950686 40.59202893 46.29924429 42.24632802 47.94921875 43.90039062 C51.96881371 47.93094202 55.98553169 51.96434272 60 56 C60.04419135 44.67964951 59.97053323 33.37871328 59.625 22.0625 C59.60179687 21.06875366 59.60179687 21.06875366 59.578125 20.05493164 C59.53269341 18.11060152 59.47360153 16.16660551 59.4140625 14.22265625 C59.3826416 13.09609619 59.3512207 11.96953613 59.31884766 10.80883789 C59.19356564 7.7949268 59.19356564 7.7949268 57 5 C55.03638136 4.42251197 55.03638136 4.42251197 52.875 4.3125 C50.956875 4.1578125 50.956875 4.1578125 49 4 C49.33 3.01 49.66 2.02 50 1 C58.91 1 67.82 1 77 1 C77 1.99 77 2.98 77 4 C76.030625 4.12375 75.06125 4.2475 74.0625 4.375 C73.051875 4.58125 72.04125 4.7875 71 5 C69.56046375 7.87907251 69.78935472 10.43600435 69.70288086 13.65283203 C69.67340111 14.67739502 69.67340111 14.67739502 69.64332581 15.72265625 C69.57936587 17.98427593 69.52208531 20.24601362 69.46484375 22.5078125 C69.42184276 24.07438265 69.37842624 25.64094145 69.33460999 27.20748901 C69.22031865 31.33377834 69.11168615 35.46019817 69.00421143 39.58666992 C68.89357936 43.7961541 68.77762378 48.00549122 68.66210938 52.21484375 C68.43618093 60.47642753 68.21622745 68.73815666 68 77 C66.12817383 77.58618164 66.12817383 77.58618164 64 78 C61.94921875 76.62109375 61.94921875 76.62109375 59.6875 74.4375 C58.80578125 73.6021875 57.9240625 72.766875 57.015625 71.90625 C56.53287109 71.43960938 56.05011719 70.97296875 55.55273438 70.4921875 C53.32960141 68.35574274 51.06449933 66.26559206 48.80322266 64.16967773 C46.21496822 61.76668569 43.63944624 59.35022877 41.06347656 56.93408203 C38.93790604 54.94179977 36.80887348 52.95326104 34.6796875 50.96484375 C26.29759156 43.12271312 18.055618 35.17767282 10 27 C9.00066763 25.99933281 8.00081114 24.9991882 7 24 C7.2353946 30.33598996 7.48505128 36.67130266 7.74462891 43.00634766 C7.83124992 45.16149146 7.91460576 47.31676909 7.99462891 49.47216797 C8.11022382 52.5703972 8.23755515 55.66795529 8.3671875 58.765625 C8.40061249 59.72929993 8.43403748 60.69297485 8.46847534 61.68585205 C8.50836578 62.58648376 8.54825623 63.48711548 8.58935547 64.41503906 C8.62044403 65.20557678 8.65153259 65.9961145 8.68356323 66.81060791 C9.04285472 69.29650724 9.58234556 70.92195514 11 73 C14.56206661 73.81870185 14.56206661 73.81870185 18 74 C18 74.99 18 75.98 18 77 C8.43 77 -1.14 77 -11 77 C-11 76.01 -11 75.02 -11 74 C-9.865625 73.87625 -8.73125 73.7525 -7.5625 73.625 C-5.7990625 73.315625 -5.7990625 73.315625 -4 73 C2.28081294 60.43837413 -1.64134637 36.54880239 -1.44775391 22.78564453 C-1.39631998 19.22160374 -1.33907375 15.65769193 -1.28125 12.09375 C-1.26767456 10.99293091 -1.25409912 9.89211182 -1.2401123 8.75793457 C-1.22339478 7.75178101 -1.20667725 6.74562744 -1.18945312 5.70898438 C-1.17692505 4.82094116 -1.16439697 3.93289795 -1.15148926 3.01794434 C-1 1 -1 1 0 0 Z " fill="#2A2627" transform="translate(723,424)"/>
<path d="M0 0 C3.75256834 0.41616449 5.47885085 2.13794451 8.046875 4.7890625 C8.81 5.56636719 9.573125 6.34367187 10.359375 7.14453125 C11.14828125 7.96308594 11.9371875 8.78164063 12.75 9.625 C14.30476422 11.22381587 15.86203457 12.82019871 17.421875 14.4140625 C18.45199707 15.48068115 18.45199707 15.48068115 19.50292969 16.56884766 C21.56208163 18.57364186 23.65447215 20.45628524 25.82714844 22.33374023 C29.83610763 25.81300287 33.60722113 29.47820276 37.34375 33.24609375 C37.99831177 33.90207047 38.65287354 34.55804718 39.32727051 35.23390198 C41.38723823 37.29940145 43.44367366 39.36837595 45.5 41.4375 C46.9086205 42.85114434 48.31747267 44.26455786 49.7265625 45.67773438 C53.15372133 49.11583149 56.57772019 52.55704656 60 56 C60.04942248 45.97272748 59.95860004 35.9576886 59.68261719 25.93408203 C59.64364169 24.45664649 59.60892898 22.97909334 59.578125 21.50146484 C59.53265307 19.32875907 59.4747997 17.15670106 59.4140625 14.984375 C59.3826416 13.71303711 59.3512207 12.44169922 59.31884766 11.13183594 C59.23017029 7.83871757 59.23017029 7.83871757 57 5 C55.04614933 4.21011855 55.04614933 4.21011855 52.875 3.8125 C51.59625 3.544375 50.3175 3.27625 49 3 C49 2.34 49 1.68 49 1 C58.24 1 67.48 1 77 1 C77 1.99 77 2.98 77 4 C76.030625 4.12375 75.06125 4.2475 74.0625 4.375 C73.051875 4.58125 72.04125 4.7875 71 5 C69.27247794 8.45504412 69.64210849 12.44058601 69.5 16.25 C69.46011963 17.24966797 69.42023926 18.24933594 69.37915039 19.27929688 C68.6691758 38.51088934 68.38025764 57.7596968 68 77 C66.1174469 77.57435608 66.1174469 77.57435608 64 78 C62.12084961 76.81030273 62.12084961 76.81030273 60.21484375 74.99609375 C59.5172998 74.34495605 58.81975586 73.69381836 58.10107422 73.02294922 C57.40771973 72.35537598 56.71436523 71.68780273 56 71 C54.77285488 69.86510698 53.54501352 68.73096622 52.31640625 67.59765625 C51.06370885 66.42075425 49.81245621 65.24231294 48.5625 64.0625 C47.158859 62.74088028 45.755213 61.41926588 44.3515625 60.09765625 C43.63516602 59.42234863 42.91876953 58.74704102 42.18066406 58.05126953 C40.02913588 56.02740704 37.87105124 54.01078678 35.7109375 51.99609375 C26.27906102 43.18476376 17.06722363 34.18600822 8 25 C7.97484607 29.15852493 7.95693103 33.31700684 7.94506836 37.47558594 C7.94011102 38.88347141 7.93334314 40.29135194 7.92456055 41.69921875 C6.8307053 58.10719264 6.8307053 58.10719264 11 73 C14.56769552 73.73606499 14.56769552 73.73606499 18 74 C18 74.99 18 75.98 18 77 C8.43 77 -1.14 77 -11 77 C-11 76.01 -11 75.02 -11 74 C-9.2984375 73.7834375 -9.2984375 73.7834375 -7.5625 73.5625 C-4.19222799 73.38828522 -4.19222799 73.38828522 -3 72 C-2.85147936 69.79793274 -2.77196299 67.59119418 -2.71875 65.38476562 C-2.70070313 64.69372238 -2.68265625 64.00267914 -2.6640625 63.29069519 C-2.62537856 61.78582528 -2.58893877 60.28089643 -2.55444336 58.77592468 C-2.4998078 56.39788428 -2.43919796 54.02006449 -2.37695312 51.64221191 C-2.2459104 46.59493643 -2.12243008 41.54749079 -2 36.5 C-1.8581892 30.65348962 -1.71333893 24.80708947 -1.56030273 18.96086121 C-1.50045368 16.61155859 -1.44642973 14.26216639 -1.39257812 11.91271973 C-1.35575445 10.48021724 -1.31865999 9.04772167 -1.28125 7.61523438 C-1.23581055 5.73112854 -1.23581055 5.73112854 -1.18945312 3.80895996 C-1 1 -1 1 0 0 Z " fill="#2A2627" transform="translate(52,424)"/>
<path d="M0 0 C4.2517529 0.2920226 6.57225991 3.20615136 9.359375 6.1015625 C9.8674469 6.61625092 10.3755188 7.13093933 10.89898682 7.66122437 C12.52325614 9.30885933 14.13706692 10.96627234 15.75 12.625 C17.86591009 14.78768824 19.98616802 16.94603848 22.109375 19.1015625 C22.62709473 19.62791794 23.14481445 20.15427338 23.67822266 20.69657898 C26.94872805 24.00049762 30.32664971 27.08552023 33.86425781 30.09570312 C38.96001614 34.63924622 43.69268386 39.5923141 48.5 44.4375 C49.61955632 45.5620833 50.73934629 46.68643405 51.859375 47.81054688 C54.57561534 50.53769344 57.28868292 53.26795907 60 56 C60.11340916 43.74657673 60.0593313 31.49892933 59.6875 19.25 C59.66502197 18.17371338 59.64254395 17.09742676 59.61938477 15.98852539 C59.58385498 14.98684326 59.5483252 13.98516113 59.51171875 12.953125 C59.48553467 12.06786133 59.45935059 11.18259766 59.43237305 10.27050781 C58.91029633 7.52894179 58.24295579 6.62877859 56 5 C52.38976901 4.26958147 52.38976901 4.26958147 49 4 C49 3.34 49 2.68 49 2 C58.57 2 68.14 2 78 2 C78 2.66 78 3.32 78 4 C76.865625 4.309375 75.73125 4.61875 74.5625 4.9375 C71.21224901 5.62924531 71.21224901 5.62924531 70 7 C69.84627368 9.17659584 69.76141125 11.35807409 69.70288086 13.53930664 C69.67340111 14.56365059 69.67340111 14.56365059 69.64332581 15.60868835 C69.57923193 17.87574291 69.52202506 20.14291766 69.46484375 22.41015625 C69.42185469 23.97815596 69.37843824 25.54614401 69.33460999 27.11412048 C69.22019659 31.2486418 69.11161292 35.38329676 69.00421143 39.51800537 C68.89367397 43.73410416 68.77766682 47.95005197 68.66210938 52.16601562 C68.43602956 60.44387194 68.21610352 68.72187727 68 77 C66.10522461 77.56323242 66.10522461 77.56323242 64 78 C62.31640625 76.98828125 62.31640625 76.98828125 60.5625 75.3125 C59.87414062 74.66925781 59.18578125 74.02601563 58.4765625 73.36328125 C57.25066406 72.19345703 57.25066406 72.19345703 56 71 C54.94748914 70.0327823 53.89265192 69.06809216 52.8359375 68.10546875 C47.68102453 63.40166668 42.5900418 58.66531679 37.70874023 53.67602539 C36.01684113 52.0165187 34.26337205 50.48664424 32.45703125 48.953125 C27.22573909 44.40253109 22.37744833 39.48602887 17.5 34.5625 C16.5821875 33.64017578 15.664375 32.71785156 14.71875 31.76757812 C12.47684945 29.51400101 10.237334 27.25810925 8 25 C7.89879017 36.92563157 7.87937494 48.83450659 8.4375 60.75 C8.47673584 61.62358154 8.51597168 62.49716309 8.55639648 63.3972168 C8.74654415 67.07790624 9.01664949 70.43454204 10 74 C12.31 74 14.62 74 17 74 C17.33 74.99 17.66 75.98 18 77 C8.43 77 -1.14 77 -11 77 C-11 76.34 -11 75.68 -11 75 C-9.865625 74.690625 -8.73125 74.38125 -7.5625 74.0625 C-4.21224901 73.37075469 -4.21224901 73.37075469 -3 72 C-2.76966872 68.76576491 -2.61435659 65.55191028 -2.5 62.3125 C-2.45939453 61.260625 -2.41878906 60.20875 -2.37695312 59.125 C-2.09048075 51.13021719 -1.9099606 43.13486576 -1.75 35.13671875 C-1.72901245 34.10106277 -1.7080249 33.0654068 -1.68640137 31.99836731 C-1.58062207 26.72598754 -1.48176719 21.4535949 -1.39257812 16.1809082 C-1.3555837 14.2143533 -1.31847918 12.24780047 -1.28125 10.28125 C-1.26771484 9.35942429 -1.25417969 8.43759857 -1.24023438 7.48783875 C-1.11320819 1.11320819 -1.11320819 1.11320819 0 0 Z " fill="#282425" transform="translate(221,544)"/>
<path d="M0 0 C0.99 0 1.98 0 3 0 C10.45143117 15.93056295 17.51850199 32.00667435 24.42773438 48.1784668 C29.42855742 62.32478909 29.42855742 62.32478909 38 74 C41.61023099 74.73041853 41.61023099 74.73041853 45 75 C45 75.99 45 76.98 45 78 C36.09 78 27.18 78 18 78 C18 77.01 18 76.02 18 75 C17.42519234 69.97952803 15.86534139 65.74262697 13.9375 61.125 C12.968125 58.77375 11.99875 56.4225 11 54 C2.42 54 -6.16 54 -15 54 C-15.99 56.18625 -16.98 58.3725 -18 60.625 C-18.31324219 61.30127441 -18.62648438 61.97754883 -18.94921875 62.67431641 C-20.68669425 66.62155738 -21.31701783 69.70705025 -21 74 C-19.02 74.33 -17.04 74.66 -15 75 C-15 75.66 -15 76.32 -15 77 C-23.91 77 -32.82 77 -42 77 C-42 76.34 -42 75.68 -42 75 C-40.14157471 74.71648682 -40.14157471 74.71648682 -38.24560547 74.42724609 C-34.66251249 73.51701178 -34.12975386 73.17435227 -31.78955078 70.02978516 C-31.18636747 68.755025 -30.61507072 67.46486303 -30.0703125 66.1640625 C-29.74773468 65.45996246 -29.42515686 64.75586243 -29.09280396 64.03042603 C-28.0333169 61.69865559 -27.01704744 59.35055434 -26 57 C-25.26253752 55.35534617 -24.52258375 53.71180741 -23.78027344 52.06933594 C-21.43671719 46.85589344 -19.1537593 41.6170092 -16.875 36.375 C-16.09542646 34.59098219 -15.31547981 32.80712738 -14.53515625 31.0234375 C-10.31061052 21.37238538 -10.31061052 21.37238538 -6.18066406 11.68066406 C-5.90578156 11.02804596 -5.63089905 10.37542786 -5.34768677 9.70303345 C-4.62605986 7.98433588 -3.91066728 6.26302434 -3.19580078 4.54150391 C-2 2 -2 2 0 0 Z " fill="#2A2627" transform="translate(837,423)"/>
<path d="M0 0 C0.99 0 1.98 0 3 0 C7.43437511 9.20276809 11.6682881 18.43441563 15.49658203 27.90649414 C17.63518934 33.17763229 19.97022081 38.32952694 22.40234375 43.47265625 C23.64469669 46.21555284 24.81224662 48.95656748 25.94140625 51.74609375 C26.28244385 52.58285645 26.62348145 53.41961914 26.97485352 54.28173828 C27.6376723 55.91802777 28.29117161 57.55813696 28.93334961 59.20263672 C31.14145291 64.63558987 33.77312799 69.84302115 38 74 C40.52562735 74.93999874 42.25917308 75 45 75 C45 75.99 45 76.98 45 78 C36.09 78 27.18 78 18 78 C18 77.01 18 76.02 18 75 C17.48668496 69.6394315 16.14010294 65.39422317 13.9375 60.5625 C12.968125 58.396875 11.99875 56.23125 11 54 C2.42 54 -6.16 54 -15 54 C-15.99 56.371875 -16.98 58.74375 -18 61.1875 C-18.31324219 61.92508545 -18.62648438 62.6626709 -18.94921875 63.42260742 C-20.44461726 67.08445462 -21.36922295 70.03854547 -21 74 C-19.02 74.33 -17.04 74.66 -15 75 C-15 75.66 -15 76.32 -15 77 C-23.91 77 -32.82 77 -42 77 C-42 76.34 -42 75.68 -42 75 C-40.76040527 74.80962158 -39.52081055 74.61924316 -38.24365234 74.4230957 C-34.68466361 73.5182523 -34.13505755 73.18063308 -31.80712891 70.06713867 C-31.20850582 68.80205868 -30.64184896 67.52154099 -30.1015625 66.23046875 C-29.77991119 65.52842819 -29.45825989 64.82638763 -29.12686157 64.10307312 C-28.05616394 61.7470758 -27.02885745 59.37453451 -26 57 C-25.23138703 55.28742933 -24.4601586 53.57603047 -23.68652344 51.86572266 C-21.21029922 46.3649143 -18.79016692 40.84032563 -16.375 35.3125 C-14.73876771 31.57864103 -13.10043505 27.84570756 -11.4609375 24.11328125 C-11.07266785 23.22931671 -10.68439819 22.34535217 -10.28436279 21.43460083 C-1.52086599 1.52086599 -1.52086599 1.52086599 0 0 Z " fill="#292627" transform="translate(475,423)"/>
<path d="M0 0 C10.89 0 21.78 0 33 0 C33 0.66 33 1.32 33 2 C30.69 2.66 28.38 3.32 26 4 C25.92357122 10.81348437 25.87124177 17.62685705 25.83520508 24.44067383 C25.82017271 26.75582002 25.7997413 29.070938 25.77368164 31.38598633 C25.73705404 34.72484324 25.72021759 38.0633217 25.70703125 41.40234375 C25.69154739 42.42770737 25.67606354 43.45307098 25.66011047 44.50950623 C25.6584883 51.5276989 26.22707778 58.44860078 30.68359375 64.15625 C31.55177734 64.82140625 31.55177734 64.82140625 32.4375 65.5 C33.01371094 65.9640625 33.58992187 66.428125 34.18359375 66.90625 C39.19132482 69.92165796 45.35919217 69.53907997 51 69 C56.07500874 67.65862564 59.0710019 65.37733043 61.9375 61 C64.34350742 56.82414983 65.12461598 53.1713858 65.12939453 48.37084961 C65.13412277 47.00439552 65.13412277 47.00439552 65.13894653 45.6103363 C65.1369223 44.63419876 65.13489807 43.65806122 65.1328125 42.65234375 C65.13424759 41.13997887 65.13424759 41.13997887 65.13571167 39.59706116 C65.13639157 37.46794573 65.13455055 35.33882823 65.13037109 33.2097168 C65.12501462 29.94640464 65.13032541 26.68322978 65.13671875 23.41992188 C65.13605804 21.3515622 65.13477704 19.2832026 65.1328125 17.21484375 C65.13584885 15.74760109 65.13584885 15.74760109 65.13894653 14.25071716 C65.13579437 13.34289993 65.13264221 12.4350827 65.12939453 11.49975586 C65.12859894 10.70129745 65.12780334 9.90283905 65.12698364 9.08018494 C65.07772601 6.80345135 65.07772601 6.80345135 64 4 C62.12612784 3.19787372 62.12612784 3.19787372 59.9375 2.8125 C59.20402344 2.65394531 58.47054687 2.49539063 57.71484375 2.33203125 C57.14894531 2.22246094 56.58304688 2.11289062 56 2 C56 1.34 56 0.68 56 0 C65.57 0 75.14 0 85 0 C85 0.66 85 1.32 85 2 C83.865625 2.144375 82.73125 2.28875 81.5625 2.4375 C78.19222799 2.61171478 78.19222799 2.61171478 77 4 C76.89871958 5.34304541 76.86433683 6.6912413 76.8581543 8.03808594 C76.85111984 8.89698425 76.84408539 9.75588257 76.83683777 10.64080811 C76.83059135 12.04837372 76.83059135 12.04837372 76.82421875 13.484375 C76.80098563 15.47266643 76.77686697 17.46094767 76.75195312 19.44921875 C76.71709823 22.58225971 76.68765198 25.71493498 76.67407227 28.84814453 C76.5249345 57.62485092 76.5249345 57.62485092 68.4765625 67.57421875 C61.2748727 74.52823139 52.79129982 76.34851949 43.0625 76.25 C42.30259766 76.25773438 41.54269531 76.26546875 40.75976562 76.2734375 C31.64433992 76.24230026 23.91679886 74.20399897 17 68 C10.78887673 59.70845195 9.71322393 51.1542812 9.69140625 41.10546875 C9.66627394 38.99543962 9.64087557 36.88541364 9.61523438 34.77539062 C9.58636185 31.4659082 9.56232544 28.15648006 9.54370117 24.84692383 C9.52215746 21.64117256 9.48276114 18.4360164 9.44140625 15.23046875 C9.44129044 14.23468307 9.44117462 13.2388974 9.4410553 12.2129364 C9.42771652 11.29470596 9.41437775 10.37647552 9.40063477 9.43041992 C9.39556412 8.62102463 9.39049347 7.81162933 9.38526917 6.97770691 C9.25813034 6.32506363 9.13099152 5.67242035 9 5 C5.81237635 2.87491756 3.73487777 2.4979837 0 2 C0 1.34 0 0.68 0 0 Z " fill="#272324" transform="translate(551,546)"/>
<path d="M0 0 C10.56 0 21.12 0 32 0 C32 0.66 32 1.32 32 2 C30.865625 2.28875 29.73125 2.5775 28.5625 2.875 C27.386875 3.24625 26.21125 3.6175 25 4 C23.60154753 6.79690493 23.86502689 9.10914826 23.85473633 12.23803711 C23.84835648 13.5495726 23.84197662 14.86110809 23.83540344 16.21238708 C23.83387484 17.6507056 23.83276084 19.08902461 23.83203125 20.52734375 C23.82881914 21.99703504 23.8254551 23.46672601 23.82194519 24.93641663 C23.81595255 28.01906068 23.81410544 31.1016767 23.81469727 34.18432617 C23.81479891 38.13670346 23.8011447 42.08890121 23.78392506 46.04123592 C23.77281326 49.07724333 23.7707778 52.11320721 23.77130699 55.14923286 C23.77012571 56.60649802 23.76569565 58.06376426 23.75797462 59.52100945 C23.74819154 61.55817228 23.75231267 63.59538761 23.75708008 65.63256836 C23.75565506 66.79235703 23.75423004 67.95214569 23.75276184 69.14707947 C23.78714141 72.20156957 23.78714141 72.20156957 26 75 C27.96361864 75.57748803 27.96361864 75.57748803 30.125 75.6875 C31.40375 75.790625 32.6825 75.89375 34 76 C34 76.99 34 77.98 34 79 C29.31860746 79.02465288 24.63725241 79.04283739 19.95581055 79.05493164 C18.36205386 79.05997157 16.76830181 79.0668035 15.17456055 79.07543945 C12.88849747 79.08751999 10.60249533 79.09323155 8.31640625 79.09765625 C7.59973282 79.10281754 6.88305939 79.10797882 6.14466858 79.11329651 C4.42936328 79.11349263 2.71418734 79.06192007 1 79 C-0.69668207 77.30331793 -0.11968993 75.18867982 -0.12442017 72.92559814 C-0.12082489 72.19983582 -0.11722961 71.47407349 -0.11352539 70.72631836 C-0.11367142 69.96539383 -0.11381744 69.2044693 -0.1139679 68.42048645 C-0.11326862 65.89357702 -0.10547555 63.36674038 -0.09765625 60.83984375 C-0.09579212 59.0924941 -0.0943682 57.34514393 -0.09336853 55.59779358 C-0.08954293 50.98968066 -0.07971229 46.38159905 -0.06866455 41.77349854 C-0.05845134 37.07491479 -0.0538711 32.37632601 -0.04882812 27.67773438 C-0.03809005 18.45180692 -0.02049292 9.22591096 0 0 Z " fill="#282425" transform="translate(0,422)"/>
<path d="M0 0 C-0.33 4.95 -0.66 9.9 -1 15 C-1.66 15 -2.32 15 -3 15 C-3.268125 14.21625 -3.53625 13.4325 -3.8125 12.625 C-4.84814432 9.71885077 -4.84814432 9.71885077 -8 8 C-10.51502177 7.63303819 -10.51502177 7.63303819 -13.32421875 7.5859375 C-14.25065186 7.55032715 -15.17708496 7.5147168 -16.1315918 7.47802734 C-17.3050415 7.44402832 -18.47849121 7.4100293 -19.6875 7.375 C-25.2871875 7.189375 -25.2871875 7.189375 -31 7 C-31 15.58 -31 24.16 -31 33 C-26.978125 32.87625 -22.95625 32.7525 -18.8125 32.625 C-17.55284424 32.59100098 -16.29318848 32.55700195 -14.99536133 32.52197266 C-13.9927124 32.4863623 -12.99006348 32.45075195 -11.95703125 32.4140625 C-10.93585205 32.3826416 -9.91467285 32.3512207 -8.86254883 32.31884766 C-5.55369674 32.07892563 -5.55369674 32.07892563 -1 30 C-1.33 35.28 -1.66 40.56 -2 46 C-2.99 46.33 -3.98 46.66 -5 47 C-5.309375 46.030625 -5.61875 45.06125 -5.9375 44.0625 C-6.69523342 41.15934208 -6.69523342 41.15934208 -8 40 C-9.70563778 39.84259395 -11.41727244 39.74906608 -13.12890625 39.68359375 C-14.68061523 39.62075195 -14.68061523 39.62075195 -16.26367188 39.55664062 C-17.35228516 39.51732422 -18.44089844 39.47800781 -19.5625 39.4375 C-20.65498047 39.39431641 -21.74746094 39.35113281 -22.87304688 39.30664062 C-25.58189564 39.20017932 -28.29083992 39.09816484 -31 39 C-30.91912143 43.08414438 -30.80627597 47.16679586 -30.6875 51.25 C-30.66494141 52.40886719 -30.64238281 53.56773437 -30.61914062 54.76171875 C-30.5659668 56.43427734 -30.5659668 56.43427734 -30.51171875 58.140625 C-30.48553467 59.16704102 -30.45935059 60.19345703 -30.43237305 61.25097656 C-29.94229439 64.36689166 -29.18929609 65.75678672 -27 68 C-22.97810055 69.34063315 -19.27337478 69.18417125 -15.0625 69.1875 C-14.25103516 69.19974609 -13.43957031 69.21199219 -12.60351562 69.22460938 C-11.81783203 69.22654297 -11.03214844 69.22847656 -10.22265625 69.23046875 C-9.50859619 69.23457764 -8.79453613 69.23868652 -8.05883789 69.24291992 C-5.6543285 68.95921462 -4.06266358 68.25202198 -2 67 C-0.89506665 65.30049572 -0.89506665 65.30049572 -0.25 63.375 C0.1625 62.26125 0.575 61.1475 1 60 C1.66 60 2.32 60 3 60 C3.21663944 65.41598598 3.16169806 69.91365163 1 75 C0 76 0 76 -2.17030334 76.12025452 C-3.12738693 76.11803391 -4.08447052 76.11581329 -5.07055664 76.11352539 C-6.15160172 76.11344986 -7.23264679 76.11337433 -8.34645081 76.11329651 C-10.110485 76.10555458 -10.110485 76.10555458 -11.91015625 76.09765625 C-13.10732773 76.0962413 -14.30449921 76.09482635 -15.53794861 76.09336853 C-19.37949066 76.08774979 -23.22097543 76.07519411 -27.0625 76.0625 C-29.65950437 76.05748741 -32.25650965 76.05292409 -34.85351562 76.04882812 C-41.23569679 76.03777427 -47.6178443 76.02101792 -54 76 C-53.67 75.01 -53.34 74.02 -53 73 C-51.02 73 -49.04 73 -47 73 C-46.10791994 69.18338418 -45.8784999 65.65654759 -45.88647461 61.7409668 C-45.88655014 60.50005783 -45.88662567 59.25914886 -45.88670349 57.9806366 C-45.89180928 56.63683023 -45.89702526 55.29302429 -45.90234375 53.94921875 C-45.90421035 52.56631013 -45.90563311 51.18340085 -45.90663147 49.80049133 C-45.91043763 46.17225294 -45.92025157 42.544055 -45.93133545 38.91583252 C-45.94159055 35.20886787 -45.94613785 31.50189664 -45.95117188 27.79492188 C-45.96187565 20.52992954 -45.9789291 13.26497045 -46 6 C-50.95 4.02 -50.95 4.02 -56 2 C-56 1.67 -56 1.34 -56 1 C-48.66765367 0.85704418 -41.33529584 0.71468936 -34.00292969 0.57275391 C-31.50813533 0.52439008 -29.01334364 0.47588828 -26.51855469 0.42724609 C-22.93425172 0.35738498 -19.34993946 0.2880188 -15.765625 0.21875 C-14.64883362 0.19687622 -13.53204224 0.17500244 -12.38140869 0.15246582 C-11.34063171 0.13244507 -10.29985474 0.11242432 -9.22753906 0.09179688 C-7.85520111 0.06514954 -7.85520111 0.06514954 -6.45513916 0.03796387 C-4.3036461 0.00469529 -2.15175027 0 0 0 Z " fill="#262223" transform="translate(769,545)"/>
<path d="M0 0 C17.16 0 34.32 0 52 0 C51.67 4.95 51.34 9.9 51 15 C50.01 15 49.02 15 48 15 C47.690625 14.030625 47.38125 13.06125 47.0625 12.0625 C46.30476658 9.15934208 46.30476658 9.15934208 45 8 C43.44246949 7.77329092 41.87622641 7.60564908 40.30859375 7.46484375 C39.03326782 7.34677368 39.03326782 7.34677368 37.73217773 7.22631836 C36.64493408 7.1310083 35.55769043 7.03569824 34.4375 6.9375 C30.993125 6.628125 27.54875 6.31875 24 6 C24 14.58 24 23.16 24 32 C27.733125 31.855625 31.46625 31.71125 35.3125 31.5625 C36.48594971 31.51939697 37.65939941 31.47629395 38.8684082 31.43188477 C39.79484131 31.39377686 40.72127441 31.35566895 41.67578125 31.31640625 C42.62364502 31.27974854 43.57150879 31.24309082 44.5480957 31.20532227 C47.136171 31.08569813 47.136171 31.08569813 50 30 C49.67 35.61 49.34 41.22 49 47 C48.34 47 47.68 47 47 47 C46.505 43.535 46.505 43.535 46 40 C41.4161086 38.90684754 36.87488993 38.67717375 32.1875 38.4375 C31.00510742 38.37272461 31.00510742 38.37272461 29.79882812 38.30664062 C27.86605785 38.20121679 25.93304974 38.10016906 24 38 C24.10988136 42.25053264 24.24051204 46.50018035 24.375 50.75 C24.4059375 51.9565625 24.436875 53.163125 24.46875 54.40625 C24.50742188 55.56640625 24.54609375 56.7265625 24.5859375 57.921875 C24.63306885 59.52434082 24.63306885 59.52434082 24.68115234 61.15917969 C24.99711393 63.97428611 25.39663783 65.67751742 27 68 C30.68660697 69.22886899 34.10062975 69.14560987 37.9375 69.125 C38.65357422 69.12886719 39.36964844 69.13273437 40.10742188 69.13671875 C43.64566511 69.13016038 46.54169009 68.86457748 50 68 C50.66 65.36 51.32 62.72 52 60 C52.99 60.33 53.98 60.66 55 61 C54.88529863 62.75070517 54.75780972 64.50057536 54.625 66.25 C54.55539062 67.22453125 54.48578125 68.1990625 54.4140625 69.203125 C54 72 54 72 52 76 C35.17 76 18.34 76 1 76 C1 75.01 1 74.02 1 73 C4.465 72.01 4.465 72.01 8 71 C8.86514897 67.25993087 9.1313235 63.79172355 9.14526367 59.95629883 C9.15164352 58.76188675 9.15802338 57.56747467 9.16459656 56.33686829 C9.16570938 55.05652206 9.1668222 53.77617584 9.16796875 52.45703125 C9.17129715 51.13708664 9.17462555 49.81714203 9.17805481 48.4571991 C9.18402694 45.67075786 9.18589646 42.88434757 9.18530273 40.09790039 C9.1852007 36.52328159 9.19890321 32.9488596 9.21607494 29.37428761 C9.22983775 25.96436548 9.2292824 22.55448084 9.23046875 19.14453125 C9.23765427 17.85811234 9.24483978 16.57169342 9.25224304 15.24629211 C9.24916641 14.06133652 9.24608978 12.87638092 9.24291992 11.65551758 C9.24505745 10.08596062 9.24505745 10.08596062 9.24723816 8.48469543 C9.24759391 5.82518225 9.24759391 5.82518225 7 4 C4.67724823 3.59952556 2.34260643 3.2602896 0 3 C0 2.01 0 1.02 0 0 Z " fill="#2A2728" transform="translate(213,425)"/>
<path d="M0 0 C0.79135345 0.24398781 0.79135345 0.24398781 1.59869385 0.49290466 C4.58801053 1.124173 7.36415882 1.1194493 10.42089844 1.11352539 C11.72194519 1.11344986 13.02299194 1.11337433 14.36346436 1.11329651 C15.77876829 1.10819024 17.19407184 1.10297425 18.609375 1.09765625 C20.06097363 1.09579035 21.51257288 1.09436726 22.96417236 1.09336853 C26.77819569 1.08955688 30.59218073 1.07973815 34.40618896 1.06866455 C38.30073529 1.05842135 42.19528783 1.05386468 46.08984375 1.04882812 C53.72658195 1.03811465 61.36328072 1.02052882 69 1 C69 5.95 69 10.9 69 16 C68.01 16 67.02 16 66 16 C65.7525 15.21625 65.505 14.4325 65.25 13.625 C63.78594853 10.55049192 63.08766037 10.20622412 60 9 C57.78395837 8.63991339 57.78395837 8.63991339 55.453125 8.5859375 C54.18662109 8.52792969 54.18662109 8.52792969 52.89453125 8.46875 C51.58548828 8.42234375 51.58548828 8.42234375 50.25 8.375 C49.36183594 8.33632813 48.47367188 8.29765625 47.55859375 8.2578125 C45.3726002 8.16379127 43.18660938 8.07813857 41 8 C41.10742771 16.17972535 41.22004596 24.35935555 41.33933926 32.53891563 C41.39456444 36.33678642 41.44798378 40.1346649 41.49731445 43.93261719 C41.54496401 47.59607367 41.597307 51.25943546 41.65294075 54.92277908 C41.67336163 56.32222773 41.69207517 57.72170235 41.70907402 59.12119675 C41.73312361 61.07744014 41.76374122 63.03359949 41.79467773 64.98974609 C41.81799416 66.66186661 41.81799416 66.66186661 41.84178162 68.36776733 C41.82581145 70.97890829 41.82581145 70.97890829 43 73 C44.89533342 73.46523063 44.89533342 73.46523063 47.0625 73.625 C48.361875 73.74875 49.66125 73.8725 51 74 C51.33 74.99 51.66 75.98 52 77 C40.78 77 29.56 77 18 77 C18.495 75.515 18.495 75.515 19 74 C21.97 73.01 21.97 73.01 25 72 C25.33 50.88 25.66 29.76 26 8 C9.04795871 7.86947474 9.04795871 7.86947474 2 11 C0.94895617 12.63495707 -0.05988318 14.29883624 -1 16 C-1.66 16 -2.32 16 -3 16 C-3.33266291 9.79029227 -2.45029331 5.71735105 0 0 Z " fill="#2B2829" transform="translate(641,544)"/>
<path d="M0 0 C22.77 0.33 45.54 0.66 69 1 C69 6.28 69 11.56 69 17 C68.34 17 67.68 17 67 17 C66.773125 16.05125 66.54625 15.1025 66.3125 14.125 C65.33975727 10.93523964 65.33975727 10.93523964 63.03125 9.84375 C58.76433351 8.6560516 54.59834691 8.53288266 50.1875 8.375 C49.30384766 8.33632813 48.42019531 8.29765625 47.50976562 8.2578125 C45.34017028 8.16399216 43.17011453 8.08092674 41 8 C41.08434832 16.03215519 41.17920979 24.06408774 41.28752708 32.09595203 C41.33749118 35.82540473 41.38382103 39.55482908 41.421875 43.28442383 C41.45872665 46.88312369 41.50508593 50.48158651 41.55806351 54.08008385 C41.57660817 55.45356784 41.5917159 56.82710265 41.60334396 58.20066261 C41.62020437 60.12321528 41.65037454 62.04563734 41.68115234 63.96801758 C41.69447601 65.06277908 41.70779968 66.15754059 41.7215271 67.28547668 C41.80905 70.21937563 41.80905 70.21937563 44 73 C45.96361864 73.57748803 45.96361864 73.57748803 48.125 73.6875 C49.40375 73.790625 50.6825 73.89375 52 74 C52 74.99 52 75.98 52 77 C40.78 77 29.56 77 18 77 C18 76.01 18 75.02 18 74 C19.134375 73.71125 20.26875 73.4225 21.4375 73.125 C22.613125 72.75375 23.78875 72.3825 25 72 C26.35566105 69.2886779 26.16231085 67.11692002 26.20532227 64.08154297 C26.22526749 62.84040741 26.24521271 61.59927185 26.26576233 60.32052612 C26.2827466 58.9610812 26.29962541 57.60163495 26.31640625 56.2421875 C26.33697581 54.85498433 26.35797228 53.46778743 26.37937927 52.08059692 C26.43459981 48.42772495 26.48400911 44.77479641 26.53222656 41.12182617 C26.58244175 37.39496826 26.63812771 33.66819259 26.69335938 29.94140625 C26.80094071 22.62767379 26.90238568 15.31387299 27 8 C23.41574799 8.08097224 19.83318561 8.19380698 16.25 8.3125 C15.23421875 8.33505859 14.2184375 8.35761719 13.171875 8.38085938 C12.1921875 8.41630859 11.2125 8.45175781 10.203125 8.48828125 C8.85202637 8.52755737 8.85202637 8.52755737 7.47363281 8.56762695 C4.55770927 9.07730921 3.15091256 9.99518601 1 12 C0.20376178 14.09415804 0.20376178 14.09415804 0 16 C-0.99 16 -1.98 16 -3 16 C-2.88325099 14.64509704 -2.75606577 13.29109304 -2.625 11.9375 C-2.55539062 11.18339844 -2.48578125 10.42929687 -2.4140625 9.65234375 C-1.90250577 6.37548507 -0.91112591 3.18894068 0 0 Z " fill="#2A2728" transform="translate(508,424)"/>
<path d="M0 0 C22.77 0.33 45.54 0.66 69 1 C69 6.28 69 11.56 69 17 C68.34 17 67.68 17 67 17 C66.773125 16.05125 66.54625 15.1025 66.3125 14.125 C65.33975727 10.93523964 65.33975727 10.93523964 63.03125 9.84375 C58.76433351 8.6560516 54.59834691 8.53288266 50.1875 8.375 C49.30384766 8.33632813 48.42019531 8.29765625 47.50976562 8.2578125 C45.34017028 8.16399216 43.17011453 8.08092674 41 8 C41.08470709 15.29388182 41.17970553 22.58755504 41.28752708 29.88113403 C41.33728663 33.26853409 41.38361671 36.655906 41.421875 40.04345703 C41.46770088 43.94581693 41.52566751 47.84783968 41.5859375 51.75 C41.59748871 52.95551514 41.60903992 54.16103027 41.62094116 55.40307617 C41.72891105 61.60086537 42.17737141 67.06526549 44 73 C46.64 73.33 49.28 73.66 52 74 C52 74.99 52 75.98 52 77 C41.11 77 30.22 77 19 77 C19 76.01 19 75.02 19 74 C20.98 74 22.96 74 25 74 C26.03009356 70.58323965 26.1546741 67.41433435 26.20532227 63.85449219 C26.22526749 62.61350769 26.24521271 61.37252319 26.26576233 60.09393311 C26.28274393 58.744915 26.29962283 57.39589559 26.31640625 56.046875 C26.33698876 54.66253049 26.35798557 53.27819208 26.37937927 51.89385986 C26.43446607 48.257456 26.48393414 44.62099667 26.53222656 40.98449707 C26.58253964 37.27086475 26.63817442 33.55731256 26.69335938 29.84375 C26.80077704 22.56256794 26.90225808 15.28131906 27 8 C23.41548691 8.05189759 19.83337949 8.14697784 16.25 8.25 C14.72632813 8.27126953 14.72632813 8.27126953 13.171875 8.29296875 C7.39004166 8.36187057 7.39004166 8.36187057 2.40625 10.9375 C1.9421875 11.618125 1.478125 12.29875 1 13 C0 14 -1 15 -2 16 C-3 12 -3 12 0 0 Z " fill="#2A2627" transform="translate(137,424)"/>
<path d="M0 0 C0 4.95 0 9.9 0 15 C-0.99 15.33 -1.98 15.66 -3 16 C-3.61848958 14.30729167 -4.23697917 12.61458333 -4.85546875 10.921875 C-6.50478421 8.152376 -8.29077584 6.73920823 -11 5 C-14.17444901 4.40803146 -14.17444901 4.40803146 -17.5 4.5625 C-19.15515625 4.56443359 -19.15515625 4.56443359 -20.84375 4.56640625 C-24.29470998 5.04048615 -26.21775338 5.93851654 -29 8 C-30.77525386 11.55050772 -30.74163932 15.14085027 -30 19 C-25.53678061 24.22523245 -19.37301887 27.17048224 -13.4987793 30.60888672 C-6.17160456 34.96578336 -0.41423842 39.47915853 2 48 C2.91909929 54.79513857 2.31800658 60.14834229 -1.37890625 65.9921875 C-5.56683984 71.1791703 -10.55001535 74.3689694 -17 76 C-20.48327291 76.30335247 -23.94268766 76.32474531 -27.4375 76.3125 C-28.35337891 76.32861328 -29.26925781 76.34472656 -30.21289062 76.36132812 C-31.11072266 76.36197266 -32.00855469 76.36261719 -32.93359375 76.36328125 C-33.73853271 76.36626221 -34.54347168 76.36924316 -35.37280273 76.37231445 C-38 76 -38 76 -45 73 C-45 67.06 -45 61.12 -45 55 C-43.515 54.505 -43.515 54.505 -42 54 C-41.91363281 54.59167969 -41.82726562 55.18335938 -41.73828125 55.79296875 C-40.75222407 61.33840956 -39.5957118 64.38908358 -35 68 C-30.29408109 70.86184362 -25.34738026 70.5474321 -20 70 C-17.02015833 68.66829691 -17.02015833 68.66829691 -15 67 C-14.34 67 -13.68 67 -13 67 C-10.99150426 62.85747753 -10.51737008 59.5849842 -11 55 C-13.50121821 49.2829298 -17.74984579 47.02623285 -22.9765625 43.859375 C-26.05069506 41.96882319 -28.99942416 39.9702498 -31.9375 37.875 C-32.81277344 37.25367188 -33.68804687 36.63234375 -34.58984375 35.9921875 C-39.07007611 32.28891602 -42.57735589 28.11421976 -43.37109375 22.265625 C-43.50450412 16.20722446 -43.28210237 11.654588 -39.61328125 6.68359375 C-29.30378451 -4.0752273 -13.39398717 -3.82685348 0 0 Z " fill="#2A2627" transform="translate(349,546)"/>
<path d="M0 0 C21.31620436 9.04170753 38.48491716 41.79665332 47 62 C47.94589479 65.05320472 48.54717397 67.8302178 49 71 C41.10849953 72.00025163 33.32197932 72.12008681 25.375 72.0625 C23.58255859 72.05573242 23.58255859 72.05573242 21.75390625 72.04882812 C18.83588353 72.03715603 15.91796963 72.02078326 13 72 C12.92483154 71.28158936 12.84966309 70.56317871 12.7722168 69.82299805 C9.08022766 34.38213336 9.08022766 34.38213336 0 0 Z " fill="#FAFDFD" transform="translate(527,92)"/>
<path d="M0 0 C0.79135345 0.24398781 0.79135345 0.24398781 1.59869385 0.49290466 C4.58801053 1.124173 7.36415882 1.1194493 10.42089844 1.11352539 C11.72194519 1.11344986 13.02299194 1.11337433 14.36346436 1.11329651 C15.77876829 1.10819024 17.19407184 1.10297425 18.609375 1.09765625 C20.06097363 1.09579035 21.51257288 1.09436726 22.96417236 1.09336853 C26.77819569 1.08955688 30.59218073 1.07973815 34.40618896 1.06866455 C38.30073529 1.05842135 42.19528783 1.05386468 46.08984375 1.04882812 C53.72658195 1.03811465 61.36328072 1.02052882 69 1 C69 6.28 69 11.56 69 17 C67.515 16.505 67.515 16.505 66 16 C65.71125 15.195625 65.4225 14.39125 65.125 13.5625 C64.25336556 10.88075251 64.25336556 10.88075251 62.01171875 9.87890625 C57.90701527 8.68103558 53.94383229 8.53625016 49.6875 8.375 C48.85154297 8.33632813 48.01558594 8.29765625 47.15429688 8.2578125 C45.10320741 8.16404841 43.05163485 8.08095755 41 8 C41.08434832 16.03215519 41.17920979 24.06408774 41.28752708 32.09595203 C41.33749118 35.82540473 41.38382103 39.55482908 41.421875 43.28442383 C41.45872665 46.88312369 41.50508593 50.48158651 41.55806351 54.08008385 C41.57660817 55.45356784 41.5917159 56.82710265 41.60334396 58.20066261 C41.62020437 60.12321528 41.65037454 62.04563734 41.68115234 63.96801758 C41.69447601 65.06277908 41.70779968 66.15754059 41.7215271 67.28547668 C41.80905 70.21937563 41.80905 70.21937563 44 73 C45.96361864 73.57748803 45.96361864 73.57748803 48.125 73.6875 C49.40375 73.790625 50.6825 73.89375 52 74 C52.33 74.99 52.66 75.98 53 77 C41.45 77 29.9 77 18 77 C18.495 75.515 18.495 75.515 19 74 C21.97 73.505 21.97 73.505 25 73 C26.07570093 69.7728972 26.1571116 67.3634259 26.20532227 63.96801758 C26.22526749 62.72695755 26.24521271 61.48589752 26.26576233 60.20722961 C26.28274527 58.8529981 26.29962413 57.49876527 26.31640625 56.14453125 C26.33698228 54.75875741 26.35797892 53.37298975 26.37937927 51.98722839 C26.43453301 48.34259047 26.48397174 44.69789654 26.53222656 41.05316162 C26.58249056 37.3329165 26.63815104 33.61275257 26.69335938 29.89257812 C26.80085899 22.59512087 26.90232207 15.29759603 27 8 C23.77016338 8.11042944 20.54143474 8.24092659 17.3125 8.375 C16.40048828 8.4059375 15.48847656 8.436875 14.54882812 8.46875 C8.02554062 8.68712687 8.02554062 8.68712687 2 11 C0.94895617 12.63495707 -0.05988318 14.29883624 -1 16 C-1.66 16 -2.32 16 -3 16 C-2.52013969 10.43109483 -1.70084819 5.32932432 0 0 Z " fill="#252223" transform="translate(478,544)"/>
<path d="M0 0 C0.79135345 0.24398781 0.79135345 0.24398781 1.59869385 0.49290466 C4.58801053 1.124173 7.36415882 1.1194493 10.42089844 1.11352539 C11.72194519 1.11344986 13.02299194 1.11337433 14.36346436 1.11329651 C15.77876829 1.10819024 17.19407184 1.10297425 18.609375 1.09765625 C20.06097363 1.09579035 21.51257288 1.09436726 22.96417236 1.09336853 C26.77819569 1.08955688 30.59218073 1.07973815 34.40618896 1.06866455 C38.30073529 1.05842135 42.19528783 1.05386468 46.08984375 1.04882812 C53.72658195 1.03811465 61.36328072 1.02052882 69 1 C69 6.28 69 11.56 69 17 C68.34 17 67.68 17 67 17 C66.690625 15.576875 66.690625 15.576875 66.375 14.125 C65.33157246 10.81866614 65.33157246 10.81866614 62.5 9.84375 C58.18331615 8.80312086 54.04971968 8.54436726 49.625 8.375 C48.79355469 8.33632813 47.96210938 8.29765625 47.10546875 8.2578125 C45.07064844 8.16425754 43.03535584 8.08107287 41 8 C41.10787764 15.31106841 41.22058439 22.62204589 41.33933926 29.93294621 C41.39434144 33.32823211 41.44772308 36.7235269 41.49731445 40.11889648 C41.55449028 44.02856691 41.61887078 47.9381032 41.68359375 51.84765625 C41.70030624 53.05833267 41.71701874 54.26900909 41.73423767 55.51637268 C41.83808535 63.81108064 41.83808535 63.81108064 43 72 C45.86958509 74.33818044 49.39760766 74.50876468 53 75 C53 75.66 53 76.32 53 77 C41.45 77 29.9 77 18 77 C18.495 75.515 18.495 75.515 19 74 C19.969375 73.87625 20.93875 73.7525 21.9375 73.625 C23.4534375 73.315625 23.4534375 73.315625 25 73 C26.36682074 70.26635853 26.16265463 68.04962521 26.20532227 64.98974609 C26.22526749 63.72858978 26.24521271 62.46743347 26.26576233 61.1680603 C26.28274665 59.78652063 26.29962546 58.40497966 26.31640625 57.0234375 C26.3369756 55.61381418 26.35797207 54.20419703 26.37937927 52.79458618 C26.43460195 49.08252965 26.48401031 45.37041743 26.53222656 41.65826416 C26.58244018 37.87108397 26.63812697 34.08398474 26.69335938 30.296875 C26.80094333 22.86465188 26.90238773 15.43236148 27 8 C23.58268208 8.1100917 20.16644426 8.24067061 16.75 8.375 C15.29787109 8.42140625 15.29787109 8.42140625 13.81640625 8.46875 C12.88183594 8.50742187 11.94726562 8.54609375 10.984375 8.5859375 C9.69611816 8.63306885 9.69611816 8.63306885 8.38183594 8.68115234 C5.81740322 9.02444356 4.1792842 9.61733493 2 11 C0.94895617 12.63495707 -0.05988318 14.29883624 -1 16 C-1.33 16 -1.66 16 -2 16 C-2.2358396 10.22192976 -1.86783046 5.48675196 0 0 Z " fill="#252122" transform="translate(360,544)"/>
<path d="M0 0 C11.22 0 22.44 0 34 0 C34 0.99 34 1.98 34 3 C31.94921875 3.22786458 29.8984375 3.45572917 27.84765625 3.68359375 C25.98859771 3.81886614 25.98859771 3.81886614 25 5 C24.90095357 6.82513461 24.87200797 8.65411397 24.87060547 10.48193359 C24.86745331 11.65339935 24.86430115 12.82486511 24.86105347 14.03182983 C24.8630777 15.30781036 24.86510193 16.58379089 24.8671875 17.8984375 C24.86623077 19.19947418 24.86527405 20.50051086 24.86428833 21.8409729 C24.86281132 24.60004864 24.8649653 27.35909207 24.86962891 30.11816406 C24.87531503 33.65463026 24.87205433 37.19102037 24.86605644 40.72748375 C24.86157159 44.09697441 24.86471336 47.46644467 24.8671875 50.8359375 C24.86516327 52.10786957 24.86313904 53.37980164 24.86105347 54.6902771 C24.86420563 55.86804718 24.86735779 57.04581726 24.87060547 58.25927734 C24.87140106 59.29772797 24.87219666 60.33617859 24.87301636 61.40609741 C24.88889612 64.11579269 24.88889612 64.11579269 26 67 C29.74363237 68.87181618 34.19192006 68.31428147 38.3125 68.375 C39.26318359 68.41238281 40.21386719 68.44976562 41.19335938 68.48828125 C47.0942304 68.56845268 47.0942304 68.56845268 52.1171875 65.62109375 C53.80384466 63.27307102 54.68433272 61.84100551 55 59 C55.66 59 56.32 59 57 59 C57.08256871 60.51987588 57.13988627 62.04112785 57.1875 63.5625 C57.22230469 64.40941406 57.25710938 65.25632812 57.29296875 66.12890625 C57 69 57 69 54 76 C36.51 76 19.02 76 1 76 C1 75.01 1 74.02 1 73 C2.7015625 72.5978125 2.7015625 72.5978125 4.4375 72.1875 C6.2009375 71.5996875 6.2009375 71.5996875 8 71 C9.06870584 67.79388248 9.13323318 65.47799248 9.14526367 62.10742188 C9.15164352 60.89606567 9.15802338 59.68470947 9.16459656 58.43664551 C9.16626579 56.47253723 9.16626579 56.47253723 9.16796875 54.46875 C9.17118213 53.11258916 9.17454626 51.75642867 9.17805481 50.40026855 C9.18404049 47.55899247 9.18589522 44.71774679 9.18530273 41.87646484 C9.185201 38.23462795 9.19886733 34.59298552 9.21607494 30.95119476 C9.22718782 28.15109357 9.22922219 25.35103957 9.22869301 22.55091858 C9.23044783 20.55504922 9.24129064 18.55919457 9.25224304 16.56335449 C9.24916641 15.35199829 9.24608978 14.14064209 9.24291992 12.89257812 C9.24505745 11.29065613 9.24505745 11.29065613 9.24723816 9.65637207 C9.1909535 6.77162545 9.1909535 6.77162545 7 4 C3.43230448 3.26393501 3.43230448 3.26393501 0 3 C0 2.01 0 1.02 0 0 Z " fill="#292627" transform="translate(884,425)"/>
<path d="M0 0 C10.56 0 21.12 0 32 0 C32 0.66 32 1.32 32 2 C29.69 2.66 27.38 3.32 25 4 C25 26.77 25 49.54 25 73 C28.60661066 74.80330533 31.08393425 75.46599103 35 76 C35 76.66 35 77.32 35 78 C23.45 78 11.9 78 0 78 C0.33 77.01 0.66 76.02 1 75 C4.465 74.01 4.465 74.01 8 73 C8 50.23 8 27.46 8 4 C5.36 3.34 2.72 2.68 0 2 C0 1.34 0 0.68 0 0 Z " fill="#2C2829" transform="translate(169,543)"/>
<path d="M0 0 C10.23 0 20.46 0 31 0 C31 0.99 31 1.98 31 3 C28.69 3.66 26.38 4.32 24 5 C23.97685735 13.44040261 23.95907508 21.88079202 23.94818783 30.32121849 C23.94296322 34.2401987 23.9358732 38.15915726 23.92456055 42.078125 C23.91371671 45.85822386 23.90771998 49.63830186 23.90512276 53.41841507 C23.90327122 54.86254836 23.89965576 56.30668047 23.89426994 57.7508049 C23.8870398 59.76924277 23.88659177 61.78770153 23.88647461 63.80615234 C23.88314369 65.53156754 23.88314369 65.53156754 23.87974548 67.2918396 C23.81447903 69.96820459 23.81447903 69.96820459 25 72 C27.12576782 72.46651207 27.12576782 72.46651207 29.5625 72.625 C30.38878906 72.69976562 31.21507812 72.77453125 32.06640625 72.8515625 C33.02353516 72.92503906 33.02353516 72.92503906 34 73 C34.33 73.99 34.66 74.98 35 76 C23.45 76 11.9 76 0 76 C0 75.01 0 74.02 0 73 C0.969375 72.87625 1.93875 72.7525 2.9375 72.625 C4.4534375 72.315625 4.4534375 72.315625 6 72 C7.3951713 69.20965739 7.11955162 66.92774028 7.11352539 63.80615234 C7.11344986 62.50495453 7.11337433 61.20375671 7.11329651 59.86312866 C7.10818947 58.43739789 7.10297347 57.0116675 7.09765625 55.5859375 C7.09579147 54.13148039 7.09436785 52.67702266 7.09336853 51.2225647 C7.08954805 47.39207224 7.07972176 43.56161763 7.06866455 39.73114014 C7.05844035 35.82336947 7.05386874 31.91559269 7.04882812 28.0078125 C7.03809908 20.3385244 7.02102828 12.6692675 7 5 C4.36 4.01 1.72 3.02 -1 2 C-0.67 1.34 -0.34 0.68 0 0 Z " fill="#302C2D" transform="translate(585,425)"/>
<path d="M0 0 C10.56 0 21.12 0 32 0 C32 0.66 32 1.32 32 2 C30.865625 2.309375 29.73125 2.61875 28.5625 2.9375 C25.21224901 3.62924531 25.21224901 3.62924531 24 5 C23.90069631 6.98357995 23.8720054 8.9707235 23.87060547 10.95678711 C23.86745331 12.23158432 23.86430115 13.50638153 23.86105347 14.81980896 C23.86284344 16.2223209 23.86489444 17.62483254 23.8671875 19.02734375 C23.86651435 20.45601925 23.86554423 21.88469464 23.86428833 23.31336975 C23.8628114 26.31203295 23.86496543 29.31066642 23.86962891 32.30932617 C23.87532106 36.15752758 23.87205043 40.00565916 23.86605644 43.85385799 C23.8624463 46.8057559 23.86359159 49.7576372 23.86618423 52.7095356 C23.86685252 54.12854584 23.86602852 55.54755759 23.86370468 56.96656609 C23.86117137 58.94898323 23.86571569 60.93140563 23.87060547 62.91381836 C23.87140106 64.04331406 23.87219666 65.17280975 23.87301636 66.33653259 C23.81899903 68.9747579 23.81899903 68.9747579 25 71 C27.12576782 71.46651207 27.12576782 71.46651207 29.5625 71.625 C30.38878906 71.69976563 31.21507812 71.77453125 32.06640625 71.8515625 C33.02353516 71.92503906 33.02353516 71.92503906 34 72 C34.33 72.99 34.66 73.98 35 75 C23.45 75 11.9 75 0 75 C0.33 74.01 0.66 73.02 1 72 C1.969375 71.87625 2.93875 71.7525 3.9375 71.625 C5.4534375 71.315625 5.4534375 71.315625 7 71 C8.3783621 68.24327579 8.13482398 66.01487184 8.14526367 62.9296875 C8.15164352 61.65496582 8.15802338 60.38024414 8.16459656 59.06689453 C8.166125 57.66959674 8.16723909 56.27229844 8.16796875 54.875 C8.17118063 53.44775356 8.17454465 52.02050746 8.17805481 50.59326172 C8.18404652 47.60057817 8.18589462 44.6079235 8.18530273 41.61523438 C8.185201 37.7748568 8.19886481 33.93466364 8.21607494 30.09432983 C8.22717552 27.14671981 8.22922256 24.19915467 8.22869301 21.25152588 C8.22987562 19.83530032 8.23431306 18.4190737 8.24202538 17.00286865 C8.25178755 15.02537401 8.24769279 13.04782548 8.24291992 11.0703125 C8.24505745 9.38059326 8.24505745 9.38059326 8.24723816 7.65673828 C8.27077192 4.84507603 8.27077192 4.84507603 6 3 C4.01178687 2.60235737 2.01055661 2.26224651 0 2 C0 1.34 0 0.68 0 0 Z " fill="#252122" transform="translate(438,546)"/>
<path d="M0 0 C0.804375 0.78375 1.60875 1.5675 2.4375 2.375 C3.38625 3.2 4.335 4.025 5.3125 4.875 C8.32649932 8.68625075 8.01009903 12.86717407 7.78515625 17.5390625 C6.99401588 23.99263448 3.94204813 27.17712097 -0.84375 31.17578125 C-5.67515399 34.54678358 -11.95507609 33.9862021 -17.5625 33.375 C-22.3470087 31.72623211 -25.5158948 29.04679293 -28.0625 24.6875 C-30.34843877 19.2443005 -30.83827633 13.66040631 -28.6796875 8.1015625 C-26.52074247 4.25549487 -23.89197921 0.99350957 -19.8515625 -1 C-13.32898012 -2.78090986 -6.1524735 -2.80639142 0 0 Z " fill="#FCFCFC" transform="translate(553.5625,664.625)"/>
<path d="M0 0 C13.36164224 -0.3801521 25.8654647 0.50384397 39 3 C39 16.04758419 19.62817071 33.75400966 11 43 C8.84101278 39.76151917 7.75842444 36.61325534 6.625 32.9375 C6.40948486 32.24156738 6.19396973 31.54563477 5.97192383 30.82861328 C4.3322334 25.39114154 2.94142384 19.91344989 1.6875 14.375 C1.51621582 13.62984131 1.34493164 12.88468262 1.16845703 12.11694336 C0.2730771 8.00294743 -0.18049167 4.23821178 0 0 Z " fill="#04B5CB" transform="translate(460,312)"/>
<path d="M0 0 C4.06964903 2.03482451 6.69400987 4.42785943 9.8125 7.625 C10.34294922 8.16189453 10.87339844 8.69878906 11.41992188 9.25195312 C14.91495552 12.81526581 18.28396676 16.46221053 21.5 20.28125 C23.23903826 22.27389801 25.12985292 24.12985292 27 26 C27.33 18.08 27.66 10.16 28 2 C25.525 1.505 25.525 1.505 23 1 C23 0.67 23 0.34 23 0 C26.63 0 30.26 0 34 0 C33.34 0.66 32.68 1.32 32 2 C31.75493744 4.50279048 31.62650065 6.90633955 31.5859375 9.4140625 C31.56829346 10.06076904 31.55064941 10.70747559 31.5324707 11.3737793 C31.46938386 13.7905995 31.42321073 16.20783729 31.375 18.625 C31.25125 24.02875 31.1275 29.4325 31 35 C19.45 35 7.9 35 -4 35 C-4 34.34 -4 33.68 -4 33 C-2.515 32.505 -2.515 32.505 -1 32 C-0.67 21.44 -0.34 10.88 0 0 Z " fill="#383435" transform="translate(377,663)"/>
<path d="M0 0 C2.31 0 4.62 0 7 0 C9.79360753 2.79360753 9.25357668 4.50863136 9.25878906 8.42163086 C9.2622937 9.08034683 9.26579834 9.73906281 9.26940918 10.41773987 C9.27822803 12.60021433 9.27237633 14.78236586 9.265625 16.96484375 C9.26697177 18.47937584 9.26891241 19.99390751 9.27142334 21.50843811 C9.27437494 24.68527333 9.27007649 27.86199619 9.26074219 31.03881836 C9.24935727 35.11228111 9.25590068 39.18548004 9.26788712 43.25893307 C9.27511309 46.38759856 9.27281424 49.51620148 9.26763153 52.64486885 C9.26629657 54.14678542 9.2679374 55.64870765 9.27259064 57.1506176 C9.27766698 59.25022298 9.26993002 61.34940106 9.25878906 63.44897461 C9.25640228 65.24195229 9.25640228 65.24195229 9.25396729 67.07115173 C9 70 9 70 7 73 C3.535 73.495 3.535 73.495 0 74 C0 49.58 0 25.16 0 0 Z " fill="#FDFDFD" transform="translate(0,425)"/>
<path d="M0 0 C1.76159856 -0.03217961 3.52336701 -0.05514835 5.28515625 -0.07421875 C6.26621338 -0.08799561 7.24727051 -0.10177246 8.25805664 -0.1159668 C11.87015559 0.03680206 14.05558845 0.91736744 17 3 C22.10390105 8.65567413 22.28903821 12.31581638 22.21484375 19.79296875 C21.87357947 24.88711371 20.41538635 27.6224582 16.80859375 31.1328125 C13.34921186 33.43265192 11.36253221 33.44741339 7.25 33.3125 C6.10015625 33.28800781 4.9503125 33.26351562 3.765625 33.23828125 C1 33 1 33 0 32 C-0.0883967 29.6243148 -0.11530305 27.27791326 -0.09765625 24.90234375 C-0.0962413 24.19348526 -0.09482635 23.48462677 -0.09336853 22.75428772 C-0.08775443 20.48198288 -0.07519963 18.20977525 -0.0625 15.9375 C-0.05748681 14.40039204 -0.05292359 12.86328255 -0.04882812 11.32617188 C-0.03778042 7.55074358 -0.02050641 3.77538829 0 0 Z " fill="#FEFEFE" transform="translate(300,431)"/>
<path d="M0 0 C0.99 0.33 1.98 0.66 3 1 C4.13930855 3.28050869 5.08849814 5.47218064 5.99609375 7.84375 C6.56036262 9.24877193 7.12482159 10.65371753 7.68945312 12.05859375 C8.56750181 14.28213089 9.44043955 16.50753953 10.30883789 18.73486328 C11.1500346 20.88071028 12.00956664 23.01850122 12.87109375 25.15625 C13.25254799 26.16093323 13.25254799 26.16093323 13.64170837 27.18591309 C14.44925811 29.27848195 14.44925811 29.27848195 16 32 C18.07586831 33.02898842 18.07586831 33.02898842 20 33 C20 33.66 20 34.32 20 35 C7.79 35 -4.42 35 -17 35 C-17 34.34 -17 33.68 -17 33 C-16.39623535 32.95520508 -15.7924707 32.91041016 -15.17041016 32.86425781 C-12.74497194 32.15994705 -12.74497194 32.15994705 -11.56787109 29.48730469 C-11.14070801 28.39321289 -10.71354492 27.29912109 -10.2734375 26.171875 C-9.7990625 24.97949219 -9.3246875 23.78710938 -8.8359375 22.55859375 C-8.34859105 21.28920345 -7.86161533 20.01967075 -7.375 18.75 C-6.88163047 17.49553351 -6.38685395 16.2416194 -5.890625 14.98828125 C-4.97794125 12.67166047 -4.07152849 10.35255263 -3.17333984 8.03027344 C-2.13388696 5.34577715 -1.07477845 2.67051126 0 0 Z " fill="#353132" transform="translate(317,663)"/>
<path d="M0 0 C0.804375 0.78375 1.60875 1.5675 2.4375 2.375 C3.38625 3.2 4.335 4.025 5.3125 4.875 C8.32649932 8.68625075 8.01009903 12.86717407 7.78515625 17.5390625 C6.99401588 23.99263448 3.94204813 27.17712097 -0.84375 31.17578125 C-5.67515399 34.54678358 -11.95507609 33.9862021 -17.5625 33.375 C-22.3470087 31.72623211 -25.5158948 29.04679293 -28.0625 24.6875 C-30.34843877 19.2443005 -30.83827633 13.66040631 -28.6796875 8.1015625 C-26.52074247 4.25549487 -23.89197921 0.99350957 -19.8515625 -1 C-13.32898012 -2.78090986 -6.1524735 -2.80639142 0 0 Z M-22.5625 5.375 C-25.28621897 9.8832245 -25.17827861 14.24864303 -24.5625 19.375 C-23.20055919 23.90964383 -21.28732757 26.73070883 -17.75 29.875 C-13.180858 32.02518447 -9.71516621 31.92568205 -4.875 30.6875 C-0.96810987 28.47007587 1.03295583 25.58863251 2.4375 21.375 C3.01521254 15.02016202 2.74948266 9.8949711 -0.5625 4.375 C-4.03821776 1.06882945 -6.87816002 0.08017657 -11.5625 -0.1875 C-16.84955139 0.02748552 -19.03738725 1.49737597 -22.5625 5.375 Z " fill="#333031" transform="translate(553.5625,664.625)"/>
<path d="M0 0 C4.12805463 3.53833254 8.02586805 6.89872087 11.83984375 10.70703125 C12.67451172 11.54041016 13.50917969 12.37378906 14.36914062 13.23242188 C15.21669922 14.08384766 16.06425781 14.93527344 16.9375 15.8125 C17.81212891 16.68326172 18.68675781 17.55402344 19.58789062 18.45117188 C20.41353516 19.27810547 21.23917969 20.10503906 22.08984375 20.95703125 C22.84128662 21.70960205 23.59272949 22.46217285 24.36694336 23.23754883 C26 25 26 25 26 26 C18.74 26 11.48 26 4 26 C4 25.34 4 24.68 4 24 C2.68 23.67 1.36 23.34 0 23 C0 15.41 0 7.82 0 0 Z " fill="#FCFCFC" transform="translate(380,672)"/>
<path d="M0 0 C3.63 0 7.26 0 11 0 C10.67 0.66 10.34 1.32 10 2 C9.34 2 8.68 2 8 2 C8.08135065 5.54257346 8.19415176 9.0834847 8.3125 12.625 C8.33505859 13.62402344 8.35761719 14.62304688 8.38085938 15.65234375 C8.61876387 22.18390349 9.16994918 27.16994918 14 32 C18.95005088 32.46698593 22.06201509 32.12722331 26 29 C27.63133978 24.10598066 27.18452602 19.06166204 27.1875 13.9375 C27.19974609 12.82310547 27.21199219 11.70871094 27.22460938 10.56054688 C27.22654297 9.49771484 27.22847656 8.43488281 27.23046875 7.33984375 C27.23663208 5.87599243 27.23663208 5.87599243 27.24291992 4.38256836 C27.23442885 1.81327076 27.23442885 1.81327076 25 0 C28.3 0 31.6 0 35 0 C34.34 0.66 33.68 1.32 33 2 C32.67835838 4.32539128 32.67835838 4.32539128 32.69140625 7.015625 C32.66626953 8.01980469 32.64113281 9.02398438 32.61523438 10.05859375 C32.58033725 12.1705158 32.5490326 14.28250055 32.52148438 16.39453125 C32.33770005 23.41419583 31.81886673 28.32207661 26.5 33.375 C21.59408465 35.65274641 17.32205116 35.78288717 12 35 C8.42925273 33.3085934 6.62496859 32.25301518 4.85986328 28.71411133 C3.91676887 25.73728549 3.77134944 23.37882724 3.8046875 20.26171875 C3.81113281 19.19501953 3.81757812 18.12832031 3.82421875 17.02929688 C3.84097656 15.92650391 3.85773437 14.82371094 3.875 13.6875 C3.88402344 12.56537109 3.89304687 11.44324219 3.90234375 10.28710938 C3.92585514 7.52452091 3.95871845 4.76237068 4 2 C2.68 1.34 1.36 0.68 0 0 Z " fill="#2D292A" transform="translate(572,663)"/>
<path d="M0 0 C0.25652344 0.66902344 0.51304687 1.33804687 0.77734375 2.02734375 C6.14168969 15.48336304 12.48302395 27.99956246 22 39 C22.66 39.99 23.32 40.98 24 42 C9.83242805 36.03823213 -4.43139918 16.98809277 -12 4 C-12 3.01 -12 2.02 -12 1 C-8.0186217 -0.3271261 -4.14954773 -0.06915913 0 0 Z " fill="#0CB8CD" transform="translate(431,315)"/>
<path d="M0 0 C0.66 0 1.32 0 2 0 C3.50827797 3.76757497 5.00518994 7.53956349 6.5 11.3125 C7.14388672 12.9202832 7.14388672 12.9202832 7.80078125 14.56054688 C8.40986328 16.10258789 8.40986328 16.10258789 9.03125 17.67578125 C9.40830078 18.62364502 9.78535156 19.57150879 10.17382812 20.5480957 C11 23 11 23 11 26 C4.4 26 -2.2 26 -9 26 C-8.26006651 22.30033256 -7.48783502 19.37328742 -6.15234375 15.91796875 C-5.79462891 14.98662109 -5.43691406 14.05527344 -5.06835938 13.09570312 C-4.69517578 12.13599609 -4.32199219 11.17628906 -3.9375 10.1875 C-3.56044922 9.20845703 -3.18339844 8.22941406 -2.79492188 7.22070312 C-1.86684405 4.8123999 -0.93509884 2.40558386 0 0 Z " fill="#F7F6F7" transform="translate(834,444)"/>
<path d="M0 0 C2.21063445 2.21063445 2.83793863 3.78381301 3.9453125 6.68359375 C4.29980469 7.61107422 4.65429688 8.53855469 5.01953125 9.49414062 C5.38433594 10.46544922 5.74914062 11.43675781 6.125 12.4375 C6.68380859 13.88866211 6.68380859 13.88866211 7.25390625 15.36914062 C10 22.61661516 10 22.61661516 10 26 C3.4 26 -3.2 26 -10 26 C-9.26793877 22.33969385 -8.54699056 19.55570658 -7.1875 16.171875 C-6.83429688 15.29015625 -6.48109375 14.4084375 -6.1171875 13.5 C-5.74851562 12.5925 -5.37984375 11.685 -5 10.75 C-4.63132812 9.82703125 -4.26265625 8.9040625 -3.8828125 7.953125 C-1.13585283 1.13585283 -1.13585283 1.13585283 0 0 Z " fill="#F8F7F7" transform="translate(473,444)"/>
<path d="M0 0 C9.9 0 19.8 0 30 0 C30 1.98 30 3.96 30 6 C29.34 6 28.68 6 28 6 C27.67 5.34 27.34 4.68 27 4 C24.64400765 3.53248212 24.64400765 3.53248212 21.9375 3.375 C21.01839844 3.30023437 20.09929687 3.22546875 19.15234375 3.1484375 C18.44207031 3.09945312 17.73179687 3.05046875 17 3 C17.1181656 7.09362106 17.24240784 11.18700767 17.37231445 15.28027344 C17.41565846 16.6731259 17.45733396 18.06603131 17.49731445 19.45898438 C17.55502932 21.45976651 17.61921869 23.46035859 17.68359375 25.4609375 C17.72025146 26.66540527 17.75690918 27.86987305 17.79467773 29.11083984 C17.81052987 31.93996367 17.81052987 31.93996367 19 34 C16.36 34 13.72 34 11 34 C11.33 23.77 11.66 13.54 12 3 C3.12731854 3.28800934 3.12731854 3.28800934 0 5 C0 3.35 0 1.7 0 0 Z " fill="#272324" transform="translate(423,663)"/>
<path d="M0 0 C1.75570312 0.04060547 1.75570312 0.04060547 3.546875 0.08203125 C4.43890625 0.11683594 5.3309375 0.15164063 6.25 0.1875 C6.25 2.4975 6.25 4.8075 6.25 7.1875 C5.59 5.8675 4.93 4.5475 4.25 3.1875 C2.60425434 3.16061849 0.95838587 3.14115877 -0.6875 3.125 C-2.06228516 3.10759766 -2.06228516 3.10759766 -3.46484375 3.08984375 C-5.71593327 2.92800951 -5.71593327 2.92800951 -6.75 4.1875 C-7.42154684 6.47091743 -7.42154684 6.47091743 -6.75 9.1875 C-4.65683785 11.49239821 -2.22332003 13.30777678 0.25 15.1875 C6.10925926 19.90601852 6.10925926 19.90601852 7.25 22.1875 C7.64069343 26.32885035 7.68382227 28.49936812 5.4375 32.0625 C2.05073182 35.35250338 -0.78396979 35.32456 -5.3125 35.3125 C-6.28316406 35.31507813 -7.25382813 35.31765625 -8.25390625 35.3203125 C-10.75 35.1875 -10.75 35.1875 -12.75 34.1875 C-12.75 31.8775 -12.75 29.5675 -12.75 27.1875 C-12.09 27.1875 -11.43 27.1875 -10.75 27.1875 C-10.358125 28.0125 -9.96625 28.8375 -9.5625 29.6875 C-8.964375 30.5125 -8.36625 31.3375 -7.75 32.1875 C-3.35907888 32.73636514 -1.46499122 32.66416082 2.25 30.1875 C2.94364115 27.29739646 2.94364115 27.29739646 2.25 24.1875 C-0.03524975 21.68669957 -0.03524975 21.68669957 -3.0625 19.625 C-6.92181587 16.79483503 -9.70584813 14.5768261 -11.75 10.1875 C-11.64533666 4.11702612 -11.64533666 4.11702612 -9.11328125 1.48828125 C-5.94440344 -0.255911 -3.5929844 -0.10778953 0 0 Z " fill="#2D2A2B" transform="translate(660.75,662.8125)"/>
<path d="M0 0 C0 2.31 0 4.62 0 7 C-0.66 6.67 -1.32 6.34 -2 6 C-2 5.01 -2 4.02 -2 3 C-3.64574566 2.97311849 -5.29161413 2.95365877 -6.9375 2.9375 C-8.31228516 2.92009766 -8.31228516 2.92009766 -9.71484375 2.90234375 C-11.96593327 2.74050951 -11.96593327 2.74050951 -13 4 C-13.52712319 6.86755976 -13.52712319 6.86755976 -13 10 C-10.71417807 12.32091468 -10.71417807 12.32091468 -7.6875 14.125 C-1.15004748 18.3807534 -1.15004748 18.3807534 1 22 C1.53561062 26.20836916 1.46774118 28.25806572 -0.8125 31.875 C-4.04607441 35.01618657 -6.67469304 35.13787294 -11 35.125 C-12.299375 35.12886719 -12.299375 35.12886719 -13.625 35.1328125 C-16 35 -16 35 -19 34 C-19 31.69 -19 29.38 -19 27 C-18.319375 27.825 -17.63875 28.65 -16.9375 29.5 C-14.17240412 32.30743661 -14.17240412 32.30743661 -10.375 32.5 C-7.1172921 32.22273441 -7.1172921 32.22273441 -5 30.875 C-3.81548904 28.94663273 -3.81548904 28.94663273 -3.75 26.25 C-5.42369264 21.89839912 -8.06351746 20.34440452 -11.765625 17.65625 C-15.52605788 14.86879626 -17.69132011 12.64629275 -18.5625 8 C-18 5 -18 5 -16.3125 2.125 C-11.16226724 -1.1789229 -5.95585939 -0.39240655 0 0 Z " fill="#2F2B2C" transform="translate(292,663)"/>
<path d="M0 0 C3.96 0 7.92 0 12 0 C11.01 0.66 10.02 1.32 9 2 C8.5818783 5.00852608 8.5818783 5.00852608 8.70703125 8.5390625 C8.7215332 10.49199219 8.7215332 10.49199219 8.73632812 12.484375 C8.76139612 13.86458923 8.78679098 15.24479756 8.8125 16.625 C8.82754483 18.01300663 8.84123359 19.40102867 8.85351562 20.7890625 C8.8889743 24.19309509 8.93839702 27.59635622 9 31 C10.77007714 31.08114106 12.54122098 31.13925505 14.3125 31.1875 C15.29863281 31.22230469 16.28476562 31.25710938 17.30078125 31.29296875 C20.04574389 31.24278108 20.04574389 31.24278108 21.85546875 29.48828125 C22.23316406 28.99714844 22.61085938 28.50601563 23 28 C23.125 30.375 23.125 30.375 23 33 C21 35 21 35 18.84521484 35.22705078 C17.97590332 35.21657715 17.1065918 35.20610352 16.2109375 35.1953125 C15.26992188 35.18886719 14.32890625 35.18242188 13.359375 35.17578125 C11.88210938 35.15064453 11.88210938 35.15064453 10.375 35.125 C9.38242187 35.11597656 8.38984375 35.10695313 7.3671875 35.09765625 C4.91121866 35.07404116 2.45572832 35.04110799 0 35 C0 34.34 0 33.68 0 33 C0.99 33 1.98 33 3 33 C2.9065465 28.6213617 2.80047246 24.24326804 2.68261719 19.86523438 C2.64430002 18.37541111 2.60945192 16.88549446 2.578125 15.39550781 C2.53253271 13.25551952 2.47453126 11.11617564 2.4140625 8.9765625 C2.3826416 7.68830566 2.3512207 6.40004883 2.31884766 5.07275391 C2.31541732 1.89518495 2.31541732 1.89518495 0 0 Z " fill="#383536" transform="translate(491,663)"/>
<path d="M0 0 C3.63 0 7.26 0 11 0 C15 7.375 15 7.375 15 13 C9.72 13 4.44 13 -1 13 C-1 12.34 -1 11.68 -1 11 C-1.66 11 -2.32 11 -3 11 C-2.50639991 6.72213252 -1.95216435 3.90432869 0 0 Z " fill="#FBFBFB" transform="translate(312,685)"/>
<path d="M0 0 C-0.47074703 2.54203398 -1.01076993 4.0146471 -2.5625 6.125 C-5.00423995 11.0084799 -4.89781783 16.13277531 -3.2734375 21.3203125 C-1.85358999 24.4485944 -0.42069738 26.61642298 2.125 28.9375 C6.33273509 30.49253253 10.54373856 30.74906489 15 31 C14.67 31.66 14.34 32.32 14 33 C7.13494835 33.51487887 1.3348693 33.85218404 -4.375 29.60546875 C-8.61365071 25.41776336 -10.20934341 20.89499853 -10.5625 15 C-10.35164636 9.74487845 -8.42793086 5.93970645 -5 2 C-2 0 -2 0 0 0 Z " fill="#302C2D" transform="translate(534,665)"/>
<path d="M0 0 C3.63 0 7.26 0 11 0 C10.34 0.66 9.68 1.32 9 2 C8.70429145 5.07696796 8.70429145 5.07696796 8.76953125 8.6875 C8.76998947 9.34580811 8.77044769 10.00411621 8.7709198 10.68237305 C8.77394119 12.07439984 8.78182419 13.46642328 8.79418945 14.85839844 C8.81242868 16.99165803 8.81469924 19.12448313 8.81445312 21.2578125 C8.45530934 27.82742306 8.45530934 27.82742306 10 34 C7.36 34 4.72 34 2 34 C2.01047363 33.04109863 2.02094727 32.08219727 2.03173828 31.09423828 C2.06789328 27.54219281 2.09088393 23.99016366 2.10986328 20.43798828 C2.11993118 18.89954902 2.13358646 17.36112893 2.15087891 15.82275391 C2.17509317 13.61355867 2.18647491 11.40461605 2.1953125 9.1953125 C2.20563507 8.50567413 2.21595764 7.81603577 2.22659302 7.10549927 C2.22699478 5.40199094 2.12191026 3.69914057 2 2 C1.34 1.34 0.68 0.68 0 0 Z " fill="#393536" transform="translate(347,663)"/>
<path d="M0 0 C3.63 0 7.26 0 11 0 C10.34 0.66 9.68 1.32 9 2 C8.62653332 5.20538403 8.62653332 5.20538403 8.5859375 8.9765625 C8.56657135 9.66181 8.5472052 10.3470575 8.5272522 11.05307007 C8.46743169 13.24358644 8.42106244 15.4341553 8.375 17.625 C8.33682237 19.10939802 8.29777076 20.59377384 8.2578125 22.078125 C8.16172916 25.71854685 8.07770718 29.35913436 8 33 C8.66 33.33 9.32 33.66 10 34 C7.36 34 4.72 34 2 34 C2.33 33.01 2.66 32.02 3 31 C3.2623894 26.33741985 3.23143474 21.66916218 3.25 17 C3.270625 15.70320312 3.29125 14.40640625 3.3125 13.0703125 C3.31765625 11.83023438 3.3228125 10.59015625 3.328125 9.3125 C3.34214355 7.60513672 3.34214355 7.60513672 3.35644531 5.86328125 C3.25269327 2.63835509 3.25269327 2.63835509 0 0 Z " fill="#292526" transform="translate(620,663)"/>
<path d="M0 0 C3.3 0 6.6 0 10 0 C9.34 0.66 8.68 1.32 8 2 C7.67835838 4.32539128 7.67835838 4.32539128 7.69140625 7.015625 C7.66626953 8.01980469 7.64113281 9.02398438 7.61523438 10.05859375 C7.58033725 12.1705158 7.5490326 14.28250055 7.52148438 16.39453125 C7.37606999 21.94865138 7.24784993 26.26610552 4 31 C-1.15789474 35 -1.15789474 35 -4 35 C-4 34.01 -4 33.02 -4 32 C-2.34467377 30.98133771 -0.67739862 29.98189187 1 29 C2.63133978 24.10598066 2.18452602 19.06166204 2.1875 13.9375 C2.19974609 12.82310547 2.21199219 11.70871094 2.22460938 10.56054688 C2.22654297 9.49771484 2.22847656 8.43488281 2.23046875 7.33984375 C2.23457764 6.36394287 2.23868652 5.38804199 2.24291992 4.38256836 C2.23442885 1.81327076 2.23442885 1.81327076 0 0 Z " fill="#3D393A" transform="translate(597,663)"/>
<path d="M0 0 C9.9 0 19.8 0 30 0 C30 1.98 30 3.96 30 6 C29.34 6 28.68 6 28 6 C27.34 4.35 26.68 2.7 26 1 C19.565 1.495 19.565 1.495 13 2 C13 11.57 13 21.14 13 31 C12.67 31 12.34 31 12 31 C12 21.76 12 12.52 12 3 C3.12731854 3.28800934 3.12731854 3.28800934 0 5 C0 3.35 0 1.7 0 0 Z " fill="#777576" transform="translate(423,663)"/>
<path d="M0 0 C0.25068829 9.94396878 -0.3049249 19.1776452 -2 29 C-2.33 29 -2.66 29 -3 29 C-3.34011625 25.83402429 -3.67083187 22.6671312 -4 19.5 C-4.09539063 18.613125 -4.19078125 17.72625 -4.2890625 16.8125 C-4.83514946 11.50765526 -5.0996753 6.33262848 -5 1 C-3 0 -3 0 0 0 Z " fill="#1CBDD0" transform="translate(584,170)"/>
<path d="M0 0 C3.63 0 7.26 0 11 0 C10.51917969 0.59167969 10.03835938 1.18335938 9.54296875 1.79296875 C7.2616561 6.53463379 7.42894827 11.11225279 7.3125 16.3125 C7.27833984 17.33923828 7.24417969 18.36597656 7.20898438 19.42382812 C7.12676591 21.94910963 7.05753064 24.4740554 7 27 C6.34 26.67 5.68 26.34 5 26 C5 18.08 5 10.16 5 2 C3.35 1.67 1.7 1.34 0 1 C0 0.67 0 0.34 0 0 Z " fill="#2E2A2B" transform="translate(400,663)"/>
<path d="M0 0 C2.56529454 1.28264727 2.66499863 2.22772349 3.625 4.875 C3.88539063 5.57367187 4.14578125 6.27234375 4.4140625 6.9921875 C5 9 5 9 5 12 C2.03 12 -0.94 12 -4 12 C-3.27467453 9.09869813 -2.49882535 6.51867482 -1.4375 3.75 C-1.16808594 3.04359375 -0.89867187 2.3371875 -0.62109375 1.609375 C-0.41613281 1.07828125 -0.21117187 0.5471875 0 0 Z " fill="#F1F1F1" transform="translate(317,671)"/>
<path d="M0 0 C1.60080151 4.00200378 0.29279692 7.04556236 -1 11 C-0.34 11 0.32 11 1 11 C1 11.66 1 12.32 1 13 C-2.63 13 -6.26 13 -10 13 C-10 12.34 -10 11.68 -10 11 C-9.07574219 10.89171875 -9.07574219 10.89171875 -8.1328125 10.78125 C-5.82315313 10.19115968 -5.82315313 10.19115968 -4.8046875 7.96875 C-4.49789063 7.1540625 -4.19109375 6.339375 -3.875 5.5 C-2.18786693 1.09393346 -2.18786693 1.09393346 0 0 Z " fill="#4D4A4B" transform="translate(310,685)"/>
<path d="M0 0 C1.18851562 0.00902344 2.37703125 0.01804687 3.6015625 0.02734375 C4.51679688 0.03894531 5.43203125 0.05054688 6.375 0.0625 C6.375 2.3725 6.375 4.6825 6.375 7.0625 C5.715 6.7325 5.055 6.4025 4.375 6.0625 C4.375 5.0725 4.375 4.0825 4.375 3.0625 C-3.36838636 2.67291465 -3.36838636 2.67291465 -10.625 5.0625 C-8.13924872 -0.44166354 -5.83830594 -0.05723829 0 0 Z " fill="#3C393A" transform="translate(285.625,662.9375)"/>
<path d="M0 0 C1.18851563 0.00902344 2.37703125 0.01804687 3.6015625 0.02734375 C4.51679687 0.03894531 5.43203125 0.05054688 6.375 0.0625 C6.375 2.3725 6.375 4.6825 6.375 7.0625 C5.715 5.7425 5.055 4.4225 4.375 3.0625 C-3.36838636 2.67291465 -3.36838636 2.67291465 -10.625 5.0625 C-8.13924872 -0.44166354 -5.83830594 -0.05723829 0 0 Z " fill="#3E3B3C" transform="translate(660.625,662.9375)"/>
<path d="M0 0 C1.98 0 3.96 0 6 0 C6 0.33 6 0.66 6 1 C12.93 1.33 19.86 1.66 27 2 C27 2.33 27 2.66 27 3 C17.76 3 8.52 3 -1 3 C-0.67 2.01 -0.34 1.02 0 0 Z " fill="#5B595A" transform="translate(716,618)"/>
<path d="M0 0 C0.33 0 0.66 0 1 0 C1.125 2.375 1.125 2.375 1 5 C-1 7 -1 7 -3.15478516 7.22705078 C-4.02409668 7.21657715 -4.8934082 7.20610352 -5.7890625 7.1953125 C-6.73007812 7.18886719 -7.67109375 7.18242188 -8.640625 7.17578125 C-9.62546875 7.15902344 -10.6103125 7.14226563 -11.625 7.125 C-12.61757813 7.11597656 -13.61015625 7.10695313 -14.6328125 7.09765625 C-17.08878134 7.07404116 -19.54427168 7.04110799 -22 7 C-22 6.34 -22 5.68 -22 5 C-21.44014404 5.02618408 -20.88028809 5.05236816 -20.3034668 5.0793457 C-17.76509706 5.18332331 -15.22717447 5.2483205 -12.6875 5.3125 C-11.36588867 5.3753418 -11.36588867 5.3753418 -10.01757812 5.43945312 C-7.58032065 5.48578882 -5.38991006 5.48697227 -3 5 C-0.87255161 2.6406649 -0.87255161 2.6406649 0 0 Z " fill="#716F70" transform="translate(513,691)"/>
<path d="M0 0 C0.680625 0.804375 1.36125 1.60875 2.0625 2.4375 C5.48477302 5.42288711 7.5428126 5.73781251 12 6 C12 6.66 12 7.32 12 8 C10.56260487 8.02712066 9.12506137 8.04645067 7.6875 8.0625 C6.48673828 8.07990234 6.48673828 8.07990234 5.26171875 8.09765625 C3 8 3 8 0 7 C0 4.69 0 2.38 0 0 Z " fill="#292526" transform="translate(273,690)"/>
<path d="M0 0 C0.66 0 1.32 0 2 0 C4.04169485 2.90548882 5 4.40142046 5 8 C3.35 7.67 1.7 7.34 0 7 C0 4.69 0 2.38 0 0 Z " fill="#4C494A" transform="translate(648,690)"/>
<path d="M0 0 C0.91007813 0.00902344 1.82015625 0.01804687 2.7578125 0.02734375 C3.45648437 0.03894531 4.15515625 0.05054688 4.875 0.0625 C4.875 0.7225 4.875 1.3825 4.875 2.0625 C3.95267578 2.15337891 3.95267578 2.15337891 3.01171875 2.24609375 C2.20347656 2.32988281 1.39523437 2.41367187 0.5625 2.5 C-0.23800781 2.58121094 -1.03851562 2.66242187 -1.86328125 2.74609375 C-4.28587179 3.01515693 -4.28587179 3.01515693 -7.125 4.0625 C-7.125 3.0725 -7.125 2.0825 -7.125 1.0625 C-4.60024538 -0.19987731 -2.81299534 -0.03606404 0 0 Z " fill="#3F3C3D" transform="translate(541.125,662.9375)"/>
<path d="M0 0 C-3.96 1.65 -7.92 3.3 -12 5 C-12 4.34 -12 3.68 -12 3 C-12.66 2.67 -13.32 2.34 -14 2 C-12.23225581 1.46877637 -10.46065917 0.95035927 -8.6875 0.4375 C-7.70136719 0.14746094 -6.71523438 -0.14257812 -5.69921875 -0.44140625 C-3 -1 -3 -1 0 0 Z " fill="#33C4D5" transform="translate(554,367)"/>
<path d="M0 0 C4.10958767 1.45044271 7.43258745 3.51110752 11 6 C10.01 6.495 10.01 6.495 9 7 C6.6171875 6.00390625 6.6171875 6.00390625 3.875 4.5625 C2.96492187 4.08941406 2.05484375 3.61632812 1.1171875 3.12890625 C0.41851563 2.75636719 -0.28015625 2.38382812 -1 2 C-0.67 1.34 -0.34 0.68 0 0 Z " fill="#2BC1D3" transform="translate(533,319)"/>
<path d="M0 0 C1.65 0 3.3 0 5 0 C5 2.31 5 4.62 5 7 C4.34 6.67 3.68 6.34 3 6 C3 5.01 3 4.02 3 3 C2.01 2.67 1.02 2.34 0 2 C0 1.34 0 0.68 0 0 Z " fill="#464344" transform="translate(287,663)"/>
<path d="M0 0 C4.455 0.99 4.455 0.99 9 2 C9 2.33 9 2.66 9 3 C7.329375 3.2165625 7.329375 3.2165625 5.625 3.4375 C2.17857953 3.78372035 2.17857953 3.78372035 0 5 C0 3.35 0 1.7 0 0 Z " fill="#3F3D3E" transform="translate(423,663)"/>
<path d="M0 0 C1.98 0 3.96 0 6 0 C5.67 0.99 5.34 1.98 5 3 C3.02 3 1.04 3 -1 3 C-0.67 2.01 -0.34 1.02 0 0 Z " fill="#413E3F" transform="translate(716,618)"/>
<path d="M0 0 C1.98 0 3.96 0 6 0 C6 0.99 6 1.98 6 3 C4.02 3 2.04 3 0 3 C0 2.01 0 1.02 0 0 Z " fill="#575556" transform="translate(912,425)"/>
<path d="M0 0 C0 1.98 0 3.96 0 6 C-0.66 6 -1.32 6 -2 6 C-2.66 4.35 -3.32 2.7 -4 1 C-2 0 -2 0 0 0 Z " fill="#4C494A" transform="translate(453,663)"/>
<path d="M0 0 C0.66 0 1.32 0 2 0 C2 2.97 2 5.94 2 9 C0.4375 7.3125 0.4375 7.3125 -1 5 C-0.6875 2.25 -0.6875 2.25 0 0 Z " fill="#514E4F" transform="translate(770,605)"/>
<path d="M0 0 C1.98 0 3.96 0 6 0 C5.67 0.99 5.34 1.98 5 3 C3.35 3 1.7 3 0 3 C0 2.01 0 1.02 0 0 Z " fill="#514E4F" transform="translate(213,425)"/>
<path d="M0 0 C3 1 3 1 4.75 3.9375 C5.1625 4.948125 5.575 5.95875 6 7 C5.67 7.66 5.34 8.32 5 9 C4.16094435 7.87926138 3.32892169 6.75325453 2.5 5.625 C2.0359375 4.99851563 1.571875 4.37203125 1.09375 3.7265625 C0 2 0 2 0 0 Z " fill="#2EC2D3" transform="translate(623,148)"/>
</svg>
