<?xml version="1.0" encoding="UTF-8"?>
<svg version="1.1" xmlns="http://www.w3.org/2000/svg" width="316" height="316">
<path d="M0 0 C104.28 0 208.56 0 316 0 C316 104.28 316 208.56 316 316 C211.72 316 107.44 316 0 316 C0 211.72 0 107.44 0 0 Z " fill="#FEFEFE" transform="translate(0,0)"/>
<path d="M0 0 C7.3374298 5.2478136 12.07853959 11.9796238 16.875 19.5 C18.15465254 21.4956486 19.44325052 23.4855993 20.7421875 25.46875 C21.2976123 26.33951172 21.85303711 27.21027344 22.42529297 28.10742188 C23.20477295 29.04424805 23.20477295 29.04424805 24 30 C24.99 30 25.98 30 27 30 C28.32634011 28.65708329 28.32634011 28.65708329 29.453125 26.81640625 C29.90397461 26.14013184 30.35482422 25.46385742 30.81933594 24.76708984 C31.52751465 23.67581787 31.52751465 23.67581787 32.25 22.5625 C33.23777718 21.08602964 34.227353 19.61076097 35.21875 18.13671875 C35.93611328 17.06429932 35.93611328 17.06429932 36.66796875 15.97021484 C42.4540326 7.41201557 48.71089853 -0.9638717 59 -4 C69.20967085 -4.86685885 76.80323893 -3.16204349 85 3 C90.57129208 8.55496834 94.99932446 15.0376407 99.4375 21.5 C100.07365234 22.4178125 100.70980469 23.335625 101.36523438 24.28125 C102.91454801 26.51785314 104.45935043 28.75742421 106 31 C111.38310008 26.10627265 115.00573975 20.21267086 118.91992188 14.125 C124.79250799 5.26337305 131.48408471 -1.31915968 142 -4 C149.94136674 -5.07348736 157.23853736 -3.8457713 163.6796875 1.02734375 C170.7391298 7.1762203 175.18062828 12.73571938 176.26171875 22.3203125 C176.85942324 35.46981131 169.08328412 44.53998394 161.71484375 54.63330078 C158.79964695 58.65663759 155.96607529 62.73665886 153.125 66.8125 C151.94034744 68.50668055 150.75544995 70.20068986 149.5703125 71.89453125 C148.98024414 72.73838379 148.39017578 73.58223633 147.78222656 74.45166016 C144.27644757 79.46444387 140.76781129 84.47522827 137.25927734 89.48608398 C133.6846009 94.59183509 130.11333693 99.69995286 126.54418945 104.80957031 C124.79170751 107.31536434 123.03494176 109.81810523 121.27734375 112.3203125 C119.16814807 115.32392567 117.07781937 118.3391219 115.00390625 121.3671875 C114.10690832 122.66155362 113.20978179 123.95583064 112.3125 125.25 C111.91450195 125.84087402 111.51650391 126.43174805 111.10644531 127.04052734 C109.98828125 128.640625 109.98828125 128.640625 108 131 C107.01 131 106.02 131 105 131 C103.12854801 128.68784124 101.46783671 126.39961407 99.8125 123.9375 C99.2963916 123.18815186 98.7802832 122.43880371 98.24853516 121.66674805 C97.10955719 120.01259797 95.97468039 118.35561877 94.84326172 116.69628906 C92.23220951 112.8768903 89.58795343 109.08091165 86.9440918 105.28417969 C85.56740583 103.30695 84.19256009 101.3284377 82.81958008 99.34863281 C78.53385098 93.17319474 74.20742296 87.03065189 69.74169922 80.98364258 C67 77.21635364 67 77.21635364 67 75 C66.34 75 65.68 75 65 75 C64.77183594 75.68449219 64.54367188 76.36898437 64.30859375 77.07421875 C62.68837531 80.69673698 60.44994643 83.67399324 58.0625 86.8125 C54.16188904 92.03450311 50.35984337 97.30243934 46.6875 102.6875 C46.24801025 103.32856689 45.80852051 103.96963379 45.35571289 104.63012695 C43.29725714 107.63357944 41.24374683 110.64017064 39.20166016 113.65478516 C37.31033719 116.44294403 35.406011 119.22186771 33.5 122 C32.90018311 122.89162842 32.30036621 123.78325684 31.68237305 124.7019043 C31.11687744 125.52215088 30.55138184 126.34239746 29.96875 127.1875 C29.46794922 127.92355469 28.96714844 128.65960938 28.45117188 129.41796875 C27.7328418 130.20107422 27.7328418 130.20107422 27 131 C26.01 131 25.02 131 24 131 C22.640625 129.6015625 22.640625 129.6015625 21.25 127.625 C20.72994385 126.89555176 20.2098877 126.16610352 19.67407227 125.41455078 C19.12162842 124.61774902 18.56918457 123.82094727 18 123 C17.42113037 122.18128418 16.84226074 121.36256836 16.24584961 120.51904297 C14.4850969 118.02092226 12.73979213 115.51275332 11 113 C10.27901123 111.96020996 10.27901123 111.96020996 9.54345703 110.89941406 C7.30695316 107.66702385 5.08397297 104.42562387 2.8671875 101.1796875 C-0.32536987 96.51261098 -3.56694017 91.88031413 -6.8125 87.25 C-7.4007959 86.41041748 -7.9890918 85.57083496 -8.59521484 84.70581055 C-10.98848456 81.2916424 -13.38311558 77.87843394 -15.77929688 74.46630859 C-19.27734427 69.48497315 -22.76788958 64.49854243 -26.24902344 59.50537109 C-27.43895119 57.8027723 -28.63244314 56.1026601 -29.82910156 54.40478516 C-31.62324863 51.85870045 -33.40626979 49.3051319 -35.1875 46.75 C-35.72834229 45.9880835 -36.26918457 45.22616699 -36.82641602 44.44116211 C-42.20992293 36.67148 -45.05699403 29.57249525 -44 20 C-42.44030896 11.52708379 -37.64498258 6.4580604 -31.5625 0.6875 C-21.36029879 -6.03102275 -10.72735151 -5.37158198 0 0 Z " fill="#E20639" transform="translate(92,102)"/>
<path d="M0 0 C7.67409708 5.8059131 12.95542202 11.40621102 15 21 C16.60742089 35.2508658 8.67627373 44.72770457 0.71484375 55.63330078 C-2.20035305 59.65663759 -5.03392471 63.73665886 -7.875 67.8125 C-9.05965256 69.50668055 -10.24455005 71.20068986 -11.4296875 72.89453125 C-12.01975586 73.73838379 -12.60982422 74.58223633 -13.21777344 75.45166016 C-16.72355243 80.46444387 -20.23218871 85.47522827 -23.74072266 90.48608398 C-27.3153991 95.59183509 -30.88666307 100.69995286 -34.45581055 105.80957031 C-36.20829249 108.31536434 -37.96505824 110.81810523 -39.72265625 113.3203125 C-41.83185193 116.32392567 -43.92218063 119.3391219 -45.99609375 122.3671875 C-46.89309168 123.66155362 -47.79021821 124.95583064 -48.6875 126.25 C-49.08549805 126.84087402 -49.48349609 127.43174805 -49.89355469 128.04052734 C-51.01171875 129.640625 -51.01171875 129.640625 -53 132 C-53.99 132 -54.98 132 -56 132 C-57.87147151 129.68781713 -59.53221163 127.39968305 -61.1875 124.9375 C-61.7043335 124.18670166 -62.22116699 123.43590332 -62.75366211 122.66235352 C-63.89326009 121.00666058 -65.02887871 119.34822374 -66.16113281 117.6875 C-68.7508632 113.90261523 -71.37941733 110.14522743 -74.00512695 106.38525391 C-81.05122329 96.28977898 -88.04226442 86.15652503 -95 76 C-89.45935399 66.91833963 -83.33492914 58.26456912 -77.20703125 49.57421875 C-76.13726419 48.05000994 -75.06817364 46.52532591 -74 45 C-73.58927246 44.41814941 -73.17854492 43.83629883 -72.75537109 43.23681641 C-68.26629725 36.7346119 -67.72528291 31.90944667 -67.875 24.1875 C-67.88402344 23.30384766 -67.89304688 22.42019531 -67.90234375 21.50976562 C-67.92580363 19.33972641 -67.96167135 17.16982753 -68 15 C-64.49302905 18.24957859 -61.90631127 21.81312173 -59.25 25.75 C-58.83878906 26.35199219 -58.42757812 26.95398438 -58.00390625 27.57421875 C-56.99876568 29.04686657 -55.99884522 30.52307502 -55 32 C-49.61689992 27.10627265 -45.99426025 21.21267086 -42.08007812 15.125 C-32.65764845 0.90672288 -16.79320068 -9.07971359 0 0 Z " fill="#0F40F6" transform="translate(253,101)"/>
<path d="M0 0 C6.79918865 3.84639815 12.81194173 9.39643775 15.11328125 17.03515625 C16.68730863 33.38847227 11.72540487 42.21271261 2.1171875 54.984375 C-1.06450912 59.23396584 -4.07999225 63.58968926 -7.07421875 67.97265625 C-7.55584473 68.67729004 -8.0374707 69.38192383 -8.53369141 70.10791016 C-9.65330793 71.74900315 -10.77032161 73.39187149 -11.88671875 75.03515625 C-15.31467827 73.89250308 -15.70171434 73.2486346 -17.63671875 70.34375 C-18.1577417 69.57119873 -18.67876465 68.79864746 -19.21557617 68.00268555 C-19.76705322 67.16777588 -20.31853027 66.33286621 -20.88671875 65.47265625 C-22.04895216 63.73792805 -23.21172201 62.00355914 -24.375 60.26953125 C-24.95975098 59.39361328 -25.54450195 58.51769531 -26.14697266 57.61523438 C-27.7766588 55.19837735 -29.43676385 52.80754946 -31.1171875 50.42578125 C-31.61669922 49.71494385 -32.11621094 49.00410645 -32.63085938 48.27172852 C-33.56854448 46.94053923 -34.5109973 45.612691 -35.45898438 44.28881836 C-41.45485556 35.71139152 -41.69822697 27.17387289 -40.88671875 17.03515625 C-39.06343351 9.84027615 -33.60133721 4.58453045 -27.6328125 0.48828125 C-18.78851444 -4.56560335 -9.04958871 -4.6278435 0 0 Z " fill="#010149" transform="translate(170.88671875,100.96484375)"/>
<path d="M0 0 C1.56902561 3.13805122 0.56136446 6.26618588 0.0625 9.625 C-0.08735352 10.68460938 -0.08735352 10.68460938 -0.24023438 11.765625 C-0.48791959 13.51121607 -0.74323871 15.25572084 -1 17 C-1.33 17 -1.66 17 -2 17 C-2.33 14.36 -2.66 11.72 -3 9 C-3.99 9.33 -4.98 9.66 -6 10 C-4.34832443 6.4213696 -2.21713508 3.25179812 0 0 Z " fill="#E81A45" transform="translate(130,116)"/>
</svg>
