<svg xmlns="http://www.w3.org/2000/svg" viewBox="0 0 600 155" class="transition duration-300 h-[50px] 0 fill-gray-300 dark:fill-gray-500"><path d="M282.113 45.1a5.704 5.704 0 0 0-5.9 5.5v28.8a31.906 31.906 0 0 0-44.8 4.9 32.233 32.233 0 0 0-7 20 31.855 31.855 0 0 0 63.7 1.1V51a5.895 5.895 0 0 0-1.7-4.2 6.31 6.31 0 0 0-4.3-1.7m-7.5 66.9a19.918 19.918 0 0 1-26.2 10.7 19.988 19.988 0 0 1 0-36.7 19.918 19.918 0 0 1 26.2 10.7 19.366 19.366 0 0 1 0 15.3m74-30.2a32.166 32.166 0 1 0 9.4 23.6v-1.1a31.963 31.963 0 0 0-2.4-12.2 30.379 30.379 0 0 0-7-10.3m-4.1 30.1a19.6 19.6 0 0 1-4.3 6.3 20.75 20.75 0 0 1-6.3 4.3 19.985 19.985 0 0 1-26.2-10.6 19.92 19.92 0 0 1 10.6-26.1 20.102 20.102 0 0 1 15.6 0 19.6 19.6 0 0 1 6.3 4.3 20.75 20.75 0 0 1 4.3 6.3 19.851 19.851 0 0 1 0 15.5m135.8-33.6a5.932 5.932 0 0 0-.5-2.3 8.016 8.016 0 0 0-1.3-1.9 6.405 6.405 0 0 0-1.9-1.3 5.932 5.932 0 0 0-2.3-.5 6.204 6.204 0 0 0-3.2.9l-34 22.1V51.1a5.895 5.895 0 0 0-1.7-4.2 5.94 5.94 0 0 0-10.2 4.1v79.1a5.895 5.895 0 0 0 1.7 4.2 5.8 5.8 0 0 0 8.4 0 5.508 5.508 0 0 0 1.7-4.2v-20.5l6.9-4.5 26.3 29.5a5.417 5.417 0 0 0 4 1.5 4.558 4.558 0 0 0 2.3-.5 5.863 5.863 0 0 0 1.9-1.3 8.016 8.016 0 0 0 1.3-1.9 5.932 5.932 0 0 0 .5-2.3 6.197 6.197 0 0 0-1.6-4.1l-24.4-27.5 23.8-15.5a5.107 5.107 0 0 0 2.3-4.7m-98.7 11.8a20.03 20.03 0 0 1 6.4-4.3 20.914 20.914 0 0 1 7.8-1.6 20.033 20.033 0 0 1 6.9 1.2 21.203 21.203 0 0 1 6.1 3.7 6.116 6.116 0 0 0 3.9 1.3 5.378 5.378 0 0 0 4.3-1.7 6.131 6.131 0 0 0 1.7-4.3 5.685 5.685 0 0 0-2.1-4.5 30.01 30.01 0 0 0-20.8-7.7 31.9 31.9 0 1 0 20.7 56.1 5.966 5.966 0 0 0 1.9-4.4 5.704 5.704 0 0 0-5.5-5.9h-.4a6.364 6.364 0 0 0-3.8 1.2 20.707 20.707 0 0 1-6 3.7 20.454 20.454 0 0 1-6.9 1.2 19.116 19.116 0 0 1-7.8-1.6 21.194 21.194 0 0 1-6.4-4.3 20.009 20.009 0 0 1-.1-28.2c.1.2.1.2.1.1m216.8-13.7a10.97 10.97 0 0 0-4-2.4 23.957 23.957 0 0 0-5.3-1.2 48.863 48.863 0 0 0-5.4-.3 30.185 30.185 0 0 0-10.7 1.9 32.684 32.684 0 0 0-9.3 5.2v-1.2a5.955 5.955 0 0 0-11.9 0v51.9a5.955 5.955 0 0 0 11.9 0v-25.9a19.116 19.116 0 0 1 1.6-7.8 18.133 18.133 0 0 1 4.3-6.3 19.786 19.786 0 0 1 14.1-5.9 22.897 22.897 0 0 1 7.8 1.4 5.421 5.421 0 0 0 2.5.6 4.558 4.558 0 0 0 2.3-.5 5.863 5.863 0 0 0 1.9-1.3 6.407 6.407 0 0 0 1.3-1.9 5.932 5.932 0 0 0 .5-2.3 5.136 5.136 0 0 0-1.6-4m-55.2 15.7a32.48 32.48 0 0 0-29.5-19.6 31.85 31.85 0 1 0 20.8 56l.2-.2a4.708 4.708 0 0 0 1.3-1.5 6.057 6.057 0 0 0-1.5-8.4 5.892 5.892 0 0 0-7.3.7c-.2.2-.8.7-.8.8l-.1.1a18.087 18.087 0 0 1-5.7 3.3 17.853 17.853 0 0 1-6.9 1.1 19.887 19.887 0 0 1-12-3.9 18.389 18.389 0 0 1-4.4-4.4 17.817 17.817 0 0 1-2.8-5.7h45a5.895 5.895 0 0 0 4.2-1.7 5.175 5.175 0 0 0 1.7-4.2 32.44 32.44 0 0 0-2.2-12.4m-48.7 6.4a16.855 16.855 0 0 1 2.8-5.7 18.385 18.385 0 0 1 4.4-4.4 22.888 22.888 0 0 1 5.6-2.9 20.345 20.345 0 0 1 12.6 0 20.237 20.237 0 0 1 12.9 13Zm83.6 29a4.15 4.15 0 1 0 4.2 4.2 4.14 4.14 0 0 0-4.2-4.2Zm0 7.4a3.253 3.253 0 1 1 3.1-3.4v.2a3.055 3.055 0 0 1-3 3.2Z"></path><path d="M579.113 131.7a1.093 1.093 0 0 0 .4-1.9 3.195 3.195 0 0 0-1.4-.3 8.601 8.601 0 0 0-1.6.1v4.1h.9v-1.6h.4a.804.804 0 0 1 .9.6c.1.3.2.7.3 1h1a1.93 1.93 0 0 1-.3-1 .95.95 0 0 0-.6-1m-1.2-.3h-.5v-1.2h.5c.6 0 .9.3.9.6.1.4-.4.7-.9.6m-364.4-72.9c-.6-.5-6-4.6-17.6-4.6a55.94 55.94 0 0 0-9.1.8c-2.2-15.3-14.9-22.7-15.4-23.1l-3.1-1.8-2 2.9a42.761 42.761 0 0 0-5.5 12.8 30.387 30.387 0 0 0 3.6 23.9c-5.3 3-13.9 3.7-15.7 3.8h-142a6.7 6.7 0 0 0-6.7 6.7 101.19 101.19 0 0 0 6.2 36.5c4.9 12.8 12.2 22.3 21.6 28.1 10.6 6.5 27.9 10.2 47.4 10.2a145.379 145.379 0 0 0 26.3-2.4 108.54 108.54 0 0 0 34.4-12.5 94.155 94.155 0 0 0 23.4-19.2c11.3-12.7 18-26.9 22.9-39.5h2c12.3 0 19.9-4.9 24.1-9.1a26.633 26.633 0 0 0 6.4-9.4l.9-2.6Z"></path><path d="M19.913 69.1h19a1.685 1.685 0 0 0 1.7-1.7v-17a1.685 1.685 0 0 0-1.7-1.7h-19a1.685 1.685 0 0 0-1.7 1.7v17a1.75 1.75 0 0 0 1.7 1.7Zm26.2 0h19a1.685 1.685 0 0 0 1.7-1.7v-17a1.685 1.685 0 0 0-1.7-1.7h-19a1.685 1.685 0 0 0-1.7 1.7v17a1.75 1.75 0 0 0 1.7 1.7m26.7 0h19a1.685 1.685 0 0 0 1.7-1.7v-17a1.685 1.685 0 0 0-1.7-1.7h-19a1.685 1.685 0 0 0-1.7 1.7v17a1.627 1.627 0 0 0 1.7 1.7Zm26.3 0h19a1.685 1.685 0 0 0 1.7-1.7v-17a1.685 1.685 0 0 0-1.7-1.7h-19a1.685 1.685 0 0 0-1.7 1.7v17a1.685 1.685 0 0 0 1.7 1.7Zm-53-24.3h19a1.752 1.752 0 0 0 1.7-1.7v-17a1.685 1.685 0 0 0-1.7-1.7h-19a1.685 1.685 0 0 0-1.7 1.7v17a1.828 1.828 0 0 0 1.7 1.7m26.7 0h19a1.752 1.752 0 0 0 1.7-1.7v-17a1.685 1.685 0 0 0-1.7-1.7h-19a1.685 1.685 0 0 0-1.7 1.7v17a1.685 1.685 0 0 0 1.7 1.7m26.3 0h19a1.752 1.752 0 0 0 1.7-1.7v-17a1.752 1.752 0 0 0-1.7-1.7h-19a1.685 1.685 0 0 0-1.7 1.7v17a1.752 1.752 0 0 0 1.7 1.7m0-24.4h19a1.685 1.685 0 0 0 1.7-1.7v-17a1.752 1.752 0 0 0-1.7-1.7h-19a1.685 1.685 0 0 0-1.7 1.7v17a1.752 1.752 0 0 0 1.7 1.7m26.5 48.7h19a1.685 1.685 0 0 0 1.7-1.7v-17a1.685 1.685 0 0 0-1.7-1.7h-19a1.685 1.685 0 0 0-1.7 1.7v17a1.75 1.75 0 0 0 1.7 1.7"></path></svg>